<svg width="45" height="45" viewBox="0 0 45 45" fill="none" xmlns="http://www.w3.org/2000/svg">
<rect width="45" height="45" rx="22.5" fill="#3981F6"/>
<path d="M22.5 10.2857C21.2286 10.2857 19.9857 10.6627 18.9285 11.3691C17.8713 12.0755 17.0474 13.0795 16.5608 14.2542C16.0742 15.4288 15.9469 16.7214 16.195 17.9684C16.443 19.2154 17.0553 20.3609 17.9543 21.26C18.8534 22.159 19.9988 22.7713 21.2459 23.0193C22.4929 23.2674 23.7855 23.1401 24.9601 22.6535C26.1348 22.1669 27.1388 21.343 27.8452 20.2858C28.5516 19.2286 28.9286 17.9857 28.9286 16.7143C28.9286 15.0093 28.2513 13.3742 27.0457 12.1686C25.8401 10.963 24.205 10.2857 22.5 10.2857ZM22.5 20.5714C21.7371 20.5714 20.9914 20.3452 20.3571 19.9214C19.7228 19.4975 19.2284 18.8951 18.9365 18.1903C18.6445 17.4855 18.5682 16.71 18.717 15.9618C18.8658 15.2136 19.2332 14.5263 19.7726 13.9869C20.312 13.4474 20.9993 13.0801 21.7475 12.9312C22.4957 12.7824 23.2713 12.8588 23.9761 13.1507C24.6809 13.4427 25.2833 13.9371 25.7071 14.5714C26.1309 15.2057 26.3572 15.9514 26.3572 16.7143C26.3572 17.7373 25.9508 18.7183 25.2274 19.4417C24.5041 20.165 23.523 20.5714 22.5 20.5714ZM34.0714 34.7143V33.4286C34.0714 31.0416 33.1232 28.7524 31.4354 27.0646C29.7476 25.3768 27.4584 24.4286 25.0714 24.4286H19.9286C17.5416 24.4286 15.2525 25.3768 13.5646 27.0646C11.8768 28.7524 10.9286 31.0416 10.9286 33.4286V34.7143H13.5V33.4286C13.5 31.7236 14.1773 30.0885 15.3829 28.8829C16.5885 27.6773 18.2236 27 19.9286 27H25.0714C26.7764 27 28.4115 27.6773 29.6171 28.8829C30.8227 30.0885 31.5 31.7236 31.5 33.4286V34.7143H34.0714Z" fill="white"/>
</svg>
