<svg width="243" height="267" viewBox="0 0 243 267" fill="none" xmlns="http://www.w3.org/2000/svg">
<path d="M36.9841 264.611H137.79" stroke="#3981F6" stroke-opacity="0.2" stroke-width="3" stroke-miterlimit="10" stroke-linecap="round"/>
<path d="M45.7097 63.5387C59.5291 56.6562 74.854 44.2268 76.0705 22.7803C78.3218 -16.8807 22.0143 4.04653 12.5572 34.6021C12.4628 34.9073 12.3711 35.2105 12.2822 35.5118C6.40026 55.4538 27.101 72.8141 45.7097 63.5387Z" fill="#3981F6" fill-opacity="0.2"/>
<path d="M234.836 140.453C234.795 140.682 234.754 140.909 234.711 141.138C234.355 143.064 233.953 144.982 233.505 146.893C233.505 146.897 233.505 146.901 233.505 146.905C233.492 146.957 233.481 147.008 233.468 147.06C233.4 147.345 233.333 147.627 233.265 147.909C233.196 148.191 233.123 148.488 233.049 148.777C232.974 149.066 232.904 149.354 232.828 149.643C232.79 149.791 232.753 149.938 232.71 150.085C232.652 150.306 232.592 150.529 232.532 150.751C232.505 150.857 232.475 150.964 232.446 151.07C232.367 151.362 232.286 151.654 232.21 151.947C232.133 152.221 232.055 152.498 231.974 152.772C231.944 152.876 231.915 152.98 231.884 153.083C231.885 153.086 231.885 153.088 231.884 153.091C231.802 153.379 231.717 153.666 231.63 153.952C231.531 154.287 231.43 154.62 231.327 154.952C231.125 155.609 230.917 156.264 230.704 156.916L230.694 156.951C230.59 157.265 230.485 157.58 230.379 157.895L230.272 158.208L230.046 158.872C229.928 159.216 229.81 159.561 229.682 159.904C229.582 160.184 229.482 160.463 229.379 160.743C229.276 161.023 229.169 161.316 229.062 161.602C229.002 161.762 228.944 161.923 228.88 162.083C228.804 162.287 228.725 162.492 228.644 162.696C228.586 162.848 228.526 163.001 228.466 163.153C228.436 163.234 228.406 163.312 228.374 163.389C228.254 163.692 228.134 163.995 228.013 164.298C228.001 164.329 227.989 164.358 227.976 164.389L227.764 164.912C227.689 165.096 227.613 165.28 227.536 165.464L227.306 166.014C226.847 167.102 226.371 168.185 225.879 169.261C225.873 169.279 225.865 169.297 225.856 169.314C225.734 169.578 225.612 169.842 225.489 170.104C225.366 170.367 225.239 170.637 225.107 170.914C224.978 171.184 224.848 171.452 224.717 171.721C224.586 171.99 224.454 172.257 224.322 172.525C223.923 173.325 223.515 174.122 223.097 174.915C222.958 175.179 222.818 175.443 222.676 175.706C222.393 176.231 222.106 176.755 221.815 177.276C221.376 178.057 220.93 178.834 220.474 179.605C220.17 180.119 219.861 180.63 219.548 181.139C219.454 181.293 219.359 181.447 219.264 181.601C218.976 182.059 218.687 182.517 218.395 182.973C218.199 183.276 218.003 183.579 217.805 183.88C217.608 184.181 217.408 184.482 217.205 184.783L217.103 184.935L216.764 185.431C216.703 185.523 216.639 185.617 216.573 185.71C216.43 185.919 216.286 186.126 216.14 186.333C216.123 186.362 216.103 186.39 216.08 186.419C215.939 186.622 215.798 186.823 215.655 187.022C215.605 187.095 215.553 187.169 215.498 187.243C215.354 187.445 215.209 187.647 215.063 187.847C214.887 188.089 214.71 188.331 214.532 188.572C214.176 189.053 213.816 189.532 213.451 190.008C213.303 190.201 213.154 190.395 213.003 190.587C212.954 190.652 212.904 190.718 212.851 190.783C212.733 190.935 212.615 191.086 212.497 191.237C212.403 191.355 212.307 191.479 212.209 191.599C212.111 191.72 212.02 191.835 211.924 191.953C211.829 192.071 211.744 192.179 211.652 192.291C211.506 192.469 211.361 192.647 211.215 192.824C211.024 193.055 210.832 193.286 210.639 193.517C210.445 193.753 210.25 193.979 210.049 194.209C209.66 194.665 209.267 195.117 208.87 195.565C208.682 195.777 208.493 195.989 208.302 196.199C208.282 196.223 208.26 196.248 208.237 196.272C208.075 196.451 207.914 196.626 207.75 196.806C207.679 196.885 207.606 196.966 207.53 197.042C207.373 197.216 207.213 197.389 207.049 197.56C207.043 197.568 207.037 197.575 207.03 197.582C206.828 197.796 206.625 198.011 206.422 198.225C206.005 198.661 205.585 199.094 205.16 199.523C204.957 199.727 204.754 199.931 204.55 200.133L204.505 200.177C204.343 200.338 204.18 200.498 204.018 200.656C203.932 200.743 203.845 200.826 203.759 200.909C203.616 201.047 203.473 201.186 203.329 201.323C203.218 201.432 203.107 201.537 202.996 201.641C202.885 201.744 202.774 201.852 202.663 201.956C202.552 202.059 202.434 202.173 202.319 202.278C202.178 202.409 202.038 202.54 201.897 202.668C201.437 203.093 200.972 203.513 200.501 203.928C200.375 204.04 200.248 204.153 200.12 204.262C199.993 204.372 199.878 204.476 199.757 204.58C199.556 204.754 199.355 204.928 199.153 205.1C198.951 205.274 198.748 205.445 198.544 205.616L198.368 205.763C198.19 205.912 198.011 206.06 197.83 206.208C197.604 206.394 197.377 206.579 197.149 206.763C197.031 206.863 196.903 206.962 196.778 207.061L196.241 207.488L195.587 207.997C195.39 208.149 195.193 208.3 194.997 208.45L194.721 208.66C194.515 208.817 194.308 208.972 194.1 209.124C193.914 209.263 193.727 209.401 193.539 209.537C193.421 209.623 193.31 209.705 193.194 209.788C193.037 209.901 192.882 210.013 192.729 210.123L192.425 210.34L191.967 210.663L191.575 210.936C191.546 210.956 191.517 210.977 191.488 210.996C191.239 211.17 190.988 211.342 190.738 211.511L190.576 211.619L190.188 211.88L190.122 211.924C189.949 212.041 189.776 212.155 189.602 212.267C189.171 212.553 188.735 212.834 188.296 213.111L187.894 213.364L187.716 213.476C187.533 213.591 187.35 213.705 187.165 213.817C186.942 213.955 186.717 214.091 186.492 214.227L186.474 214.237L186.077 214.473C185.624 214.743 185.167 215.01 184.708 215.275C184.441 215.428 184.174 215.58 183.905 215.731C183.683 215.856 183.46 215.98 183.237 216.102L183.14 216.156L182.786 216.35C182.298 216.616 181.807 216.878 181.312 217.135C181.108 217.242 180.902 217.349 180.696 217.454C180.61 217.499 180.524 217.544 180.437 217.586C180.187 217.715 179.934 217.842 179.682 217.968L179.015 218.296L178.674 218.462C178.674 218.462 178.674 218.462 178.668 218.462C178.451 218.568 178.233 218.672 178.013 218.775C177.384 219.077 176.748 219.371 176.105 219.657C175.869 219.762 175.641 219.865 175.409 219.967L175.064 220.117C174.888 220.196 174.711 220.272 174.534 220.347L174.25 220.465C173.998 220.573 173.743 220.68 173.488 220.785C173.19 220.909 172.89 221.032 172.589 221.153H172.574C172.346 221.245 172.118 221.336 171.889 221.426L171.653 221.52C171.351 221.638 171.047 221.756 170.742 221.874C170.406 222.003 170.07 222.128 169.731 222.253C169.464 222.352 169.195 222.449 168.924 222.545C168.893 222.557 168.863 222.569 168.832 222.578C168.63 222.652 168.428 222.723 168.226 222.793C168.178 222.811 168.132 222.827 168.085 222.843L167.721 222.969C167.474 223.055 167.226 223.139 166.978 223.223C166.731 223.306 166.488 223.387 166.241 223.467C166.123 223.506 166.011 223.542 165.895 223.585L165.859 223.597C165.592 223.683 165.324 223.769 165.056 223.853C164.734 223.954 164.41 224.055 164.085 224.154L163.585 224.325L163.014 224.493C162.823 224.55 162.631 224.606 162.439 224.66C162.138 224.746 161.836 224.832 161.533 224.916L161.122 225.028C160.116 225.302 159.099 225.564 158.07 225.813L157.598 225.925C156.824 226.109 156.043 226.285 155.256 226.452C155.095 226.488 154.934 226.522 154.772 226.555L154.167 226.68C153.56 226.804 152.95 226.922 152.337 227.034L151.756 227.141L151.048 227.267L150.534 227.356C149.873 227.468 149.207 227.575 148.536 227.677C148.356 227.705 148.173 227.732 147.991 227.758L147.474 227.834L146.727 227.938C146.523 227.966 146.319 227.993 146.115 228.019C144.966 228.169 143.807 228.303 142.638 228.423C142.472 228.44 142.307 228.456 142.142 228.472C141.09 228.574 140.028 228.664 138.956 228.741L138.411 228.779L137.629 228.83C137.407 228.844 137.185 228.857 136.962 228.869L136.484 228.895L136.1 228.915L135.621 228.937C135.484 228.937 135.346 228.95 135.206 228.955L134.754 228.974C134.367 228.989 133.98 229.003 133.592 229.014C133.204 229.025 132.814 229.035 132.421 229.044L131.957 229.054C131.591 229.061 131.223 229.066 130.854 229.069C130.7 229.069 130.548 229.069 130.395 229.069C121.768 229.127 112.604 228.377 102.895 226.709C82.3442 223.191 65.8582 217.52 52.8283 210.404C12.9359 188.619 5.43276 153.295 12.8062 124.755C18.0734 104.366 30.9323 87.4396 44.9982 81.3866C44.9982 81.3866 59.9102 75.0386 68.4211 66.0003C68.4211 66.0003 87.182 46.7898 98.4149 29.1652C113.048 6.20369 164.281 -9.67111 214.499 50.8087C233.648 73.8704 240.635 108.12 234.836 140.453Z" fill="#3981F6" fill-opacity="0.2"/>
<path d="M33.6567 80.7163C33.6567 80.7163 -24.134 127.56 16.4498 190.064C65.6057 265.772 191.338 238.257 214.258 199.956" stroke="#3981F6" stroke-opacity="0.2" stroke-width="4" stroke-miterlimit="10" stroke-linecap="round"/>
<path d="M118.434 5.24748C118.434 5.24748 195.828 -17.9158 236.817 73.3744" stroke="#3981F6" stroke-opacity="0.2" stroke-width="4" stroke-miterlimit="10" stroke-linecap="round"/>
<path d="M234.836 140.453C234.795 140.682 234.754 140.909 234.711 141.138C234.355 143.064 233.953 144.982 233.505 146.893C233.505 146.897 233.505 146.901 233.505 146.905C233.492 146.957 233.481 147.008 233.468 147.06C233.4 147.345 233.333 147.627 233.265 147.909C233.196 148.191 233.123 148.488 233.049 148.777C232.974 149.066 232.904 149.354 232.828 149.643C232.79 149.791 232.753 149.938 232.71 150.085C232.652 150.306 232.592 150.529 232.532 150.751C232.505 150.857 232.475 150.964 232.446 151.07C232.367 151.362 232.286 151.654 232.21 151.946C232.133 152.221 232.055 152.497 231.974 152.772C231.944 152.876 231.915 152.98 231.884 153.083C231.885 153.085 231.885 153.088 231.884 153.091C231.802 153.379 231.717 153.666 231.63 153.952C231.531 154.287 231.43 154.62 231.327 154.952C231.125 155.609 230.917 156.264 230.704 156.916L230.694 156.951C230.59 157.265 230.485 157.58 230.379 157.894L230.272 158.208L230.046 158.871C229.928 159.216 229.81 159.561 229.682 159.904C229.582 160.184 229.482 160.463 229.379 160.743C229.276 161.022 229.169 161.316 229.062 161.602C229.002 161.762 228.944 161.923 228.88 162.083C228.804 162.287 228.725 162.492 228.644 162.696C228.586 162.848 228.526 163.001 228.466 163.153C228.436 163.234 228.406 163.312 228.374 163.389C228.254 163.692 228.134 163.995 228.013 164.298C228.001 164.329 227.989 164.358 227.976 164.389L227.764 164.912C227.689 165.096 227.613 165.28 227.536 165.464L227.306 166.014C226.847 167.102 226.371 168.185 225.879 169.261C225.873 169.279 225.865 169.297 225.856 169.314C225.734 169.578 225.612 169.842 225.489 170.104C225.366 170.367 225.239 170.637 225.107 170.914C224.978 171.184 224.848 171.452 224.717 171.721C224.586 171.99 224.454 172.257 224.322 172.524C223.923 173.325 223.515 174.122 223.097 174.915C222.958 175.179 222.818 175.443 222.676 175.706C222.393 176.231 222.106 176.755 221.815 177.276C221.376 178.057 220.93 178.834 220.474 179.605C220.17 180.119 219.861 180.63 219.548 181.139C219.454 181.293 219.359 181.447 219.264 181.601C218.976 182.059 218.687 182.517 218.395 182.973C218.199 183.276 218.003 183.579 217.805 183.88C217.608 184.181 217.408 184.482 217.205 184.783L217.103 184.935L216.764 185.431C216.703 185.523 216.639 185.617 216.573 185.71C216.43 185.919 216.286 186.126 216.14 186.333C216.123 186.362 216.103 186.39 216.08 186.419C215.939 186.622 215.798 186.822 215.655 187.022C215.605 187.095 215.553 187.169 215.498 187.243C215.354 187.445 215.209 187.646 215.063 187.847C214.887 188.089 214.71 188.331 214.532 188.572C214.176 189.053 213.816 189.532 213.451 190.008C213.303 190.201 213.154 190.395 213.003 190.587C212.954 190.652 212.904 190.718 212.851 190.783C212.733 190.935 212.615 191.086 212.497 191.237C212.403 191.355 212.307 191.479 212.209 191.599C212.111 191.72 212.02 191.835 211.924 191.953C211.829 192.071 211.744 192.179 211.652 192.291C211.506 192.469 211.361 192.647 211.215 192.824C211.024 193.055 210.832 193.286 210.639 193.517C210.445 193.753 210.25 193.979 210.049 194.209C209.66 194.665 209.267 195.117 208.87 195.565C208.682 195.777 208.493 195.989 208.302 196.199C208.282 196.223 208.26 196.248 208.237 196.272C208.075 196.451 207.914 196.626 207.75 196.806C207.679 196.885 207.606 196.966 207.53 197.042C207.373 197.216 207.213 197.389 207.049 197.56C207.043 197.568 207.037 197.575 207.03 197.582C206.828 197.796 206.625 198.011 206.422 198.225C206.005 198.661 205.585 199.094 205.16 199.523C204.957 199.727 204.754 199.931 204.55 200.133L204.505 200.177C204.343 200.338 204.18 200.498 204.018 200.656C203.932 200.743 203.845 200.826 203.759 200.909C203.616 201.047 203.473 201.186 203.329 201.323C203.218 201.432 203.107 201.537 202.996 201.64C202.885 201.744 202.774 201.852 202.663 201.956C202.552 202.059 202.434 202.173 202.319 202.278C202.178 202.409 202.038 202.54 201.897 202.668C201.437 203.093 200.972 203.513 200.501 203.928C200.375 204.04 200.248 204.153 200.12 204.262C199.993 204.372 199.878 204.476 199.757 204.58C199.556 204.754 199.355 204.928 199.153 205.1C198.951 205.273 198.748 205.445 198.544 205.616L198.368 205.763C198.19 205.912 198.011 206.06 197.83 206.208C197.604 206.394 197.377 206.579 197.149 206.763C197.031 206.863 196.903 206.962 196.778 207.061L196.241 207.488L195.587 207.997C195.39 208.149 195.193 208.3 194.997 208.45L194.721 208.66C194.515 208.817 194.308 208.972 194.1 209.124C193.914 209.263 193.727 209.4 193.539 209.537C193.421 209.623 193.31 209.705 193.194 209.788C193.037 209.901 192.882 210.013 192.729 210.123L192.425 210.34L191.967 210.663L191.575 210.936C191.546 210.956 191.517 210.977 191.488 210.996C191.239 211.17 190.988 211.341 190.738 211.511L190.576 211.619L190.188 211.88L190.122 211.924C189.949 212.041 189.776 212.155 189.602 212.267C189.171 212.552 188.735 212.834 188.296 213.111L187.894 213.364L187.716 213.476C187.533 213.591 187.35 213.705 187.165 213.817C186.942 213.955 186.717 214.091 186.492 214.227L186.474 214.237L186.077 214.473C185.624 214.743 185.167 215.01 184.708 215.275C184.441 215.428 184.174 215.58 183.905 215.731C183.683 215.856 183.46 215.98 183.237 216.102L183.14 216.156L182.786 216.35C182.298 216.616 181.807 216.878 181.312 217.135C181.108 217.242 180.902 217.349 180.696 217.454C180.61 217.499 180.524 217.544 180.437 217.586C180.187 217.715 179.934 217.842 179.682 217.968L179.015 218.296L178.674 218.462C178.674 218.462 178.674 218.462 178.668 218.462C178.451 218.568 178.233 218.672 178.013 218.775C177.384 219.077 176.748 219.371 176.105 219.657C175.869 219.762 175.641 219.865 175.409 219.967L175.064 220.117C174.888 220.196 174.711 220.272 174.534 220.347L174.25 220.465C173.998 220.572 173.743 220.68 173.488 220.785C173.19 220.909 172.89 221.032 172.589 221.153H172.574C172.346 221.245 172.118 221.336 171.889 221.426L171.653 221.52C171.351 221.638 171.047 221.756 170.742 221.874C170.406 222.003 170.07 222.128 169.731 222.253C169.464 222.352 169.195 222.449 168.924 222.545C168.893 222.557 168.863 222.569 168.832 222.578C168.63 222.652 168.428 222.723 168.226 222.793C168.178 222.811 168.132 222.827 168.085 222.843L167.721 222.969C167.474 223.055 167.226 223.139 166.978 223.223C166.731 223.306 166.488 223.387 166.241 223.467C166.123 223.506 166.011 223.542 165.895 223.585L165.859 223.597C165.592 223.683 165.324 223.769 165.056 223.853C164.734 223.954 164.41 224.054 164.085 224.154L163.585 224.325L163.014 224.493C162.823 224.55 162.631 224.605 162.439 224.66C162.138 224.746 161.836 224.832 161.533 224.916L161.122 225.028C160.116 225.302 159.099 225.564 158.07 225.813L157.598 225.925C156.824 226.109 156.043 226.285 155.256 226.452C155.095 226.487 154.934 226.522 154.772 226.555L154.167 226.68C153.56 226.804 152.95 226.922 152.337 227.034L151.756 227.141L151.048 227.267L150.534 227.356C149.873 227.468 149.207 227.575 148.536 227.677C148.356 227.705 148.173 227.732 147.991 227.758L147.474 227.834L146.727 227.938C146.523 227.966 146.319 227.993 146.115 228.019C144.966 228.169 143.807 228.303 142.638 228.423C142.472 228.44 142.307 228.456 142.142 228.472C141.09 228.574 140.028 228.664 138.956 228.741L138.411 228.779L137.629 228.83C137.407 228.844 137.185 228.857 136.962 228.869L136.484 228.895L136.1 228.915L135.621 228.937C135.484 228.937 135.346 228.95 135.206 228.955L134.754 228.974C134.367 228.989 133.98 229.003 133.592 229.014C133.204 229.025 132.814 229.035 132.421 229.044L131.957 229.054C131.591 229.061 131.223 229.066 130.854 229.069C130.7 229.069 130.548 229.069 130.395 229.069C121.768 229.127 112.604 228.377 102.895 226.709C82.3442 223.191 65.8582 217.52 52.8283 210.404C12.9359 188.619 5.43276 153.295 12.8062 124.755C149.406 168.958 214.499 50.8086 214.499 50.8086C233.648 73.8704 240.635 108.12 234.836 140.453Z" fill="#3981F6" fill-opacity="0.2"/>
<path d="M74.126 27.5486C74.126 27.5486 79.851 25.4247 81.5454 32.7639C82.6793 37.6736 82.9708 39.9155 84.0598 40.9597C84.0598 40.9597 84.7064 41.7408 84.7926 42.6211C84.8822 43.5414 82.4327 42.9538 82.1814 43.5579C81.93 44.1621 81.4734 50.4015 76.8953 50.9573L77.2976 62.792L62.296 61.4823C62.296 61.4823 67.6824 54.7059 62.296 45.0812C56.9096 35.4565 74.126 27.5486 74.126 27.5486Z" fill="#F6A276"/>
<path d="M170.811 72.0059C170.811 72.0059 182.877 76.2536 181.784 85.824C180.692 95.3945 163.377 83.4972 164.425 77.8524C165.473 72.2076 170.811 72.0059 170.811 72.0059Z" fill="#3F1809"/>
<path d="M159.718 78.4849L172.745 78.781V81.6494C172.745 81.6494 161.955 84.0848 160.278 82.2453C158.6 80.4058 159.718 78.4849 159.718 78.4849Z" fill="#B7908B"/>
<path d="M177.715 67.9728C176.506 70.1404 172.02 71.148 172.02 71.148V71.1693L171.895 84.0518C163.528 89.3933 160.427 84.6052 159.978 84.3031C159.528 84.0011 159.978 74.525 159.978 74.525C158.414 74.5757 156.147 74.2229 155.441 72.8625C154.764 71.5575 153.252 66.1251 153.976 62.5711C154.006 62.4189 154.042 62.2714 154.081 62.1275C154.993 58.7647 156.639 55.1269 156.794 54.7942L156.804 54.7729C157.093 54.9039 175.659 63.2932 176.959 63.8938C178.26 64.4944 178.924 65.8065 177.715 67.9728Z" fill="#F8A478"/>
<path d="M171.934 79.9539C171.934 79.9539 169.318 82.8482 166.639 82.9355C163.959 83.0229 160.68 81.8359 160.68 81.8359C160.68 81.8359 159.087 85.4405 162.587 85.7662C166.086 86.0919 169.384 84.4506 170.02 83.3851C170.656 82.3196 171.921 81.5645 171.921 81.5645L171.934 79.9539Z" fill="#DC6350"/>
<path d="M159.946 75.1635C159.946 75.1635 161.201 75.1635 163.99 74.9275C166.778 74.6915 171.665 74.6915 171.977 75.6012L172.02 71.147L170.811 71.4313L159.975 74.5239L159.946 75.1635Z" fill="#DC6350"/>
<path d="M176.959 63.8914C175.661 63.2908 157.093 54.9015 156.804 54.7705L156.794 54.7917L155.653 57.5646C155.653 57.5646 160.143 57.4324 162.98 58.6938C164.078 59.1835 166.328 60.1888 167.877 60.905C168.446 61.1615 168.928 61.5785 169.263 62.1048C169.599 62.631 169.773 63.2438 169.765 63.8678C169.763 64.0266 169.744 64.1848 169.709 64.3398C169.461 65.3875 164.357 64.6666 161.921 64.5757C161.921 64.5757 167.413 65.9917 170.006 66.4023C169.562 69.0654 170.821 71.4252 170.821 71.4252L172.031 71.1609V71.1397C172.031 71.1397 176.515 70.132 177.725 67.9645C178.936 65.797 178.27 64.4955 176.959 63.8914Z" fill="#DC6350"/>
<path d="M176.959 63.8915C174.708 63.4384 173.024 66.3316 173.024 66.3316C172.286 66.5345 171.962 64.3918 171.815 63.1056C171.732 62.4048 169.523 60.8414 169.522 60.8414C168.267 60.3411 166.372 59.2638 164.053 58.3269C158.635 56.1381 155.856 56.9783 155.856 56.9783L154.322 61.252C153.643 62.2891 153.012 62.5853 153.012 62.5853C149.686 64.0236 148.268 69.3215 148.225 69.4855C148.255 69.318 149.273 63.9174 151.902 62.0319C154.574 60.1157 155.151 56.7741 155.151 56.7741L154.456 56.6054C154.456 56.6054 153.566 52.1523 160.924 48.9276C168.282 45.7028 174.086 50.8886 176.254 54.7682C176.685 55.5538 176.995 56.3999 177.174 57.278C177.881 60.5853 176.959 63.8915 176.959 63.8915Z" fill="#3F1809"/>
<path d="M170.811 71.4335C170.811 71.4335 163.889 74.2901 159.975 74.5249C159.255 74.5496 158.533 74.4862 157.828 74.3361C156.799 74.1084 155.717 73.6754 155.305 72.8789C154.628 71.5739 153.251 66.125 153.974 62.571C153.974 62.571 156.098 63.3368 157.842 63.9079C159.35 64.4011 167.436 65.2188 169.626 65.4347L170.174 65.4878C170.174 65.4878 170.407 70.0896 170.811 71.4335Z" fill="#F8FEFF"/>
<path d="M159.691 80.0847C159.691 80.0847 160.894 83.9254 165.151 83.9254C169.408 83.9254 172.833 80.7868 172.833 80.7868C172.833 80.7868 174.767 92.8221 174.504 95.9111C174.241 99.0002 181.221 152.323 176.352 154.109C171.482 155.895 146.336 152.485 146.166 145.992C145.996 139.499 154.381 83.9655 155.735 82.6475C157.088 81.3295 159.691 80.0847 159.691 80.0847Z" fill="#494867"/>
<path d="M172.831 80.7871C172.831 80.7871 172.823 81.0856 171.26 81.9517C171.26 81.9517 168.295 95.7439 166.931 109.748L158.175 99.6908C159.298 89.8902 160.209 81.1658 160.209 81.1658L159.689 80.0862C159.689 80.0862 151.242 82.4319 150.537 85.5611C149.833 88.6902 144.694 148.509 147.128 150.457C149.563 152.405 175.375 150.863 175.456 147.536C175.538 144.208 172.831 80.7871 172.831 80.7871ZM155.348 121.885C155.965 117.957 156.722 112.014 157.454 105.874C158.22 106.805 159.183 108.246 159.916 109.251C161.286 111.122 163.958 114.12 165.148 114.914C166.339 115.708 166.366 117.476 166.366 117.476C166.211 120.905 166.213 124.187 166.44 127.108C167.745 143.773 153.245 135.278 155.348 121.885Z" fill="#333254"/>
<path d="M157.849 79.9539C157.849 79.9539 144.942 81.0583 142.908 84.3845C140.874 87.7107 136.09 114.985 134.467 116.361C132.843 117.736 114.716 146.149 114.716 146.149H124.78C124.78 146.149 139.823 128.876 140.581 128.26L138.633 144.519H151.078C151.078 144.519 156.632 85.0405 157.849 79.9539Z" fill="white"/>
<path d="M156.544 80.0898C156.544 80.0898 149.618 92.6926 149.943 93.4502C150.267 94.2077 153.791 116.297 153.791 116.297L154.381 110.646L157.432 80.0037L156.544 80.0898Z" fill="#F2CFCD"/>
<path d="M159.718 78.4849C159.718 78.4849 157.938 78.4436 156.503 81.3391C155.068 84.2347 150.97 93.3379 150.97 93.3379L154 114.214C154 114.214 157.871 87.8288 159.689 80.0813C159.75 79.8229 159.662 78.7055 159.718 78.4849Z" fill="white"/>
<path d="M161.522 110.062C161.522 110.062 160.891 109.791 161.252 108.312C161.613 106.834 163.632 101.206 165.959 100.864C165.959 100.864 167.276 101.53 168.142 105.084C169.008 108.638 161.522 110.062 161.522 110.062Z" fill="#E0A8A6"/>
<path d="M166.04 107.438C164.105 109.326 164.21 108.854 164.21 108.854C164.21 108.854 160.602 105.465 159.094 104.134C159.033 104.08 158.976 104.029 158.917 103.983C158.838 103.918 158.763 103.865 158.694 103.812C157.358 102.874 151.082 103.956 148.051 100.872C148.051 100.872 146.915 99.7625 147.917 98.166C147.917 98.166 147.051 97.4899 147.105 96.0822C147.105 96.0822 147.266 95.3519 147.917 95.2716C147.917 95.2716 147.186 94.4056 147.699 93.3767C148.213 92.3478 149.296 92.5389 149.296 92.5389C149.296 92.5389 148.735 91.6886 149.302 90.8798C149.607 90.4457 150.237 90.5576 150.626 90.9186C151.516 91.7464 153.172 93.146 154.626 93.5914C156.735 94.238 158.669 93.4179 158.934 92.9908C159.015 92.2491 159.812 91.8191 160.407 92.2693C160.785 92.5551 161.129 92.8857 161.253 93.2067C161.578 94.0457 160.49 96.4799 161.142 97.8604C161.696 99.0309 165.237 101.315 166.294 101.98C166.48 102.098 166.589 102.162 166.589 102.162C166.589 102.162 167.974 105.544 166.04 107.438Z" fill="#F8A478"/>
<path d="M166.04 107.438C164.493 109.256 166.011 108.5 164.21 108.854C164.21 108.854 161.806 106.88 160.515 105.417C160.912 105.737 162.254 106.589 163.714 105.922C165.968 104.894 166.292 101.98 166.292 101.98C166.478 102.098 166.587 102.163 166.587 102.163C166.587 102.163 167.795 105.376 166.04 107.438Z" fill="#DC6350"/>
<path d="M172.732 80.0847C172.732 80.0847 171.723 82.7384 170.342 91.7188C168.962 100.699 169.125 102.892 169.125 102.892L165.959 100.863C165.959 100.863 167.257 101.512 166.176 104.757C165.095 108.002 162.334 110.061 161.522 110.061L168.882 115.148C168.882 115.148 168.705 148.557 171.147 154.579C173.59 160.6 192.663 151.104 192.663 151.104C192.663 151.104 184.562 130.927 186.174 117.476C187.785 104.024 192.957 88.579 185.868 84.3584C180.939 81.4216 172.732 80.0847 172.732 80.0847Z" fill="white"/>
<path d="M172.831 105.084L179.289 108.86C179.289 108.86 180.479 99.5879 180.912 97.6044C180.912 97.6044 180.565 95.7484 180.271 97.7224C179.897 100.232 179.487 107.882 178.825 107.801C177.684 107.661 173.59 104.978 173.67 104.636C173.788 104.155 174.701 101.969 174.909 101.425C175.538 99.7732 175.499 99.0534 174.707 96.6357C173.915 94.218 174.996 92.7042 176.511 91.477C178.026 90.2499 177.486 90.3231 176.872 87.4735C176.259 84.624 174.65 80.4671 174.65 80.4671L173.687 80.2712C173.687 80.2712 172.182 93.2222 172.218 94.5685C172.255 95.9148 172.831 105.084 172.831 105.084Z" fill="#F0D7D3"/>
<path d="M172.745 78.7844C172.745 78.7844 168.882 95.8297 169.131 102.892L172.837 105.084C172.837 105.084 173.685 101.946 174.725 99.3483C174.725 99.3483 173.11 93.7743 173.273 93.4486C173.436 93.1229 176.519 90.4716 176.519 90.4716C176.519 90.4716 174.857 79.6328 172.745 78.7844Z" fill="white"/>
<path d="M168.882 115.149C168.882 115.149 178.371 122.558 182.274 123.054L186.056 124.02L186.397 127.559C186.397 127.559 179.514 125.681 174.969 122.769C170.424 119.857 168.882 117.989 168.882 117.989V115.149Z" fill="#FBD4CD"/>
<path d="M179.289 108.854C179.289 108.854 182.766 110.742 183.559 112.362C183.559 112.362 183.938 111.956 182.315 110.333C180.693 108.709 179.351 108.376 179.351 108.376L179.289 108.854Z" fill="#F0D7D3"/>
<path d="M149.308 92.512C149.553 92.7161 149.795 92.9214 150.035 93.1314L150.757 93.7568L151.465 94.3939C151.701 94.6048 151.937 94.8191 152.173 95.037L152.142 95.0724C151.816 94.9878 151.504 94.855 151.217 94.6783C150.942 94.5137 150.683 94.3237 150.443 94.1108C150.202 93.8992 149.982 93.6662 149.783 93.4146C149.572 93.1521 149.4 92.8599 149.273 92.5474L149.308 92.512Z" fill="#EA7E4E"/>
<path d="M147.93 95.2402C148.166 95.4424 148.395 95.6469 148.619 95.8538L149.303 96.4721L149.976 97.1022C150.201 97.3106 150.424 97.523 150.643 97.7393L150.612 97.7735C150.296 97.6891 149.995 97.5566 149.72 97.3806C149.456 97.2177 149.21 97.0296 148.983 96.819C148.755 96.61 148.547 96.3796 148.363 96.1311C148.165 95.8712 148.008 95.5827 147.898 95.2756L147.93 95.2402Z" fill="#EA7E4E"/>
<path d="M147.931 98.1414C148.094 98.3058 148.256 98.471 148.418 98.6369C148.58 98.8029 148.744 98.9661 148.91 99.1266C149.073 99.2906 149.238 99.4523 149.408 99.6092C149.493 99.6859 149.579 99.7638 149.669 99.8357C149.754 99.9115 149.846 99.9802 149.943 100.041L149.92 100.082C149.782 100.093 149.642 100.078 149.51 100.036C149.387 99.9999 149.268 99.9509 149.156 99.89C148.943 99.7761 148.749 99.6318 148.579 99.4617C148.409 99.2941 148.264 99.1043 148.146 98.8977C148.015 98.675 147.93 98.4288 147.895 98.1732L147.931 98.1414Z" fill="#EA7E4E"/>
<path d="M143.963 105.084C143.641 110.239 140.628 127.984 140.582 128.262L140.041 128.99L126.73 146.89L123.374 141.498C123.374 141.498 136.795 129.832 138.526 123.057C140.257 116.282 141.015 95.6825 143.233 97.758C143.293 97.8872 143.345 98.02 143.388 98.1556C143.667 98.9899 144.208 101.163 143.963 105.084Z" fill="#FBD4CD"/>
<path d="M176.959 63.8916C174.708 63.4385 173.024 66.3317 173.024 66.3317C172.286 66.5346 171.829 64.1382 171.328 62.9441C171.039 62.2538 170.169 61.5506 169.522 60.8415C170.918 61.378 172.364 61.7764 173.837 62.0308C176.51 62.5028 177.16 57.3784 177.171 57.2852C177.881 60.5854 176.959 63.8916 176.959 63.8916Z" fill="#280C01"/>
<path d="M170.172 65.488L173.841 65.2544L173.516 65.6332L170.198 65.9081L170.172 65.488Z" fill="white"/>
<path d="M170.695 70.9403L173.575 70.6902L172.02 71.148L170.811 71.4324L170.695 70.9403Z" fill="white"/>
<path d="M170.811 71.4334C170.811 71.4334 163.889 74.29 159.975 74.5248C159.255 74.5495 158.533 74.4861 157.828 74.3361C163.492 74.5248 170.03 71.1502 170.03 71.1502C170.13 70.9225 169.625 65.437 169.625 65.437L170.172 65.4901C170.172 65.4901 170.407 70.0895 170.811 71.4334Z" fill="#97CCDB"/>
<path d="M169.903 66.1771C169.426 66.3088 168.937 66.3946 168.443 66.4332C168.198 66.4615 167.954 66.4674 167.71 66.4839C167.466 66.5004 167.223 66.4945 166.978 66.4992C166.734 66.504 166.491 66.4898 166.248 66.4792C166.005 66.4686 165.76 66.4532 165.516 66.4237C165.024 66.3814 164.536 66.2989 164.057 66.1771V66.1417H166.98L168.442 66.15C168.928 66.15 169.416 66.15 169.901 66.1382L169.903 66.1771Z" fill="#97CCDB"/>
<path d="M169.906 67.7229C169.416 67.9327 168.909 68.1016 168.391 68.2279C168.135 68.2987 167.875 68.3459 167.618 68.4049C167.361 68.4639 167.098 68.4969 166.837 68.5417C166.576 68.5866 166.313 68.6113 166.05 68.6373C165.787 68.6633 165.522 68.6833 165.256 68.6869C164.719 68.7175 164.18 68.6779 163.653 68.5689V68.5335C164.178 68.5236 164.702 68.4842 165.223 68.4155C165.744 68.3518 166.265 68.2774 166.784 68.196C167.824 68.0466 168.862 67.879 169.898 67.6934L169.906 67.7229Z" fill="#97CCDB"/>
<path d="M170.183 68.9957C169.726 69.4779 169.211 69.9008 168.649 70.2547C168.372 70.4376 168.08 70.5969 167.788 70.755C167.643 70.8364 167.489 70.9001 167.339 70.9721C167.19 71.0441 167.037 71.1125 166.883 71.1739C166.728 71.2352 166.572 71.2919 166.411 71.3497C166.249 71.4075 166.095 71.4582 165.939 71.5054C165.783 71.5526 165.616 71.5892 165.455 71.6317C165.294 71.6764 165.131 71.711 164.965 71.7355C164.8 71.7615 164.636 71.791 164.471 71.8134C164.306 71.8358 164.138 71.8394 163.972 71.85L163.723 71.8618C163.639 71.8618 163.557 71.8618 163.473 71.8547C163.306 71.8476 163.14 71.837 162.976 71.8217V71.7863L163.462 71.7344L163.704 71.7084L163.94 71.6659C164.101 71.6364 164.261 71.6116 164.42 71.5798L164.892 71.4618C165.523 71.3007 166.142 71.0936 166.742 70.8423C167.346 70.5982 167.935 70.3193 168.506 70.0069C169.079 69.6951 169.631 69.3467 170.158 68.9639L170.183 68.9957Z" fill="#97CCDB"/>
<path d="M169.12 102.696L174.076 105.597V105.811L169.125 102.892L169.12 102.696Z" fill="#F0D7D3"/>
<path d="M156.603 61.3935C156.576 61.6885 156.485 62.1015 156.155 62.0862C155.649 62.0708 156.062 60.6608 156.184 60.5794C156.478 60.3859 156.63 60.7705 156.613 61.1009C156.616 61.1986 156.612 61.2963 156.603 61.3935Z" fill="#0A031C"/>
<path d="M156.393 61.1456C156.466 61.1456 156.524 61.0764 156.524 60.991C156.524 60.9056 156.466 60.8364 156.393 60.8364C156.321 60.8364 156.262 60.9056 156.262 60.991C156.262 61.0764 156.321 61.1456 156.393 61.1456Z" fill="white"/>
<path d="M162.808 63.2412C162.734 63.5267 162.573 63.9149 162.256 63.8536C161.76 63.758 162.39 62.4306 162.523 62.3704C162.844 62.2265 162.934 62.6288 162.863 62.9521C162.851 63.0495 162.832 63.146 162.808 63.2412Z" fill="#0A031C"/>
<path d="M162.791 62.8299C162.804 62.7456 162.757 62.668 162.686 62.6566C162.615 62.6452 162.546 62.7042 162.532 62.7885C162.519 62.8728 162.566 62.9504 162.637 62.9619C162.709 62.9733 162.777 62.9142 162.791 62.8299Z" fill="white"/>
<path d="M155.207 59.0418C155.389 58.7345 155.667 58.4966 155.999 58.3657C156.336 58.222 156.706 58.1711 157.069 58.2182C157.248 58.2446 157.423 58.2921 157.591 58.3598C157.758 58.4243 157.916 58.5087 158.063 58.6111C158.204 58.7113 158.335 58.8239 158.456 58.9474C158.565 59.0798 158.662 59.2211 158.747 59.3698L158.724 59.3958C158.595 59.3002 158.469 59.2011 158.339 59.1067L158.134 58.9804C158.067 58.9363 157.998 58.8969 157.926 58.8625L157.709 58.761C157.673 58.743 157.636 58.7284 157.598 58.7173L157.48 58.6807C157.329 58.6306 157.174 58.5939 157.016 58.571C156.699 58.5299 156.378 58.5529 156.07 58.6386C155.762 58.7243 155.475 58.8711 155.225 59.0701L155.207 59.0418Z" fill="#1C1D31"/>
<path d="M161.55 60.5121C161.871 60.3264 162.232 60.222 162.603 60.2077C162.791 60.1964 162.979 60.2051 163.165 60.2337C163.354 60.267 163.539 60.3192 163.718 60.3894C163.898 60.4658 164.068 60.5641 164.223 60.682C164.3 60.7433 164.373 60.8091 164.442 60.8791C164.475 60.9145 164.509 60.9487 164.541 60.9853L164.627 61.1033C164.852 61.4089 164.976 61.7773 164.981 62.1569L164.948 62.1687C164.886 62.0086 164.812 61.8539 164.725 61.7062C164.639 61.5576 164.537 61.4188 164.422 61.292C164.189 61.0403 163.903 60.844 163.585 60.7174C163.268 60.5862 162.931 60.5096 162.588 60.4909C162.244 60.4676 161.899 60.487 161.56 60.5487L161.55 60.5121Z" fill="#1C1D31"/>
<path d="M174.096 66.7919C174.252 66.4963 174.451 66.2252 174.686 65.9872C174.92 65.7428 175.187 65.5333 175.481 65.3654C175.778 65.1955 176.105 65.0853 176.444 65.0409C176.78 64.9995 177.121 65.04 177.438 65.1589C177.115 65.1179 176.787 65.1298 176.467 65.1943C176.311 65.2272 176.158 65.2734 176.01 65.3323C175.86 65.3895 175.715 65.4581 175.577 65.5376C175.298 65.6968 175.036 65.8838 174.794 66.0957C174.546 66.3118 174.313 66.5444 174.096 66.7919Z" fill="#AF2415"/>
<path d="M177.042 66.281C176.933 66.1736 176.828 66.0745 176.72 65.9813C176.614 65.8886 176.502 65.8038 176.384 65.7276C176.267 65.6514 176.144 65.5874 176.014 65.5365C175.878 65.4876 175.739 65.4482 175.598 65.4185C175.746 65.3738 175.903 65.3661 176.056 65.3961C176.21 65.4234 176.358 65.482 176.489 65.5683C176.619 65.6528 176.734 65.7585 176.83 65.881C176.926 65.9991 176.998 66.135 177.042 66.281Z" fill="#AF2415"/>
<path d="M80.3867 29.7948C80.3867 29.7948 76.2971 29.3618 73.916 33.3582C71.5349 37.3547 70.3007 40.3352 70.3007 40.3352C70.3007 40.3352 66.9355 29.9765 71.7508 28.786C76.5661 27.5954 80.3867 29.7948 80.3867 29.7948Z" fill="#DC6350"/>
<path d="M64.7892 40.6636C64.7892 40.6636 65.2164 41.9214 65.9208 42.7768C65.9208 42.7768 66.2948 49.1296 64.4211 50.7732L63.1526 47.4848L64.7892 40.6636Z" fill="#DC6350"/>
<path d="M183.798 123.558C183.777 124.779 184.196 125.967 184.978 126.905C185.745 127.794 186.788 128.295 187.877 128.295H238.251C240.507 128.295 242.335 126.192 242.335 123.6V90.2535C242.335 87.6577 240.507 85.5586 238.251 85.5586H188.133C185.892 85.5586 184.07 87.6365 184.05 90.2134L183.798 123.558Z" fill="#1DA3C0"/>
<path d="M216.829 92.5875C226.027 92.5875 234.702 93.6895 242.339 95.6376V90.2535C242.339 87.6577 240.512 85.5586 238.256 85.5586H188.133C185.892 85.5586 184.07 87.6365 184.05 90.2134L183.992 97.883C193.188 94.5532 204.542 92.5875 216.829 92.5875Z" fill="#1DA3C0"/>
<path d="M186.178 123.558C186.155 124.772 186.557 125.955 187.313 126.905C188.048 127.794 189.05 128.295 190.094 128.295H238.422C240.585 128.295 242.339 126.193 242.339 123.6V90.2548C242.339 87.6589 240.585 85.5598 238.422 85.5598H190.336C188.185 85.5598 186.443 87.6365 186.419 90.2135L186.178 123.558Z" fill="#0489AC"/>
<path d="M242.339 90.2548C242.339 87.6589 240.585 85.5598 238.422 85.5598H229.796L194.49 128.298H222.625L242.339 93.5633V90.2548Z" fill="#1DA3C0"/>
<path d="M223.724 140.439L219.584 124.025H211.24L211.898 137.328L204.451 139.795L204.56 140.439H223.724Z" fill="#0489AC"/>
<path d="M224.716 140.439L220.136 124.025L211.385 124.012L213.253 137.749L205.49 140.077L205.552 140.439H224.716Z" fill="#1DA3C0"/>
<path d="M211.24 124.025L206.512 128.264H211.541L211.24 124.025Z" fill="#0489AC"/>
<path d="M195.191 120.519C195.201 120.416 195.18 120.312 195.13 120.221C195.08 120.131 195.004 120.057 194.912 120.011C194.819 119.964 194.715 119.947 194.612 119.96C194.51 119.974 194.414 120.019 194.337 120.088C194.261 120.158 194.207 120.249 194.183 120.349C194.159 120.45 194.166 120.555 194.203 120.652C194.24 120.748 194.306 120.831 194.391 120.89C194.476 120.949 194.577 120.98 194.681 120.98C194.81 120.986 194.935 120.941 195.031 120.855C195.126 120.768 195.184 120.647 195.191 120.519Z" fill="black"/>
<path d="M197.523 120.519C197.534 120.416 197.512 120.312 197.463 120.221C197.413 120.131 197.337 120.057 197.244 120.011C197.152 119.964 197.048 119.947 196.945 119.96C196.843 119.974 196.747 120.019 196.67 120.088C196.593 120.158 196.54 120.249 196.516 120.349C196.492 120.45 196.499 120.555 196.536 120.652C196.573 120.748 196.639 120.831 196.724 120.89C196.809 120.949 196.91 120.98 197.014 120.98C197.077 120.983 197.141 120.974 197.201 120.952C197.261 120.931 197.317 120.898 197.364 120.855C197.411 120.812 197.45 120.76 197.477 120.703C197.504 120.645 197.52 120.582 197.523 120.519Z" fill="black"/>
<path d="M199.659 120.519C199.669 120.416 199.648 120.312 199.598 120.221C199.549 120.131 199.472 120.057 199.38 120.011C199.288 119.964 199.183 119.947 199.081 119.96C198.978 119.974 198.882 120.019 198.806 120.088C198.729 120.158 198.675 120.249 198.651 120.349C198.627 120.45 198.634 120.555 198.672 120.652C198.709 120.748 198.774 120.831 198.86 120.89C198.945 120.949 199.046 120.98 199.149 120.98C199.213 120.983 199.277 120.974 199.337 120.952C199.397 120.931 199.452 120.898 199.5 120.855C199.547 120.812 199.585 120.76 199.613 120.703C199.64 120.645 199.656 120.582 199.659 120.519Z" fill="black"/>
<path d="M201.68 120.519C201.69 120.416 201.669 120.312 201.619 120.221C201.57 120.131 201.494 120.057 201.401 120.011C201.309 119.964 201.205 119.947 201.102 119.96C201 119.974 200.904 120.019 200.827 120.088C200.75 120.158 200.696 120.249 200.672 120.349C200.648 120.45 200.656 120.555 200.693 120.652C200.73 120.748 200.795 120.831 200.881 120.89C200.966 120.949 201.067 120.98 201.17 120.98C201.234 120.983 201.298 120.974 201.358 120.952C201.418 120.931 201.474 120.898 201.521 120.855C201.568 120.812 201.607 120.76 201.634 120.703C201.661 120.645 201.677 120.582 201.68 120.519Z" fill="black"/>
<path d="M44.4354 115.026C44.4354 115.026 40.9074 114.337 39.285 116.771C37.6626 119.206 33.1694 146.371 35.226 148.048C37.2826 149.725 38.7517 150.477 43.2979 151.305C47.5044 152.07 53.7863 120.452 52.5415 119.586C51.2967 118.72 44.4354 115.026 44.4354 115.026Z" fill="#823C29"/>
<path d="M47.9421 117.857C47.9421 117.857 47.5634 119.543 46.2112 126.41C44.859 133.277 43.2979 151.307 43.2979 151.307C43.2979 151.307 51.0265 151.352 52.5415 148.646C54.0565 145.94 53.6294 117.233 52.5415 116.882C51.4536 116.532 47.9421 117.857 47.9421 117.857Z" fill="#3F1809"/>
<path d="M234.71 141.139C234.354 143.065 233.952 144.983 233.504 146.894C233.504 146.898 233.504 146.902 233.504 146.906C233.491 146.958 233.479 147.01 233.466 147.061C233.4 147.346 233.332 147.628 233.263 147.91C233.195 148.192 233.122 148.489 233.048 148.778C232.973 149.067 232.902 149.355 232.827 149.644C232.789 149.792 232.751 149.939 232.709 150.086C232.651 150.307 232.591 150.53 232.531 150.752C232.504 150.858 232.474 150.965 232.445 151.071C232.366 151.364 232.285 151.655 232.209 151.948C232.132 152.223 232.054 152.499 231.973 152.774C231.943 152.877 231.914 152.981 231.883 153.084C231.883 153.087 231.883 153.089 231.883 153.092C231.8 153.38 231.716 153.667 231.629 153.953C231.53 154.288 231.429 154.621 231.326 154.953C231.124 155.61 230.916 156.265 230.703 156.917L230.692 156.952C230.589 157.266 230.484 157.581 230.377 157.896L230.271 158.209L230.045 158.873C229.927 159.217 229.809 159.562 229.681 159.905C229.581 160.185 229.481 160.464 229.378 160.744C229.275 161.024 229.168 161.317 229.061 161.603C229 161.763 228.943 161.924 228.879 162.084C228.803 162.289 228.724 162.493 228.643 162.697C228.585 162.849 228.525 163.002 228.465 163.155C228.435 163.235 228.404 163.313 228.373 163.391C228.253 163.693 228.133 163.996 228.012 164.299C228 164.33 227.988 164.359 227.975 164.39L227.763 164.913C227.688 165.097 227.612 165.281 227.535 165.465L227.305 166.015C226.849 167.105 226.373 168.187 225.878 169.262C225.872 169.28 225.864 169.298 225.855 169.315C225.733 169.579 225.61 169.843 225.488 170.106C225.365 170.368 225.238 170.638 225.105 170.915C224.977 171.185 224.847 171.453 224.716 171.722C224.585 171.991 224.453 172.258 224.321 172.526C223.923 173.328 223.515 174.125 223.096 174.916C222.957 175.18 222.816 175.444 222.675 175.707C222.394 176.233 222.107 176.756 221.813 177.277C221.377 178.058 220.93 178.835 220.473 179.606C220.17 180.12 219.861 180.631 219.547 181.14C218.792 182.371 218.01 183.586 217.202 184.785L217.101 184.937L216.762 185.433C216.701 185.526 216.637 185.619 216.571 185.713C216.428 185.921 216.283 186.129 216.138 186.336C216.12 186.364 216.1 186.392 216.078 186.422C215.94 186.623 215.797 186.824 215.653 187.025C215.602 187.098 215.55 187.171 215.496 187.245C215.352 187.447 215.207 187.649 215.061 187.849C214.884 188.092 214.707 188.333 214.53 188.574C214.174 189.055 213.814 189.534 213.449 190.01C213.3 190.203 213.152 190.397 213 190.589C212.952 190.654 212.901 190.72 212.848 190.785C212.73 190.937 212.612 191.088 212.494 191.239C212.401 191.357 212.304 191.481 212.206 191.602C212.108 191.722 212.018 191.838 211.922 191.956C211.826 192.074 211.742 192.181 211.649 192.293C211.504 192.472 211.358 192.649 211.213 192.826C211.022 193.058 210.83 193.288 210.637 193.519C210.442 193.755 210.248 193.981 210.047 194.212C209.658 194.667 209.264 195.119 208.867 195.567C208.68 195.78 208.491 195.991 208.3 196.201C208.28 196.226 208.257 196.25 208.235 196.274C208.073 196.453 207.911 196.628 207.747 196.809C207.677 196.888 207.603 196.968 207.528 197.045C207.371 197.218 207.21 197.391 207.047 197.563C207.041 197.57 207.035 197.577 207.028 197.584C206.825 197.799 206.623 198.013 206.42 198.227C206.003 198.663 205.582 199.096 205.157 199.525C204.955 199.729 204.752 199.933 204.547 200.135L204.503 200.18C204.341 200.34 204.178 200.501 204.015 200.659C203.929 200.745 203.843 200.829 203.757 200.911C203.614 201.049 203.47 201.189 203.326 201.325C203.215 201.434 203.104 201.539 202.993 201.643C202.883 201.747 202.772 201.854 202.661 201.958C202.55 202.062 202.432 202.175 202.316 202.28C202.176 202.411 202.035 202.542 201.895 202.67C201.435 203.095 200.969 203.515 200.499 203.931C200.373 204.043 200.245 204.155 200.118 204.265C199.991 204.374 199.876 204.478 199.755 204.582C199.554 204.757 199.353 204.931 199.15 205.102C198.949 205.276 198.746 205.447 198.542 205.618L198.366 205.765C198.188 205.914 198.009 206.062 197.828 206.21C197.601 206.397 197.374 206.582 197.147 206.765C197.029 206.865 196.9 206.964 196.775 207.063L196.238 207.491L195.585 207.999C195.387 208.152 195.191 208.303 194.995 208.452L194.719 208.662C194.513 208.82 194.306 208.974 194.098 209.126C193.912 209.265 193.724 209.403 193.536 209.539C193.418 209.625 193.307 209.708 193.192 209.79C193.034 209.903 192.879 210.015 192.727 210.125L192.422 210.342L191.965 210.666L191.573 210.938C191.543 210.958 191.515 210.98 191.486 210.998C191.236 211.172 190.986 211.344 190.735 211.513L190.574 211.621L190.185 211.882L190.119 211.926C189.947 212.043 189.774 212.158 189.6 212.269C189.168 212.555 188.733 212.836 188.294 213.113L187.892 213.367L187.713 213.479C187.531 213.594 187.347 213.707 187.162 213.82C186.939 213.958 186.715 214.093 186.49 214.229L186.472 214.24L186.074 214.476C185.621 214.746 185.165 215.013 184.706 215.277C184.439 215.43 184.171 215.582 183.902 215.734C183.68 215.859 183.458 215.982 183.234 216.104L183.138 216.158L182.784 216.352C182.296 216.618 181.805 216.88 181.31 217.138C181.105 217.245 180.9 217.351 180.694 217.456C180.608 217.501 180.522 217.546 180.434 217.588C180.184 217.717 179.932 217.844 179.679 217.971L179.013 218.299L178.672 218.464C178.672 218.464 178.672 218.464 178.666 218.464C178.449 218.57 178.23 218.675 178.011 218.778C177.381 219.079 176.745 219.373 176.103 219.659C175.867 219.764 175.639 219.867 175.407 219.969L175.062 220.119C174.885 220.198 174.708 220.275 174.531 220.349L174.248 220.467C173.995 220.575 173.741 220.682 173.486 220.787C173.188 220.911 172.888 221.034 172.587 221.155H172.571C172.344 221.247 172.116 221.338 171.887 221.428L171.651 221.522C171.349 221.64 171.044 221.758 170.74 221.876C170.404 222.005 170.067 222.13 169.729 222.255C169.461 222.354 169.192 222.452 168.922 222.548C168.891 222.559 168.86 222.571 168.83 222.581C168.628 222.654 168.425 222.725 168.223 222.795C168.176 222.813 168.13 222.83 168.083 222.845L167.718 222.971C167.472 223.057 167.224 223.141 166.976 223.225C166.728 223.309 166.485 223.389 166.239 223.469C166.121 223.508 166.009 223.545 165.893 223.587L165.856 223.599C165.59 223.685 165.322 223.771 165.054 223.855C164.732 223.956 164.407 224.057 164.083 224.156L163.585 224.325L163.014 224.493C162.823 224.55 162.631 224.605 162.439 224.66C162.138 224.746 161.836 224.832 161.533 224.916L161.122 225.028C160.116 225.302 159.099 225.564 158.07 225.813L157.598 225.925C156.824 226.109 156.043 226.284 155.256 226.452C155.095 226.487 154.934 226.522 154.772 226.555L154.167 226.68C153.56 226.804 152.95 226.922 152.337 227.034L151.756 227.141L151.048 227.267L150.534 227.356C149.873 227.468 149.207 227.575 148.536 227.677C148.356 227.705 148.173 227.732 147.991 227.758L147.474 227.834L146.727 227.938C146.523 227.966 146.319 227.993 146.115 228.019C144.966 228.168 143.807 228.303 142.638 228.423C142.472 228.44 142.307 228.456 142.142 228.472C141.09 228.574 140.028 228.664 138.956 228.741L138.411 228.779L137.629 228.83C137.407 228.844 137.185 228.857 136.962 228.869L136.484 228.894L136.1 228.915L135.621 228.937C135.484 228.937 135.346 228.95 135.206 228.955L134.754 228.974C134.367 228.989 133.98 229.003 133.592 229.014C133.204 229.025 132.814 229.035 132.421 229.044L131.957 229.054C131.591 229.061 131.223 229.066 130.854 229.069C130.7 229.069 130.548 229.069 130.395 229.069C121.768 229.127 112.604 228.376 102.895 226.709C82.3442 223.191 65.8582 217.52 52.8282 210.404V141.139H234.71Z" fill="#37D6BA"/>
<path d="M234.711 141.139C234.355 143.065 233.953 144.983 233.505 146.894C233.505 146.898 233.505 146.902 233.505 146.906C233.492 146.958 233.481 147.01 233.468 147.061C233.401 147.346 233.333 147.628 233.265 147.91C233.196 148.192 233.123 148.489 233.049 148.778C232.974 149.067 232.904 149.355 232.828 149.644C232.79 149.792 232.753 149.939 232.71 150.086C232.652 150.307 232.592 150.53 232.532 150.752C232.505 150.858 232.475 150.965 232.446 151.071C232.367 151.364 232.286 151.655 232.21 151.948C232.133 152.223 232.055 152.499 231.974 152.774C231.944 152.877 231.915 152.981 231.884 153.084C231.885 153.087 231.885 153.089 231.884 153.092C231.801 153.38 231.717 153.667 231.63 153.953C231.531 154.288 231.43 154.621 231.327 154.953C231.125 155.61 230.917 156.265 230.704 156.917L230.694 156.952C230.59 157.266 230.485 157.581 230.379 157.896L230.272 158.209L230.046 158.873C229.928 159.217 229.81 159.562 229.682 159.905C229.582 160.185 229.482 160.464 229.379 160.744C229.276 161.024 229.169 161.317 229.062 161.603C229.002 161.763 228.944 161.924 228.88 162.084C228.804 162.289 228.725 162.493 228.644 162.697C228.586 162.849 228.526 163.002 228.466 163.155C228.436 163.235 228.406 163.313 228.374 163.391C228.254 163.693 228.134 163.996 228.013 164.299C228.001 164.33 227.989 164.359 227.976 164.39L227.764 164.913C227.689 165.097 227.613 165.281 227.536 165.465L227.306 166.015L52.8247 147.903V141.139H234.711Z" fill="#0FAF97"/>
<path d="M234.836 140.452C234.795 140.681 234.754 140.909 234.711 141.138C234.355 143.064 233.953 144.982 233.505 146.892H49.3757V140.451L234.836 140.452Z" fill="#5EEFD3"/>
<path d="M64.1945 57.3721C64.1945 57.3721 71.1078 59.5514 74.1437 59.4145C77.1797 59.2777 77.1714 59.0794 77.1714 59.0794L77.2977 62.788L63.1526 60.0741L64.1945 57.3721Z" fill="#DC6350"/>
<path d="M80.3867 29.7947C80.3867 29.7947 76.9389 28.4213 74.3218 31.4915C71.7048 34.5616 70.3006 40.335 70.3006 40.335C70.3006 40.335 69.2942 36.3587 66.2228 36.7103C64.4529 36.9132 64.2724 38.4979 64.6358 39.9598C65.1036 41.9136 65.1439 43.9454 64.7538 45.9161C64.6476 46.473 64.2157 49.8229 64.2157 49.8229C64.2157 49.8229 63.9089 51.7627 61.4924 47.4335C59.0759 43.1043 55.2294 37.2011 59.3072 30.1027C63.3851 23.0042 79.3271 22.8874 80.3867 29.7947Z" fill="#1C1D31"/>
<path d="M53.3793 234.323C53.3793 234.323 52.1616 246.639 52.892 248.669C53.6223 250.698 45.587 250.13 45.587 248.669C45.587 247.208 45.0997 226.591 45.587 226.022C46.0743 225.454 53.3793 234.323 53.3793 234.323Z" fill="#E38964"/>
<path d="M96.9612 233.819C96.9612 233.819 97.4037 246.189 98.3996 248.097C99.3954 250.005 91.3554 250.523 91.1595 249.075C90.9636 247.627 87.7224 227.261 88.1294 226.632C88.5365 226.004 96.9612 233.819 96.9612 233.819Z" fill="#E38964"/>
<path d="M100.213 181.382C99.0768 195.017 98.265 234.465 98.265 234.465H85.4415C85.4415 234.465 77.654 198.426 77.654 190.635C77.654 182.844 66.4529 160.441 66.4529 160.441C66.4529 160.441 63.693 189.821 61.096 197.777C58.499 205.733 53.9527 233.647 53.9527 233.647H44.046C43.81 233.203 43.6165 232.042 43.456 230.363C42.4967 220.356 42.7964 191.947 44.046 187.221C45.5067 181.703 45.5067 150.209 45.5067 141.931C45.5067 133.653 50.3763 116.606 50.3763 116.606L92.2639 113.522C92.2639 113.522 101.349 167.746 100.213 181.382Z" fill="#494867"/>
<path d="M86.0398 121.607C86.0398 121.607 92.8574 160.914 91.917 177.559C90.9766 194.204 91.7058 233.869 91.7058 233.869" stroke="#AEAFC3" stroke-width="1.25841" stroke-miterlimit="10"/>
<path d="M89.1076 121.607C89.1076 121.607 95.9253 160.914 94.9849 177.559C94.0444 194.204 95.3388 233.003 95.3388 233.003" stroke="#AEAFC3" stroke-width="1.25841" stroke-miterlimit="10"/>
<path d="M93.6917 122.395C93.6917 122.395 91.556 124.193 88.0386 122.999C84.5212 121.805 81.7083 119.91 77.9195 121.046C74.1308 122.182 62.4695 128.537 51.5799 121.491C51.5799 121.491 56.925 114.823 57.8984 114.228C58.8719 113.634 92.2592 113.521 92.2592 113.521L93.6917 122.395Z" fill="#231F36"/>
<path d="M63.955 58.2902C63.955 58.2902 67.6388 59.3957 69.9479 59.6117C72.257 59.8276 77.9195 60.5556 79.9041 62.1013C81.8888 63.647 86.6298 66.5556 88.9589 70.0187C91.2881 73.4818 102.27 97.3459 104.489 99.0226C104.489 99.0226 102.324 100.91 101.512 102.27C100.7 103.629 95.9937 111.902 95.9937 111.902C95.9937 111.902 96.5341 123.238 88.3631 121.479C83.4675 120.425 80.6794 115.959 76.2971 117.313C71.9148 118.666 63.4453 124.156 55.1657 122.778C46.8861 121.4 48.5109 113.687 48.5109 113.687C48.5109 113.687 47.0489 88.4445 52.4046 75.7012C57.7604 62.958 63.4087 55.7321 63.955 58.2902Z" fill="#DC433D"/>
<path d="M95.5229 116.385L90.5271 108.656C85.6398 109.467 79.6516 112.549 79.6516 112.549C77.7142 109.04 74.8894 89.011 74.8894 89.011C71.9667 85.5207 76.8375 111.575 77.7307 114.593C78.6239 117.611 83.687 113.912 85.5312 112.531C89.7695 109.357 93.9312 117.092 94.8055 118.43L95.5229 116.385Z" fill="#AF0808"/>
<path d="M83.8935 65.0267C83.8935 65.0267 81.2752 64.9335 76.946 69.4786C72.6169 74.0236 49.1315 118.755 49.1315 118.755C49.1315 118.755 48.7492 118.027 48.4896 116.631C48.4896 116.631 68.1791 72.3977 74.2935 68.0178C80.408 63.6379 83.32 63.6037 83.8935 65.0267Z" fill="#AF0808"/>
<path d="M79.9042 62.1015C79.9042 62.1015 76.8364 62.426 72.0399 67.2236C67.6577 71.6059 47.8348 108.639 44.4295 115.026C44.365 115.148 44.3252 115.282 44.3125 115.419C44.2998 115.556 44.3145 115.695 44.3556 115.826C44.3968 115.958 44.4636 116.08 44.5522 116.186C44.6408 116.292 44.7495 116.379 44.872 116.442L47.3782 117.74C47.5012 117.804 47.6357 117.842 47.7738 117.854C47.912 117.865 48.0509 117.849 48.1827 117.806C48.3144 117.763 48.4363 117.694 48.5413 117.604C48.6463 117.513 48.7322 117.403 48.7941 117.279C51.9304 110.997 69.7662 75.502 75.5325 69.3663C81.8629 62.6301 83.8865 65.023 83.8865 65.023C83.8865 65.023 84.4965 65.1091 82.9814 63.8655C81.4664 62.6218 80.8422 61.9753 79.9042 62.1015Z" fill="#8E4C36"/>
<path d="M66.4482 160.441C66.4482 160.441 63.6883 189.821 61.0913 197.777C58.4943 205.734 53.948 233.647 53.948 233.647H44.046L43.456 230.363L43.3215 228.712C43.3215 228.712 50.4377 230.984 52.7102 227.305C54.9828 223.626 62.9863 169.524 60.1721 157.295C57.358 145.066 57.791 139.006 59.6306 140.737C59.6329 140.744 65.1491 156.22 66.4482 160.441Z" fill="#2F2E4E"/>
<path d="M42.603 229.116C42.603 229.116 49.2637 231.208 54.9521 230.487C54.9521 230.487 55.7344 230.163 55.5905 231.136C55.4465 232.11 54.9769 234.419 54.5805 234.636C54.184 234.853 42.6749 233.914 42.603 233.409C42.531 232.904 41.6496 228.626 42.603 229.116Z" fill="#59597C"/>
<path d="M84.4999 232.702C84.4999 232.702 92.271 233.502 98.4869 231.713C98.4869 231.713 99.3034 231.241 99.3057 232.232C99.3081 233.223 99.1736 235.584 98.7677 235.874C98.3618 236.163 85.3849 237.418 85.2197 236.935C85.0545 236.453 83.3554 232.4 84.4999 232.702Z" fill="#59597C"/>
<path d="M121.461 264.267C118.04 264.953 101.805 264.405 101.805 264.405C101.805 264.405 92.2274 263.795 90.6061 263.762C88.9849 263.729 87.9832 262.144 87.9832 262.144L88.0162 261.629L88.1106 260.18L88.2215 258.481L88.2651 257.816C88.2651 257.816 88.2227 257.203 88.1873 256.353C88.1696 255.911 88.1531 255.409 88.1472 254.89C88.1472 254.638 88.1472 254.385 88.1472 254.134C88.1472 253.985 88.1472 253.837 88.1542 253.691C88.1542 253.625 88.1542 253.559 88.1601 253.494V253.482C88.1601 253.416 88.1625 253.351 88.1672 253.287C88.1672 253.205 88.1755 253.123 88.1802 253.043C88.1802 252.991 88.1802 252.94 88.1896 252.89C88.1955 252.802 88.2014 252.716 88.2097 252.632L88.2203 252.52C88.2203 252.491 88.2262 252.461 88.2298 252.433C88.2298 252.375 88.2427 252.315 88.2498 252.264C88.2723 252.073 88.3085 251.883 88.3584 251.697C88.3584 251.677 88.369 251.658 88.3749 251.639L88.3926 251.586C88.409 251.538 88.4283 251.491 88.4504 251.445C89.0038 250.337 89.9843 247.316 89.9843 247.316C89.9843 247.316 92.6581 246.796 94.4504 245.258C94.5353 245.186 94.6179 245.113 94.6981 245.035C94.9072 244.836 95.1348 244.657 95.3778 244.502L95.4745 244.44C95.5265 244.407 95.5807 244.374 95.635 244.343L95.7672 244.268C95.8026 244.248 95.8391 244.228 95.8769 244.209C95.9146 244.19 95.9654 244.163 96.0102 244.14C96.1471 244.071 96.2887 244.006 96.4338 243.945C96.4881 243.921 96.5436 243.897 96.6002 243.875L96.802 243.797C96.9093 243.757 97.0167 243.719 97.1264 243.679H97.1335C98.0109 243.382 98.9331 243.24 99.8592 243.258C100.703 243.292 101.319 243.578 101.635 244.044C101.635 244.044 101.952 244.719 102.488 245.634C102.56 245.758 102.638 245.886 102.724 246.015C103.019 246.477 103.354 246.911 103.726 247.313C103.879 247.477 104.042 247.638 104.214 247.785C104.23 247.802 104.247 247.817 104.265 247.831L104.272 247.837L104.351 247.907L104.363 247.916C104.42 247.963 104.477 248.009 104.536 248.054L104.571 248.081L104.605 248.11C104.771 248.236 104.946 248.356 105.129 248.464L105.156 248.48C105.274 248.549 105.392 248.624 105.52 248.706L105.544 248.721L105.569 248.737L105.651 248.789L105.738 248.845C105.974 248.996 106.231 249.165 106.505 249.348L107.051 249.716C107.092 249.744 107.135 249.773 107.178 249.802L107.343 249.92H107.351L107.857 250.274L107.866 250.28C107.89 250.295 107.911 250.312 107.935 250.326L108.428 250.667C108.739 250.883 109.057 251.104 109.372 251.326L109.971 251.745L110.433 252.067L110.761 252.296L110.946 252.425L111.152 252.569L111.46 252.782L111.647 252.912L111.71 252.956C112.016 253.167 112.311 253.37 112.589 253.56L112.825 253.718L112.975 253.819C113.08 253.89 113.182 253.959 113.281 254.024C113.38 254.088 113.46 254.142 113.546 254.199C113.758 254.337 113.951 254.461 114.123 254.568L114.277 254.661C114.438 254.758 114.576 254.835 114.686 254.89L114.738 254.914L114.785 254.936L114.838 254.958H114.845C115.306 255.114 115.776 255.243 116.252 255.345L116.302 255.357L116.362 255.37L116.591 255.423L116.645 255.436L116.748 255.458C117.152 255.549 117.591 255.645 118.045 255.744L118.163 255.769L118.319 255.803L118.508 255.843L118.593 255.862L118.686 255.882L118.723 255.889H118.731C119.304 256.014 119.886 256.143 120.44 256.27H120.456L120.574 256.298L120.62 256.309H120.631L120.762 256.34L120.789 256.347L121.076 256.416C121.274 256.465 121.464 256.512 121.647 256.56L121.781 256.596C122.249 256.712 122.709 256.859 123.157 257.036L123.209 257.06C123.307 257.101 123.4 257.152 123.487 257.213L123.503 257.226L123.537 257.252C124.462 257.975 124.789 259.196 124.789 259.196C124.809 259.224 124.836 259.247 124.867 259.262C125.021 259.332 125.146 259.452 125.221 259.603C125.25 259.667 125.273 259.732 125.291 259.799L125.299 259.825C125.299 259.841 125.307 259.857 125.31 259.874C125.322 259.921 125.334 259.973 125.346 260.028C125.346 260.05 125.355 260.071 125.359 260.092C125.362 260.113 125.367 260.131 125.37 260.151C125.37 260.151 125.37 260.157 125.37 260.16L125.378 260.19C125.378 260.202 125.378 260.215 125.378 260.228C125.385 260.263 125.391 260.301 125.398 260.34L125.408 260.405L125.415 260.447L125.426 260.51C125.437 260.58 125.448 260.652 125.459 260.723V260.748C125.459 260.782 125.47 260.816 125.474 260.851L125.481 260.901C125.492 260.976 125.503 261.05 125.512 261.121V261.144C125.512 261.161 125.512 261.178 125.512 261.194C125.512 261.211 125.512 261.227 125.512 261.244C125.512 261.26 125.512 261.257 125.512 261.262C125.512 261.271 125.512 261.278 125.512 261.285V261.312C125.512 261.318 125.512 261.324 125.512 261.329L125.519 261.385C125.519 261.401 125.519 261.416 125.519 261.431C125.519 261.447 125.519 261.462 125.525 261.476V261.501C125.526 261.507 125.526 261.513 125.525 261.519C125.524 261.526 125.524 261.533 125.525 261.541C125.534 261.613 125.543 261.678 125.551 261.733C125.551 261.749 125.551 261.764 125.557 261.777C125.563 261.79 125.557 261.803 125.563 261.816C125.569 261.829 125.563 261.842 125.563 261.854C125.7 262.301 124.883 263.58 121.461 264.267Z" fill="#0A1354"/>
<path d="M125.177 259.91C125.163 259.824 125.138 259.741 125.104 259.661C124.994 259.443 124.961 259.341 124.868 259.294C124.837 259.278 124.812 259.253 124.797 259.221C124.797 259.221 124.47 258 123.545 257.277L123.511 257.251C123.157 257.002 122.225 256.723 121.084 256.441L120.797 256.372L120.679 256.343L120.632 256.331L120.586 256.321L120.468 256.292H120.45C119.897 256.165 119.315 256.036 118.742 255.911H118.733L118.554 255.872L118.519 255.865L118.199 255.796H118.174L118.056 255.771C117.601 255.672 117.162 255.576 116.758 255.485L116.656 255.463L116.601 255.45L116.372 255.397L116.312 255.384L116.263 255.372C115.787 255.27 115.317 255.141 114.856 254.985H114.849L114.796 254.963L114.749 254.941L114.697 254.917C114.587 254.862 114.449 254.785 114.287 254.688L114.134 254.595C113.962 254.488 113.768 254.364 113.557 254.226C113.471 254.17 113.382 254.108 113.292 254.051C113.201 253.993 113.091 253.917 112.986 253.846L112.836 253.745L112.6 253.587C112.322 253.397 112.027 253.194 111.721 252.983L111.657 252.939L111.471 252.809L111.163 252.596L110.956 252.452L110.771 252.323L110.443 252.094L109.982 251.772L109.382 251.353C109.065 251.131 108.748 250.91 108.438 250.694L107.945 250.353L107.876 250.304L107.866 250.298L107.359 249.95H107.352H107.345L107.184 249.811C107.141 249.783 107.098 249.753 107.057 249.725L106.51 249.357C106.237 249.174 105.981 249.003 105.743 248.854L105.657 248.799L105.576 248.746L105.55 248.73L105.526 248.715C105.398 248.634 105.275 248.558 105.162 248.49L105.135 248.473C104.952 248.361 104.781 248.237 104.611 248.119L104.577 248.091L104.542 248.064C104.483 248.019 104.425 247.973 104.369 247.926L104.357 247.916L104.278 247.847L104.271 247.841C104.253 247.827 104.236 247.811 104.22 247.795C104.048 247.642 103.885 247.482 103.732 247.323C103.36 246.921 103.025 246.486 102.73 246.025C102.645 245.895 102.567 245.767 102.494 245.644C102.28 245.745 102.063 245.852 101.849 245.962C100.765 246.514 99.753 247.142 99.6326 247.601C99.5169 248.065 99.5056 248.548 99.5996 249.017C99.625 249.145 99.6573 249.271 99.6963 249.396L92.5129 250.978L88.1472 254.144C88.1472 254.394 88.1472 254.648 88.1472 254.899C88.1531 255.416 88.1696 255.921 88.1873 256.362C88.2227 257.213 88.2651 257.825 88.2651 257.825L88.6085 258.645L88.7123 258.892L94.2167 259.874L96.9837 260.367C96.6158 259.911 96.3194 259.401 96.1046 258.856C95.6032 257.573 95.4828 255.723 97.884 254.344C98.6996 253.876 99.5501 253.471 100.428 253.134C101.415 252.759 102.472 252.607 103.525 252.69C104.577 252.773 105.598 253.088 106.514 253.613C107.487 254.167 108.508 254.767 109.202 255.179C109.302 255.238 109.388 255.32 109.451 255.418C109.514 255.516 109.553 255.627 109.566 255.743C109.578 255.859 109.563 255.976 109.522 256.085C109.481 256.194 109.415 256.292 109.329 256.372C108.096 257.514 106.441 259.026 106.033 259.911C105.993 259.996 105.959 260.084 105.931 260.173C105.868 260.365 105.823 260.563 105.797 260.763C105.723 261.352 105.738 261.949 105.84 262.533L121.361 262.287L125.276 260.465C125.237 260.251 125.209 260.06 125.177 259.91Z" fill="#5A6DA5"/>
<path d="M101.748 244.099C101.325 243.371 100.662 242.814 99.8733 242.52C99.0843 242.227 98.2181 242.217 97.4226 242.492C96.4562 242.826 93.2385 245.796 94.0904 246.048C102.83 248.652 107.306 250.522 107.306 250.522L107.358 249.932C106.301 249.341 105.295 248.664 104.35 247.908C103.618 247.305 102.606 245.573 101.748 244.099Z" fill="#000219"/>
<path d="M103.977 249.416C103.7 249.38 103.421 249.366 103.142 249.373H103.003C102.473 249.399 101.946 249.469 101.428 249.582C97.8887 250.213 96.1034 250.792 94.5849 252.381C92.9542 254.091 91.8262 257.839 93.8226 258.679C94.7666 259.077 94.6958 259.151 94.5825 259.319C94.4504 259.524 93.8746 260.291 93.8746 260.291L88.1 260.173L88.2109 258.474L88.2546 257.809C88.2546 257.809 88.2121 257.196 88.1767 256.346C88.159 255.904 88.1425 255.402 88.1366 254.882C88.1366 254.631 88.1366 254.377 88.1366 254.127C88.1366 253.977 88.1365 253.83 88.1436 253.684C88.1436 253.618 88.1436 253.552 88.1495 253.487V253.475C88.1495 253.409 88.1519 253.344 88.1566 253.28C88.1566 253.198 88.1649 253.116 88.1696 253.036C88.1696 252.984 88.1696 252.933 88.179 252.882C88.1849 252.795 88.1908 252.709 88.1991 252.625L88.2097 252.513C88.2097 252.484 88.2156 252.454 88.2191 252.426C88.2191 252.368 88.2321 252.308 88.2392 252.257C88.2616 252.066 88.2979 251.876 88.3478 251.69C88.3478 251.67 88.3584 251.651 88.3643 251.632L88.382 251.579C88.3983 251.531 88.4176 251.484 88.4398 251.438C88.7678 250.783 88.7183 249.14 88.6239 247.906C88.6104 247.718 88.6349 247.53 88.696 247.353C88.757 247.175 88.8532 247.011 88.979 246.872C89.1047 246.732 89.2573 246.62 89.4276 246.541C89.5979 246.462 89.7825 246.418 89.9702 246.412C91.3306 246.363 93.2964 246.125 94.4539 245.221C94.4905 245.194 94.5235 245.167 94.5577 245.137C94.592 245.108 94.6451 245.062 94.6864 245.019C94.8955 244.82 95.123 244.642 95.366 244.486L95.4627 244.425C95.5147 244.392 95.5689 244.359 95.6232 244.328L95.7554 244.252C95.7908 244.232 95.8274 244.212 95.8651 244.193C95.9029 244.175 95.9536 244.147 95.9984 244.125C96.1353 244.055 96.2769 243.991 96.422 243.929C96.4763 243.906 96.5318 243.882 96.5884 243.86L96.7902 243.782C96.8975 243.742 97.0049 243.704 97.1146 243.664H97.1217C97.7935 243.449 98.5149 243.444 99.1895 243.65C99.8642 243.855 100.46 244.262 100.898 244.815C101.18 245.169 101.497 245.549 101.828 245.937C102.085 246.237 102.348 246.54 102.608 246.838C102.962 247.242 103.316 247.635 103.63 247.995L104.053 248.477C104.594 249.095 104.343 249.464 103.977 249.416Z" fill="#0A1354"/>
<path d="M113.784 257.943C115.586 258.659 117.669 258.432 120.844 258.085C122.593 257.894 123.282 257.546 123.549 257.272L123.499 257.234C122.535 256.515 115.977 255.452 114.794 254.944C114.364 254.727 113.95 254.481 113.555 254.208C113.288 254.767 112.182 257.307 113.784 257.943Z" fill="#0A1354"/>
<path d="M111.687 252.965C111.687 252.965 111.88 252.554 112.027 252.611C113.105 253.033 112.775 254.444 112.44 255.105C112.322 255.329 112.213 255.554 112.167 255.648C112.06 255.865 111.767 255.53 111.568 255.072C111.368 254.614 111.687 252.965 111.687 252.965Z" fill="#000219"/>
<path d="M113.529 253.919C113.598 253.801 113.817 253.918 113.906 253.959C114.561 254.215 114.528 254.589 114.528 254.589C114.423 255.613 114.637 255.31 113.938 256.736C113.832 256.953 113.539 256.618 113.339 256.16C113.17 255.783 113.367 254.184 113.529 253.919Z" fill="#000219"/>
<path d="M110.004 251.53C110.048 251.498 110.098 251.477 110.152 251.466C110.205 251.456 110.26 251.457 110.312 251.47C111.205 251.824 111.038 252.731 111.037 252.715C111.019 253.497 110.742 253.918 110.447 254.507C110.339 254.724 110.047 254.389 109.846 253.931C109.646 253.474 110.004 251.53 110.004 251.53Z" fill="#000219"/>
<path d="M108.383 250.324C108.483 250.297 108.588 250.3 108.686 250.334C109.579 250.688 109.412 251.594 109.411 251.577C109.392 252.36 109.116 252.782 108.821 253.371C108.715 253.588 108.422 253.253 108.221 252.795C108.021 252.337 108.383 250.324 108.383 250.324Z" fill="#000219"/>
<path d="M106.895 249.272C106.995 249.244 107.1 249.247 107.198 249.281C107.387 249.354 107.553 249.474 107.681 249.629C107.81 249.785 107.896 249.971 107.931 250.17L107.923 250.524C107.913 250.958 107.806 251.386 107.611 251.774C107.493 251.999 107.384 252.223 107.338 252.316C107.231 252.533 106.939 252.198 106.738 251.74C106.538 251.282 106.895 249.272 106.895 249.272Z" fill="#000219"/>
<path d="M105.385 248.159C105.484 248.132 105.589 248.134 105.687 248.167C105.875 248.241 106.041 248.361 106.17 248.516C106.298 248.672 106.385 248.858 106.421 249.057L106.413 249.411C106.402 249.846 106.295 250.273 106.1 250.662C105.982 250.886 105.873 251.11 105.827 251.203C105.721 251.421 105.427 251.085 105.228 250.628C105.028 250.17 105.385 248.159 105.385 248.159Z" fill="#000219"/>
<path d="M103.918 247.104C104.018 247.077 104.124 247.08 104.221 247.114C104.41 247.186 104.576 247.306 104.705 247.462C104.833 247.618 104.919 247.804 104.954 248.003L104.946 248.357C104.936 248.792 104.83 249.219 104.634 249.607C104.516 249.831 104.408 250.055 104.362 250.15C104.254 250.367 103.962 250.032 103.761 249.574C103.561 249.116 103.918 247.104 103.918 247.104Z" fill="#000219"/>
<path d="M102.431 244.887C102.529 244.851 102.638 244.854 102.733 244.897C103.387 245.227 103.46 246.048 103.46 246.048L103.45 246.51C103.439 247.066 103.33 247.616 103.129 248.134C103.011 248.426 102.893 248.717 102.853 248.842C102.744 249.124 102.454 248.689 102.257 248.097C102.06 247.504 102.431 244.887 102.431 244.887Z" fill="#000219"/>
<path d="M87.9784 262.142C87.9784 262.142 88.9813 263.728 90.6026 263.761C92.2238 263.794 101.8 264.404 101.8 264.404C101.8 264.404 118.032 264.952 121.458 264.266C124.883 263.581 125.706 262.301 125.634 261.889C125.576 261.535 125.449 260.355 125.301 259.823C125.284 259.755 125.26 259.689 125.231 259.626C125.195 259.529 125.138 259.442 125.064 259.371C124.989 259.3 124.9 259.247 124.802 259.216C124.33 259.669 122.737 260.692 116.986 260.933C109.45 261.248 102.219 259.352 98.2733 259.012C94.3276 258.672 91.2173 258.666 88.2604 257.814L88.2179 258.481L87.9784 262.142Z" fill="#F9EBDC"/>
<path d="M87.9784 262.143C87.9784 262.143 88.9813 263.729 90.6026 263.762C92.2238 263.795 101.8 264.405 101.8 264.405C101.8 264.405 118.032 264.952 121.458 264.267C124.883 263.581 125.706 262.301 125.634 261.889C125.604 261.712 125.559 261.331 125.501 260.927C125.455 260.556 125.388 260.187 125.301 259.823C124.913 260.116 124.155 260.479 122.691 260.842C119.356 261.668 111.174 261.88 107.136 261.016C103.098 260.152 95.8084 259.299 92.9388 259.246C90.7619 259.202 89.1383 258.903 88.2191 258.486L88.0138 261.633L87.9784 262.143Z" fill="#000219"/>
<path d="M73.2352 264.99C69.7461 265.143 53.7899 262.113 53.7899 262.113C53.7899 262.113 44.4189 260.042 42.8165 259.761C41.2142 259.481 40.472 257.756 40.472 257.756L40.5841 257.253L40.8991 255.837L41.2696 254.174L41.4147 253.523C41.4147 253.523 41.4667 252.912 41.5622 252.066C41.6118 251.627 41.6732 251.122 41.7463 250.613C41.7817 250.364 41.8195 250.114 41.8643 249.868C41.8891 249.719 41.9139 249.574 41.9398 249.43C41.9504 249.365 41.9634 249.3 41.9752 249.236V249.225C41.987 249.16 42 249.096 42.0118 249.033C42.0283 248.952 42.0448 248.872 42.0625 248.797C42.072 248.747 42.0838 248.697 42.0944 248.648C42.1145 248.562 42.1333 248.478 42.1546 248.396C42.1628 248.36 42.1723 248.322 42.1817 248.287C42.1911 248.251 42.1971 248.23 42.2041 248.202C42.2195 248.146 42.2348 248.091 42.2502 248.039C42.3017 247.853 42.3667 247.67 42.4448 247.494C42.4519 247.475 42.4614 247.457 42.4696 247.439C42.4779 247.422 42.4861 247.406 42.4956 247.39C42.5187 247.345 42.5447 247.302 42.5735 247.26C43.2908 246.25 44.7256 243.409 44.7256 243.409C44.7256 243.409 47.4477 243.305 49.4548 242.06C49.5492 242.002 49.6424 241.942 49.7333 241.877C49.9705 241.713 50.223 241.571 50.4872 241.455C50.5215 241.438 50.5569 241.424 50.5923 241.409C50.6489 241.384 50.7103 241.359 50.7657 241.338L50.9073 241.284L51.0253 241.242L51.1669 241.195C51.3132 241.147 51.4631 241.104 51.6165 241.067C51.6731 241.051 51.7344 241.036 51.7911 241.023L52.0023 240.977C52.1203 240.953 52.2265 240.933 52.3409 240.914H52.348C53.2603 240.755 54.1932 240.755 55.1055 240.914C55.9315 241.078 56.499 241.455 56.7397 241.963C56.7397 241.963 56.9509 242.68 57.3391 243.666C57.391 243.799 57.4489 243.937 57.5126 244.079C57.7332 244.58 57.9982 245.061 58.3043 245.515C58.4305 245.7 58.5662 245.884 58.7137 246.061C58.7263 246.08 58.7405 246.098 58.7562 246.114C58.7562 246.114 58.7562 246.114 58.7621 246.121L58.8305 246.202C58.834 246.205 58.8371 246.209 58.84 246.213C58.8884 246.269 58.9391 246.323 58.9898 246.376C58.9991 246.387 59.0089 246.398 59.0193 246.408L59.0488 246.442C59.1936 246.593 59.3477 246.737 59.5114 246.877L59.5362 246.897C59.6376 246.982 59.7473 247.076 59.8618 247.176L59.883 247.194L59.9043 247.215C59.9291 247.235 59.9527 247.257 59.9786 247.279L60.0553 247.346C60.2661 247.533 60.4931 247.738 60.7361 247.961L61.2199 248.408C61.2553 248.442 61.2931 248.479 61.3379 248.513L61.4842 248.65L61.9302 249.072L61.9385 249.08C61.9597 249.098 61.9786 249.118 61.9999 249.136C62.1426 249.272 62.2889 249.409 62.4352 249.549C62.7102 249.81 62.9898 250.078 63.2694 250.346L63.7981 250.852C63.9338 250.982 64.0683 251.113 64.204 251.24L64.493 251.517L64.6559 251.672L64.8388 251.846L65.1101 252.105L65.2742 252.262L65.3308 252.314C65.5998 252.57 65.8606 252.815 66.1072 253.046L66.3137 253.238L66.4458 253.356L66.716 253.603C66.7975 253.679 66.8753 253.75 66.952 253.818C67.1396 253.987 67.306 254.139 67.4653 254.27L67.6033 254.388C67.7485 254.506 67.8724 254.607 67.9727 254.677C67.9875 254.689 68.0033 254.7 68.0199 254.71L68.0635 254.738L68.1119 254.768H68.119C68.5505 254.993 68.9949 255.193 69.4499 255.366L69.4971 255.385C69.5156 255.394 69.5345 255.401 69.5538 255.407L69.7721 255.495L69.824 255.516L69.9219 255.554C70.3077 255.706 70.7266 255.868 71.162 256.035L71.2718 256.078L71.4204 256.136L71.5998 256.204L71.6812 256.236L71.7709 256.27L71.8051 256.282C71.8051 256.282 71.8051 256.282 71.8133 256.282C72.3608 256.494 72.9154 256.71 73.4428 256.921L73.4594 256.927L73.5773 256.973L73.621 256.991H73.6304L73.7555 257.041L73.7815 257.052L74.054 257.17C74.2428 257.249 74.4233 257.325 74.5968 257.4L74.7242 257.456C75.1706 257.643 75.6042 257.859 76.0222 258.102L76.0694 258.133C76.1598 258.189 76.244 258.254 76.3207 258.328C76.326 258.332 76.3307 258.338 76.3348 258.343L76.3643 258.374C77.1679 259.23 77.3083 260.487 77.3083 260.487C77.3244 260.518 77.3474 260.544 77.3755 260.564C77.5157 260.657 77.6195 260.795 77.6693 260.956C77.6888 261.022 77.7023 261.091 77.7095 261.16V261.186V261.236C77.7095 261.285 77.7177 261.338 77.7213 261.394C77.7213 261.416 77.7213 261.437 77.7213 261.459C77.7213 261.482 77.7213 261.498 77.7213 261.52C77.7213 261.52 77.7213 261.525 77.7213 261.529C77.7219 261.539 77.7219 261.549 77.7213 261.558C77.7224 261.571 77.7224 261.584 77.7213 261.597C77.7213 261.633 77.7213 261.672 77.7213 261.715V261.781C77.7213 261.796 77.7213 261.81 77.7213 261.824V261.888C77.7213 261.96 77.7213 262.033 77.7213 262.104V262.132C77.7213 262.167 77.7213 262.202 77.7213 262.236C77.7213 262.27 77.7213 262.271 77.7213 262.288C77.7213 262.362 77.7213 262.438 77.7213 262.51C77.7213 262.518 77.7213 262.526 77.7213 262.533C77.7213 262.54 77.7213 262.566 77.7213 262.583C77.7213 262.599 77.7213 262.616 77.7213 262.632C77.7207 262.639 77.7207 262.646 77.7213 262.652C77.7213 262.661 77.7213 262.668 77.7213 262.675V262.702C77.7207 262.707 77.7207 262.713 77.7213 262.718V262.776C77.7213 262.791 77.7213 262.807 77.7213 262.822C77.7213 262.838 77.7213 262.853 77.7213 262.867V262.892C77.7219 262.898 77.7219 262.904 77.7213 262.909V262.915C77.7207 262.923 77.7207 262.93 77.7213 262.938C77.7213 263.01 77.7213 263.076 77.7213 263.131C77.7213 263.147 77.7213 263.162 77.7213 263.175C77.7224 263.188 77.7224 263.202 77.7213 263.215V263.253C77.7295 263.698 76.7242 264.836 73.2352 264.99Z" fill="#0A1354"/>
<path d="M77.5797 261.256C77.579 261.17 77.5675 261.083 77.5455 260.999C77.4711 260.763 77.4534 260.662 77.3732 260.6C77.3449 260.58 77.3241 260.551 77.3142 260.518C77.3142 260.518 77.1785 259.261 76.3702 258.405L76.3407 258.374C76.0316 258.074 75.1502 257.655 74.0658 257.201L73.7933 257.083L73.6753 257.036L73.6304 257.017L73.5868 256.999L73.4688 256.953L73.4511 256.946C72.9236 256.735 72.3691 256.519 71.8216 256.307C71.8216 256.307 71.8216 256.307 71.8133 256.307L71.6422 256.241L71.608 256.229L71.3036 256.111L71.28 256.102L71.1703 256.06C70.7349 255.892 70.316 255.731 69.9302 255.579L69.8322 255.541L69.7803 255.52L69.562 255.432C69.5428 255.426 69.5239 255.418 69.5054 255.41L69.4582 255.391C69.0032 255.218 68.5588 255.018 68.1272 254.793L68.0788 254.763L68.0352 254.735C68.0186 254.725 68.0029 254.714 67.988 254.702C67.8877 254.632 67.7638 254.533 67.6187 254.413L67.4806 254.295C67.3272 254.164 67.155 254.012 66.9674 253.843C66.8907 253.774 66.8128 253.704 66.7314 253.628L66.4612 253.38L66.329 253.262L66.1225 253.071C65.8759 252.835 65.6152 252.599 65.3461 252.338L65.2895 252.287L65.1255 252.13L64.8541 251.871L64.6712 251.697L64.5084 251.542L64.2193 251.265C64.0836 251.137 63.9491 251.006 63.8134 250.877L63.2848 250.37C63.0051 250.103 62.7255 249.835 62.4506 249.574C62.3043 249.433 62.1579 249.297 62.0152 249.161L61.9538 249.102L61.9456 249.095C61.7934 248.951 61.6447 248.811 61.4972 248.674H61.4901L61.3509 248.54C61.3119 248.506 61.2742 248.47 61.2329 248.435L60.7491 247.988C60.506 247.765 60.2791 247.561 60.0683 247.373L59.9916 247.306L59.9196 247.241L59.896 247.221L59.8748 247.203C59.7568 247.103 59.6506 247.009 59.5491 246.924L59.5243 246.904C59.3615 246.765 59.2073 246.62 59.0618 246.469L59.0323 246.435C59.0219 246.425 59.0121 246.415 59.0028 246.403C58.9521 246.35 58.9013 246.296 58.853 246.241C58.8501 246.236 58.847 246.232 58.8435 246.229L58.7751 246.149C58.7751 246.149 58.7751 246.149 58.7692 246.141C58.7535 246.125 58.7393 246.107 58.7267 246.088C58.5792 245.911 58.4435 245.727 58.3173 245.542C58.0112 245.088 57.7462 244.607 57.5255 244.106C57.4618 243.964 57.4076 243.826 57.3521 243.693C57.1255 243.76 56.8943 243.834 56.6654 243.909C55.5102 244.289 54.4141 244.753 54.2253 245.189C54.0386 245.631 53.9527 246.109 53.9739 246.587C53.9739 246.716 53.9928 246.847 54.0117 246.977L46.6702 247.439L41.8737 249.9C41.8336 250.146 41.7959 250.396 41.7557 250.645C41.6826 251.157 41.6212 251.659 41.5717 252.098C41.4761 252.944 41.4242 253.555 41.4242 253.555L41.6378 254.419L41.7027 254.678L46.9911 256.492L49.6495 257.403C49.4709 257.098 49.3224 256.776 49.2058 256.442C49.1272 256.224 49.0625 256.002 49.0123 255.776C48.7138 254.431 48.879 252.59 51.463 251.59C52.3405 251.253 53.2427 250.983 54.1616 250.783C55.1942 250.564 56.2627 250.576 57.29 250.819C58.3173 251.063 59.2779 251.531 60.1025 252.19C60.9792 252.887 61.896 253.636 62.519 254.15C62.6091 254.224 62.6807 254.317 62.7281 254.424C62.7755 254.53 62.7973 254.646 62.7917 254.763C62.7862 254.879 62.7536 254.993 62.6964 255.094C62.6392 255.196 62.5591 255.282 62.4624 255.347C61.0689 256.291 59.201 257.528 58.6606 258.342C58.6095 258.421 58.5626 258.502 58.5202 258.586C58.4289 258.764 58.3547 258.951 58.2984 259.143C58.1349 259.715 58.0577 260.309 58.0695 260.904L73.444 263.039L77.5926 261.839C77.5867 261.601 77.5879 261.407 77.5797 261.256Z" fill="#5A6DA5"/>
<path d="M56.8506 242.041C56.5443 241.257 55.9751 240.604 55.2403 240.193C54.5055 239.782 53.6508 239.639 52.8223 239.789C51.8159 239.972 48.1817 242.412 48.9852 242.793C57.2223 246.706 61.3568 249.239 61.3568 249.239L61.4984 248.663C60.5453 247.917 59.655 247.093 58.8365 246.202C58.2076 245.495 57.4725 243.628 56.8506 242.041Z" fill="#000219"/>
<path d="M58.2382 247.635C57.9701 247.557 57.6963 247.501 57.4193 247.465L57.2813 247.449C56.7542 247.393 56.2233 247.381 55.6943 247.413C52.099 247.495 50.2465 247.793 48.5061 249.131C46.6324 250.571 44.9427 254.101 46.7858 255.238C47.6577 255.776 47.5787 255.827 47.4395 255.987C47.2778 256.168 46.5958 256.84 46.5958 256.84L40.9073 255.84L41.2778 254.178L41.423 253.527C41.423 253.527 41.4749 252.915 41.5705 252.069C41.62 251.63 41.6814 251.125 41.7545 250.617C41.7899 250.368 41.8277 250.118 41.8725 249.871C41.8973 249.723 41.9221 249.577 41.948 249.433C41.9587 249.369 41.9716 249.304 41.9834 249.24V249.228C41.9952 249.163 42.0082 249.099 42.02 249.037C42.0365 248.956 42.0531 248.875 42.0708 248.801C42.0802 248.75 42.092 248.701 42.1026 248.651C42.1227 248.565 42.1415 248.481 42.1628 248.4C42.171 248.363 42.1805 248.325 42.1899 248.29C42.1994 248.255 42.2053 248.233 42.2123 248.205C42.2277 248.15 42.243 248.094 42.2584 248.042C42.3099 247.856 42.3749 247.674 42.4531 247.497C42.4601 247.478 42.4696 247.461 42.4778 247.443C42.4861 247.425 42.4943 247.41 42.5038 247.393C42.5269 247.348 42.553 247.305 42.5817 247.264C43.0064 246.666 43.2094 245.035 43.305 243.8C43.3204 243.613 43.3735 243.431 43.4611 243.265C43.5486 243.099 43.6688 242.952 43.8145 242.833C43.9602 242.715 44.1283 242.627 44.3088 242.575C44.4893 242.523 44.6784 242.508 44.8648 242.531C46.217 242.691 48.1958 242.757 49.4819 242.042C49.522 242.021 49.5586 242 49.5999 241.975C49.6412 241.95 49.6978 241.914 49.7438 241.881C49.9811 241.716 50.2336 241.575 50.4978 241.458C50.532 241.442 50.5674 241.428 50.6028 241.412C50.6595 241.387 50.7208 241.363 50.7763 241.341L50.9179 241.287L51.0359 241.246L51.1775 241.199C51.3238 241.15 51.4736 241.108 51.627 241.07C51.6837 241.055 51.745 241.039 51.8017 241.026L52.0129 240.98C52.1309 240.957 52.2371 240.937 52.3515 240.918H52.3586C53.0556 240.808 53.7695 240.914 54.405 241.221C55.0404 241.527 55.5672 242.021 55.9149 242.635C56.1403 243.026 56.3951 243.452 56.663 243.887C56.8706 244.222 57.0842 244.561 57.2966 244.895C57.5833 245.35 57.8677 245.792 58.1225 246.193L58.4659 246.735C58.8978 247.412 58.5933 247.739 58.2382 247.635Z" fill="#0A1354"/>
<path d="M66.6216 257.566C68.2936 258.55 70.3868 258.643 73.5832 258.788C75.3402 258.867 76.0741 258.629 76.3797 258.399L76.3372 258.354C75.4947 257.496 69.1762 255.441 68.0859 254.757C67.6951 254.477 67.3237 254.17 66.9744 253.839C66.6193 254.35 65.1361 256.691 66.6216 257.566Z" fill="#0A1354"/>
<path d="M65.3131 252.324C65.3131 252.324 65.5668 251.948 65.7037 252.027C66.7042 252.61 66.1603 253.954 65.7284 254.556C65.5821 254.76 65.4358 254.964 65.3745 255.05C65.2364 255.248 64.9981 254.871 64.8706 254.388C64.7432 253.905 65.3131 252.324 65.3131 252.324Z" fill="#000219"/>
<path d="M66.9874 253.549C67.0735 253.448 67.2706 253.599 67.3532 253.647C67.962 254.001 67.8724 254.366 67.8724 254.366C67.6104 255.361 67.8724 255.094 66.9567 256.396C66.8175 256.594 66.5803 256.217 66.4517 255.735C66.3467 255.337 66.7856 253.786 66.9874 253.549Z" fill="#000219"/>
<path d="M63.87 250.649C63.9183 250.624 63.9714 250.61 64.0257 250.608C64.0799 250.606 64.1339 250.616 64.1839 250.637C65.0098 251.12 64.7078 251.994 64.709 251.977C64.5709 252.748 64.237 253.122 63.8559 253.66C63.7178 253.858 63.4795 253.481 63.352 252.998C63.2246 252.515 63.87 250.649 63.87 250.649Z" fill="#000219"/>
<path d="M62.453 249.209C62.5554 249.197 62.659 249.217 62.7503 249.265C63.5763 249.747 63.2754 250.622 63.2766 250.605C63.1385 251.376 62.8046 251.75 62.4235 252.286C62.2842 252.485 62.0471 252.108 61.9196 251.626C61.7922 251.143 62.453 249.209 62.453 249.209Z" fill="#000219"/>
<path d="M61.1444 247.941C61.2468 247.929 61.3504 247.948 61.4417 247.996C61.6166 248.097 61.7628 248.241 61.866 248.415C61.9693 248.588 62.0264 248.786 62.0317 248.988L61.968 249.341C61.8918 249.77 61.7213 250.176 61.4688 250.53L61.1149 251.023C60.9756 251.221 60.7373 250.845 60.611 250.362C60.4848 249.88 61.1444 247.941 61.1444 247.941Z" fill="#000219"/>
<path d="M59.8217 246.611C59.9241 246.599 60.028 246.618 60.119 246.667C60.294 246.768 60.4401 246.912 60.5434 247.085C60.6467 247.259 60.7037 247.456 60.709 247.658L60.6465 248.012C60.5695 248.44 60.3987 248.845 60.1462 249.199C59.9999 249.403 59.8535 249.607 59.7922 249.693C59.653 249.891 59.4158 249.514 59.2884 249.032C59.1609 248.551 59.8217 246.611 59.8217 246.611Z" fill="#000219"/>
<path d="M58.5344 245.343C58.6372 245.331 58.7412 245.35 58.8329 245.398C59.0078 245.499 59.154 245.643 59.2573 245.817C59.3606 245.99 59.4176 246.187 59.4229 246.389L59.3603 246.743C59.2842 247.172 59.1132 247.578 58.86 247.932C58.7137 248.136 58.5674 248.34 58.5061 248.426C58.368 248.624 58.1297 248.247 58.0022 247.764C57.8748 247.281 58.5344 245.343 58.5344 245.343Z" fill="#000219"/>
<path d="M57.404 242.924C57.5071 242.903 57.6143 242.923 57.7025 242.98C58.2925 243.406 58.2441 244.229 58.2441 244.229L58.1627 244.683C58.0664 245.231 57.8747 245.757 57.5963 246.239C57.4382 246.509 57.2801 246.781 57.2152 246.894C57.0642 247.156 56.8447 246.682 56.7432 246.068C56.6418 245.454 57.404 242.924 57.404 242.924Z" fill="#000219"/>
<path d="M40.4779 257.76C40.4779 257.76 41.226 259.481 42.8224 259.766C44.4189 260.052 53.7958 262.118 53.7958 262.118C53.7958 262.118 69.752 265.148 73.2411 264.995C76.7301 264.841 77.7354 263.703 77.7319 263.286C77.7319 262.925 77.7862 261.752 77.7213 261.193C77.7142 261.124 77.7008 261.055 77.6811 260.989C77.6612 260.888 77.6183 260.793 77.5557 260.711C77.4931 260.629 77.4125 260.562 77.3201 260.517C76.7809 260.891 75.0534 261.659 69.3331 261.015C61.8382 260.171 54.9828 257.189 51.1374 256.249C47.292 255.309 44.2171 254.825 41.4266 253.535L41.2814 254.186L40.4779 257.76Z" fill="#F9EBDC"/>
<path d="M40.4779 257.76C40.4779 257.76 41.226 259.481 42.8224 259.766C44.4189 260.052 53.7958 262.118 53.7958 262.118C53.7958 262.118 69.752 265.148 73.2411 264.994C76.7301 264.841 77.7354 263.702 77.7319 263.286C77.7319 263.106 77.7449 262.723 77.7496 262.315C77.7609 261.94 77.7514 261.566 77.7213 261.193C77.2918 261.423 76.4882 261.665 74.985 261.8C71.5632 262.107 63.4441 261.06 59.5869 259.588C55.7297 258.115 48.656 256.154 45.8301 255.658C43.6861 255.281 42.1263 254.736 41.2814 254.183L40.5959 257.262L40.4779 257.76Z" fill="#000219"/>
<path d="M90.5283 108.654C90.5283 108.654 93.6126 117.421 98.3736 117.476C103.135 117.53 110.712 111.09 115.094 105.787C117.731 102.596 120.607 99.6114 123.698 96.8587C123.698 96.8587 129.055 97.1289 133.6 96.8587C138.146 96.5885 141.068 96.8045 141.388 96.6157C141.708 96.4269 141.469 95.4794 140.036 95.2623C140.036 95.2623 144.012 94.0174 143.905 92.9024C143.905 92.9024 145.041 92.7408 145.257 92.1944C145.473 91.6481 144.797 90.9768 140.766 91.2741C140.766 91.2741 142.443 89.8948 143.282 89.3532C144.121 88.8116 142.633 88.0281 141.009 88.5685C139.386 89.1089 136.194 90.788 134.38 90.7608C132.567 90.7337 126.075 90.165 126.182 89.7591C126.29 89.3532 128.456 85.5927 127.536 83.3473C126.615 81.1019 125.858 84.8081 124.803 85.8098C123.748 86.8116 119.965 89.5974 120.258 92.7891C120.258 92.7891 104.971 105.344 101.453 104.532L101.133 102.898C101.133 102.898 95.8852 107.573 90.5283 108.654Z" fill="#F8A478"/>
<path d="M140.78 91.3061C140.38 91.6575 139.931 91.9478 139.446 92.1675C138.969 92.3976 138.468 92.5738 137.952 92.6926C137.823 92.7232 137.691 92.7457 137.56 92.7716C137.429 92.7976 137.302 92.8117 137.172 92.8283C136.913 92.8613 136.652 92.8814 136.391 92.8884C135.86 92.9196 135.328 92.8735 134.81 92.7516V92.7044C135.065 92.6878 135.32 92.6583 135.574 92.6253C135.829 92.5923 136.083 92.5581 136.336 92.5179C136.842 92.4365 137.349 92.3492 137.847 92.2324C138.346 92.1183 138.84 91.9781 139.324 91.8123C139.569 91.7309 139.808 91.6424 140.048 91.5504C140.287 91.4584 140.527 91.3663 140.756 91.2637L140.78 91.3061Z" fill="#EA7E4E"/>
<path d="M143.913 92.932C143.221 93.2285 142.508 93.4754 141.781 93.6706C141.427 93.7791 141.058 93.8582 140.697 93.9514C140.336 94.0446 139.967 94.1107 139.603 94.1874C139.238 94.2641 138.864 94.3196 138.494 94.3715C138.123 94.4234 137.753 94.4718 137.379 94.4977C136.628 94.5734 135.873 94.5923 135.119 94.5544L135.112 94.5072C135.847 94.386 136.581 94.2613 137.316 94.1331C138.05 94.0033 138.783 93.8712 139.513 93.7249L143.905 92.8848L143.913 92.932Z" fill="#EA7E4E"/>
<path d="M140.044 95.2861C139.754 95.492 139.436 95.6557 139.1 95.7722C138.457 96.0038 137.778 96.1235 137.094 96.1262C136.738 96.1313 136.382 96.0865 136.038 95.9929L136.03 95.9468C136.363 95.8784 136.696 95.8143 137.029 95.7545L138.029 95.5716L139.031 95.4029C139.364 95.3447 139.699 95.2912 140.035 95.2424L140.044 95.2861Z" fill="#EA7E4E"/>
<path d="M101.458 104.542C101.458 104.542 97.6385 109.89 91.5666 111.058L90.5283 108.654C90.5283 108.654 96.4881 107.333 101.138 102.908L101.458 104.542Z" fill="#DC6350"/>
<path d="M75.326 84.7777C75.3038 84.7776 75.2817 84.7752 75.2599 84.7706C75.2221 84.762 75.1864 84.746 75.1548 84.7235C75.1232 84.701 75.0964 84.6725 75.0759 84.6396C75.0554 84.6067 75.0416 84.57 75.0353 84.5317C75.029 84.4935 75.0304 84.4544 75.0393 84.4166C75.0535 84.3553 76.4859 78.2456 79.0759 73.8208C81.7095 69.3217 87.3531 68.13 87.5914 68.0816C87.6294 68.0739 87.6685 68.0737 87.7065 68.0811C87.7446 68.0884 87.7808 68.1032 87.8131 68.1246C87.8454 68.146 87.8732 68.1735 87.8949 68.2056C87.9166 68.2377 87.9317 68.2738 87.9395 68.3117C87.9472 68.3497 87.9474 68.3888 87.9401 68.4268C87.9327 68.4649 87.9179 68.5011 87.8965 68.5334C87.8752 68.5657 87.8477 68.5935 87.8156 68.6152C87.7834 68.6369 87.7474 68.6521 87.7094 68.6598C87.6528 68.6716 82.0835 69.8504 79.5856 74.1194C77.0393 78.4674 75.6281 84.4898 75.6139 84.55C75.5985 84.6148 75.5617 84.6725 75.5095 84.7138C75.4573 84.7551 75.3926 84.7776 75.326 84.7777Z" fill="#AF0808"/>
<path d="M77.0334 55.0189C77.0334 55.0189 76.6523 55.229 72.4989 54.2473C68.3456 53.2656 68.5379 46.855 68.5379 46.855C68.5957 46.9199 70.4517 48.9789 71.8263 49.9169C74.4741 51.7281 76.9001 50.9576 76.9001 50.9576L76.9248 51.6656L77.0334 55.0189Z" fill="#DC6350"/>
<path d="M59.6293 140.743L65.8299 166.556L66.4482 160.44L59.6293 140.743Z" fill="#231F36"/>
<path d="M76.9201 51.6644C76.9201 51.6644 72.6416 52.2166 70.6782 50.1022C68.7148 47.9877 68.5378 46.855 68.5378 46.855C68.5957 46.9199 70.4717 48.947 71.8263 49.9169C74.2346 51.642 76.9 50.9576 76.9 50.9576L76.9201 51.6644Z" fill="#B1291D"/>
<path d="M81.9454 35.4493C81.9973 35.27 81.8911 35.0482 81.746 34.8594C81.392 34.4169 80.3761 34.1113 79.2351 35.2134C78.4351 35.9886 79.0734 36.4075 79.3248 35.8895C79.4428 35.637 80.1944 35.1213 80.5047 34.9963C81.287 34.6942 81.8156 35.8788 81.9454 35.4493Z" fill="#1C1D31"/>
<path d="M81.4617 45.919C79.9919 45.4093 78.5565 44.8055 77.1644 44.1113C77.1644 44.1113 78.5119 47.4907 81.4617 45.919Z" fill="#DC6350"/>
<path d="M81.6717 38.1373C81.6422 38.4535 81.5383 38.8913 81.1903 38.8807C80.6475 38.8641 81.09 37.3467 81.2209 37.263C81.5372 37.0553 81.7012 37.4671 81.6811 37.8223C81.6848 37.9274 81.6816 38.0326 81.6717 38.1373Z" fill="#0A031C"/>
<path d="M81.4451 37.8694C81.5226 37.8694 81.5855 37.7955 81.5855 37.7043C81.5855 37.613 81.5226 37.5391 81.4451 37.5391C81.3675 37.5391 81.3047 37.613 81.3047 37.7043C81.3047 37.7955 81.3675 37.8694 81.4451 37.8694Z" fill="white"/>
<path d="M69.2505 40.0719C69.0817 39.7546 68.8674 39.4636 68.6146 39.2082C68.3632 38.9459 68.0755 38.721 67.7603 38.5404C67.4422 38.356 67.091 38.2358 66.7267 38.1864C66.3684 38.1396 66.004 38.18 65.6647 38.3044C66.0118 38.26 66.3637 38.2727 66.7066 38.3421C66.8748 38.3768 67.0394 38.4265 67.1986 38.4908C67.3569 38.5557 67.51 38.6326 67.6565 38.7209C67.958 38.8929 68.241 39.0953 68.5013 39.325C68.7676 39.5568 69.0179 39.8063 69.2505 40.0719Z" fill="#DC6350"/>
<path d="M66.0872 39.5232C66.2052 39.4052 66.3232 39.3026 66.4329 39.2011C66.5466 39.1021 66.6672 39.0114 66.7939 38.9297C66.9184 38.8474 67.0513 38.7786 67.1904 38.7244C67.3362 38.6701 67.4857 38.6259 67.6376 38.5923C67.478 38.5445 67.3092 38.536 67.1456 38.5675C66.9797 38.5978 66.8215 38.6612 66.6807 38.7539C66.5413 38.8449 66.4177 38.9581 66.3149 39.089C66.2105 39.217 66.1331 39.3646 66.0872 39.5232Z" fill="#DC6350"/>
<path d="M147.79 264.611H171.237" stroke="#3981F6" stroke-opacity="0.2" stroke-width="3" stroke-miterlimit="10" stroke-linecap="round"/>
<path d="M7.87866 264.611H26.229" stroke="#3981F6" stroke-opacity="0.2" stroke-width="3" stroke-miterlimit="10" stroke-linecap="round"/>
</svg>
