<svg width="293" height="266" viewBox="0 0 293 266" fill="none" xmlns="http://www.w3.org/2000/svg">
<path d="M201.913 65.9559C187.561 58.8015 171.643 45.8957 170.38 23.6228C168.04 -17.5716 226.525 4.16316 236.348 35.9016C236.447 36.2219 236.542 36.5366 236.634 36.8457C242.744 57.5595 221.242 75.5957 201.913 65.9559Z" fill="#3981F6" fill-opacity="0.2"/>
<path d="M203.12 212.79C200.845 214.335 198.443 215.829 195.913 217.273C195.321 217.61 194.721 217.944 194.111 218.275C193.717 218.491 193.32 218.706 192.92 218.918C181.965 224.739 168.716 229.593 152.856 233.109C150.363 233.661 147.807 234.181 145.186 234.67C144.349 234.824 143.506 234.975 142.656 235.123C142.475 235.155 142.296 235.187 142.11 235.217C132.025 236.944 122.507 237.724 113.547 237.664C113.387 237.664 113.23 237.664 113.067 237.664C112.683 237.664 112.3 237.656 111.921 237.647L111.44 237.637C111.033 237.629 110.628 237.618 110.223 237.606C109.819 237.594 109.419 237.58 109.022 237.564L108.552 237.545C108.408 237.545 108.265 237.532 108.122 237.526L107.625 237.503L107.225 237.483L106.729 237.455C106.497 237.443 106.268 237.43 106.037 237.415L105.224 237.362L104.658 237.323C103.546 237.243 102.442 237.149 101.348 237.043L100.833 236.992C99.6179 236.87 98.4138 236.73 97.2214 236.573C97.01 236.546 96.7974 236.518 96.586 236.488C96.3257 236.454 96.0671 236.417 95.81 236.38C95.631 236.355 95.4496 236.329 95.2731 236.302C95.0965 236.274 94.8947 236.246 94.7073 236.218C94.0106 236.112 93.3187 236.001 92.6316 235.884L92.0971 235.792L91.3571 235.661L90.7565 235.55C90.1199 235.43 89.4864 235.307 88.8562 235.18L88.2268 235.049C88.0598 235.015 87.8916 234.979 87.7246 234.943C86.9078 234.769 86.097 234.587 85.2922 234.395L84.8117 234.275C83.7442 234.017 82.6876 233.745 81.6417 233.46C81.4988 233.422 81.357 233.383 81.2141 233.34C80.8994 233.253 80.5858 233.163 80.2735 233.074C80.0741 233.018 79.8739 232.96 79.6729 232.901L79.0795 232.726L78.5714 232.573C78.2343 232.47 77.8979 232.365 77.5624 232.26C77.2849 232.173 77.0062 232.084 76.7288 231.994L76.6915 231.982C76.5714 231.943 76.4513 231.905 76.3311 231.862C76.0753 231.779 75.8194 231.694 75.5648 231.609C75.3101 231.523 75.0507 231.434 74.7936 231.344C74.6675 231.302 74.5413 231.258 74.4152 231.213C74.366 231.198 74.3191 231.181 74.2699 231.162C74.0584 231.09 73.8494 231.015 73.6392 230.94C73.608 230.93 73.5756 230.917 73.5443 230.905C73.2633 230.805 72.9846 230.704 72.7035 230.601C72.3515 230.471 72.002 230.341 71.6536 230.208C71.3333 230.088 71.0178 229.966 70.7071 229.842L70.4572 229.743C70.217 229.649 69.9827 229.556 69.7461 229.46L69.7305 229.454C69.4182 229.327 69.1067 229.2 68.7959 229.072C68.5317 228.962 68.2674 228.851 68.0043 228.739L67.71 228.619C67.5259 228.539 67.3421 228.459 67.1587 228.379L66.7983 228.224C66.5581 228.117 66.3178 228.01 66.0776 227.9C65.4121 227.603 64.7519 227.297 64.0968 226.985C63.8686 226.879 63.6415 226.77 63.4157 226.66L63.0553 226.488L62.3634 226.147C62.1016 226.016 61.8385 225.884 61.579 225.75C61.489 225.706 61.3989 225.659 61.31 225.613L61.0769 225.493L60.6697 225.282C60.1568 225.015 59.6451 224.742 59.1394 224.466L58.7718 224.264C58.7382 224.246 58.7045 224.228 58.6709 224.208C58.4391 224.082 58.2072 223.953 57.9778 223.824C57.6979 223.666 57.4193 223.509 57.137 223.349C56.6565 223.076 56.1824 222.799 55.7147 222.517C55.5766 222.435 55.4397 222.353 55.3015 222.269L55.2835 222.258C55.0489 222.117 54.8162 221.976 54.5856 221.833C54.3934 221.715 54.2024 221.595 54.0126 221.473L53.8276 221.353L53.7604 221.311L53.4096 221.09C52.9548 220.801 52.5027 220.509 52.0534 220.213C51.8733 220.097 51.6935 219.977 51.5141 219.852L51.4456 219.807C51.3111 219.717 51.1753 219.626 51.042 219.535C50.9856 219.499 50.9303 219.461 50.8738 219.422C50.6132 219.248 50.3549 219.07 50.0955 218.89L50.0054 218.828L49.5982 218.544L49.1177 218.208L48.8017 217.983C48.6396 217.863 48.4798 217.753 48.3213 217.635C48.2011 217.548 48.081 217.463 47.9609 217.374C47.7663 217.232 47.5721 217.09 47.3783 216.945C47.1621 216.785 46.9471 216.625 46.7333 216.465L46.4462 216.246C46.242 216.09 46.0366 215.934 45.8324 215.775C45.6049 215.6 45.3787 215.424 45.1537 215.247C44.9675 215.099 44.7813 214.953 44.5963 214.804C44.4654 214.7 44.338 214.598 44.2095 214.494C43.9693 214.304 43.7338 214.112 43.5032 213.917C43.3146 213.765 43.1284 213.61 42.9434 213.456L42.7609 213.302C42.5494 213.124 42.338 212.942 42.129 212.766C41.92 212.591 41.7098 212.406 41.5008 212.227C41.3807 212.119 41.2485 212.01 41.1236 211.897C40.9987 211.784 40.8593 211.666 40.7284 211.55C40.2407 211.118 39.7574 210.682 39.2785 210.241C39.132 210.107 38.9862 209.972 38.8413 209.835C38.7212 209.726 38.6011 209.613 38.4809 209.5C38.3608 209.387 38.2491 209.284 38.135 209.174C38.0209 209.063 37.9044 208.956 37.789 208.844L37.3422 208.414C37.2521 208.328 37.1632 208.241 37.0731 208.151C36.9049 207.987 36.7356 207.821 36.5674 207.654C36.553 207.64 36.5362 207.624 36.5205 207.607C36.3091 207.398 36.0977 207.186 35.8875 206.974C35.4447 206.527 35.0074 206.077 34.5758 205.624C34.3656 205.403 34.1542 205.18 33.9452 204.956C33.9377 204.95 33.9309 204.942 33.9247 204.934C33.7582 204.756 33.5916 204.577 33.425 204.396C33.347 204.315 33.2701 204.231 33.1968 204.149C33.0262 203.965 32.8593 203.78 32.6911 203.594C32.6683 203.569 32.6442 203.543 32.6238 203.518C32.4252 203.3 32.2286 203.08 32.034 202.86C31.6192 202.394 31.21 201.924 30.8064 201.451C30.601 201.211 30.3992 200.97 30.1974 200.73C29.9956 200.49 29.7974 200.25 29.5968 200.009C29.4442 199.826 29.2941 199.641 29.1427 199.456C29.0478 199.336 28.9529 199.221 28.8604 199.105C28.7679 198.988 28.6622 198.865 28.5649 198.736C28.4676 198.608 28.3619 198.486 28.2658 198.359C28.1409 198.203 28.0172 198.046 27.8947 197.888C27.8394 197.821 27.7865 197.751 27.7361 197.684C27.5787 197.485 27.425 197.284 27.27 197.083C26.8904 196.589 26.5165 196.092 26.1481 195.593C25.9631 195.343 25.7793 195.091 25.5967 194.839C25.4442 194.632 25.294 194.421 25.1439 194.212C25.0874 194.136 25.0334 194.059 24.9817 193.983C24.8328 193.775 24.6862 193.566 24.5397 193.357C24.5168 193.326 24.4964 193.297 24.4772 193.267C24.3258 193.053 24.1757 192.837 24.0279 192.621C23.9595 192.524 23.8934 192.426 23.8298 192.33L23.4778 191.815L23.3721 191.657C23.1623 191.346 22.9545 191.033 22.7487 190.719C22.5429 190.405 22.3382 190.091 22.1348 189.778C21.8297 189.304 21.5342 188.829 21.2327 188.352C21.1326 188.192 21.0341 188.031 20.9372 187.871C20.6113 187.343 20.291 186.812 19.9763 186.278C19.9522 186.239 19.9294 186.198 19.9066 186.158C19.4573 185.395 19.0169 184.628 18.5853 183.858C18.2825 183.317 17.9842 182.773 17.6903 182.227C17.5438 181.953 17.3973 181.68 17.2531 181.405C16.8199 180.583 16.3958 179.756 15.981 178.922C15.8425 178.644 15.7055 178.364 15.5702 178.081C15.4349 177.799 15.2999 177.518 15.1654 177.241C15.0321 176.961 14.8999 176.68 14.769 176.4L14.387 175.578C14.3773 175.56 14.3692 175.542 14.363 175.523C13.9938 174.718 13.6334 173.908 13.2819 173.094C13.1474 172.78 13.0128 172.466 12.8807 172.15C12.8002 171.96 12.7209 171.769 12.6405 171.579C12.56 171.389 12.4807 171.197 12.4002 171.006C12.3197 170.815 12.2524 170.646 12.1792 170.463L12.1407 170.368C12.015 170.055 11.8901 169.741 11.766 169.424C11.7335 169.343 11.7011 169.262 11.6711 169.184C11.6086 169.027 11.551 168.867 11.4861 168.704C11.4032 168.491 11.3215 168.278 11.2458 168.067C11.1822 167.9 11.1185 167.733 11.056 167.567C10.9455 167.27 10.835 166.967 10.7269 166.675C10.6188 166.383 10.5167 166.093 10.4122 165.804C10.3401 165.602 10.2684 165.402 10.1972 165.203C10.1431 165.047 10.0879 164.89 10.035 164.735C9.95493 164.506 9.87485 164.276 9.79477 164.045C9.76354 163.955 9.73232 163.861 9.70109 163.77C9.70109 163.755 9.69028 163.739 9.68547 163.723C9.57496 163.397 9.46564 163.067 9.35753 162.739L9.34672 162.703C9.1257 162.026 8.91028 161.345 8.70047 160.661C8.59396 160.315 8.48865 159.969 8.38455 159.622C8.29566 159.324 8.20678 159.022 8.12149 158.729C8.12095 158.725 8.12095 158.722 8.12149 158.719C8.08906 158.613 8.05902 158.505 8.02779 158.397C7.94491 158.111 7.86443 157.825 7.78755 157.539C7.70346 157.236 7.62059 156.939 7.5377 156.629C7.50767 156.518 7.47644 156.408 7.44881 156.297C7.38635 156.068 7.32869 155.836 7.26382 155.605C7.22298 155.453 7.18334 155.3 7.1437 155.147C7.06442 154.846 6.98874 154.546 6.91427 154.248C6.83979 153.95 6.76291 153.647 6.68964 153.346C6.61637 153.044 6.5491 152.76 6.47943 152.464L6.43979 152.302C6.44015 152.298 6.44015 152.294 6.43979 152.29C5.97452 150.307 5.55689 148.314 5.18692 146.313L5.0572 145.602C-0.968088 112.019 6.29204 76.4456 26.1805 52.4922C78.3444 -10.3168 131.558 6.17344 146.764 30.0307C158.432 48.336 177.918 68.2893 177.918 68.2893C186.757 77.6768 202.246 84.2655 202.246 84.2655C216.855 90.5526 230.211 108.132 235.682 129.311C242.75 156.67 236.659 190.024 203.12 212.79Z" fill="#3981F6" fill-opacity="0.2"/>
<path d="M214.435 83.7961C214.435 83.7961 274.461 132.445 232.309 197.372C224.811 208.963 215.019 218.897 203.537 226.561C201.186 228.138 198.784 229.614 196.33 230.989C195.342 231.542 194.346 232.081 193.341 232.604C180.849 239.114 167.22 243.221 153.277 245.359C150.728 245.751 148.172 246.077 145.608 246.337C144.765 246.424 143.922 246.504 143.078 246.577C113.78 249.1 84.0347 243.506 61.4915 233.744C58.9594 232.648 56.5225 231.501 54.181 230.302C53.2008 229.802 52.2398 229.293 51.2981 228.775C40.0583 222.615 31.4624 215.342 26.8594 207.651" stroke="#3981F6" stroke-opacity="0.2" stroke-width="5" stroke-miterlimit="10" stroke-linecap="round"/>
<path d="M126.378 5.41212C126.378 5.41212 45.9933 -18.641 3.4187 76.1732" stroke="#3981F6" stroke-opacity="0.2" stroke-width="5" stroke-miterlimit="10" stroke-linecap="round"/>
<path d="M203.535 213.023C201.26 214.568 198.857 216.062 196.328 217.506C195.736 217.842 195.135 218.176 194.526 218.508C194.132 218.724 193.735 218.938 193.334 219.15C182.379 224.971 169.131 229.825 153.27 233.341C150.778 233.893 148.221 234.414 145.6 234.903C144.764 235.057 143.92 235.208 143.071 235.356C142.889 235.387 142.71 235.419 142.524 235.449C132.44 237.177 122.922 237.956 113.962 237.896C113.802 237.896 113.645 237.896 113.481 237.896C113.098 237.896 112.715 237.888 112.335 237.88L111.855 237.87C111.448 237.862 111.043 237.851 110.638 237.839C110.233 237.827 109.833 237.812 109.437 237.797L108.967 237.777C108.823 237.777 108.68 237.764 108.537 237.758L108.04 237.735L107.64 237.715L107.144 237.687C106.912 237.675 106.682 237.662 106.452 237.648L105.638 237.595L105.073 237.555C103.96 237.475 102.857 237.382 101.762 237.275L101.248 237.225C100.032 237.102 98.8284 236.963 97.636 236.806C97.4246 236.778 97.212 236.75 97.0005 236.72C96.7403 236.686 96.4816 236.65 96.2246 236.612C96.0456 236.587 95.8642 236.562 95.6876 236.534C95.511 236.507 95.3092 236.479 95.1218 236.45C94.4251 236.344 93.7332 236.233 93.0461 236.116L92.5116 236.025L91.7717 235.894L91.1711 235.782C90.5344 235.663 89.901 235.54 89.2707 235.412L88.6413 235.281C88.4743 235.248 88.3062 235.212 88.1392 235.176C87.3224 235.002 86.5116 234.819 85.7067 234.628L85.2262 234.508C84.1588 234.249 83.1021 233.977 82.0563 233.692C81.9133 233.655 81.7716 233.615 81.6286 233.572C81.3139 233.485 81.0004 233.395 80.6881 233.307C80.4887 233.25 80.2885 233.193 80.0875 233.134L79.4941 232.958L78.986 232.806C78.6488 232.702 78.3125 232.598 77.9769 232.492C77.6995 232.406 77.4208 232.317 77.1433 232.227L77.1061 232.215C76.9859 232.175 76.8658 232.138 76.7457 232.095C76.4898 232.012 76.234 231.926 75.9793 231.841C75.7247 231.756 75.4652 231.667 75.2081 231.577C75.082 231.535 74.9559 231.49 74.8298 231.446C74.7805 231.43 74.7337 231.413 74.6844 231.394C74.473 231.322 74.264 231.248 74.0538 231.172C74.0225 231.162 73.9901 231.149 73.9589 231.137C73.6778 231.037 73.3991 230.937 73.118 230.833C72.7661 230.704 72.4165 230.574 72.0682 230.44C71.7479 230.32 71.4323 230.198 71.1216 230.074L70.8718 229.976C70.6315 229.882 70.3973 229.788 70.1607 229.692L70.145 229.686C69.8327 229.56 69.5212 229.432 69.2105 229.304C68.9462 229.195 68.682 229.083 68.4189 228.971L68.1246 228.851C67.9404 228.771 67.7566 228.691 67.5732 228.611L67.2129 228.456C66.9726 228.349 66.7324 228.242 66.4921 228.133C65.8267 227.835 65.1664 227.53 64.5113 227.218C64.2831 227.112 64.0561 227.003 63.8303 226.892L63.4699 226.72L62.778 226.379C62.5161 226.248 62.2531 226.116 61.9936 225.983C61.9035 225.938 61.8134 225.891 61.7245 225.846L61.4915 225.726L61.0843 225.514C60.5714 225.248 60.0597 224.975 59.5539 224.699L59.1864 224.497C59.1527 224.479 59.1191 224.461 59.0855 224.44C58.8536 224.314 58.6218 224.186 58.3924 224.056C58.1125 223.899 57.8338 223.741 57.5515 223.581C57.071 223.308 56.597 223.031 56.1293 222.749C55.9911 222.667 55.8542 222.586 55.7161 222.502L55.698 222.491C55.4634 222.35 55.2308 222.208 55.0001 222.066C54.8079 221.948 54.6169 221.828 54.4272 221.705L54.2422 221.585L54.1749 221.543L53.8242 221.322C53.3693 221.034 52.9172 220.741 52.468 220.445C52.2878 220.33 52.108 220.21 51.9286 220.085L51.8602 220.039C51.7256 219.949 51.5899 219.859 51.4566 219.768C51.4001 219.732 51.3448 219.693 51.2884 219.655C51.0277 219.481 50.7695 219.303 50.51 219.123L50.4199 219.06L50.0127 218.777L49.5322 218.44L49.2163 218.216C49.0541 218.096 48.8944 217.985 48.7358 217.867C48.6157 217.781 48.4956 217.696 48.3754 217.607C48.1809 217.465 47.9867 217.322 47.7929 217.178C47.5766 217.018 47.3616 216.857 47.1478 216.697L46.8607 216.479C46.6565 216.323 46.4511 216.166 46.2469 216.008C46.0195 215.832 45.7932 215.656 45.5682 215.479C45.382 215.332 45.1959 215.185 45.0109 215.036C44.8799 214.933 44.7526 214.831 44.6241 214.726C44.3838 214.536 44.1484 214.344 43.9177 214.15C43.7292 213.997 43.543 213.842 43.358 213.688L43.1754 213.535C42.964 213.357 42.7526 213.174 42.5436 212.999C42.3346 212.823 42.1243 212.638 41.9153 212.459C41.7952 212.351 41.6631 212.242 41.5382 212.129C41.4132 212.016 41.2739 211.899 41.143 211.782C40.6553 211.35 40.172 210.914 39.6931 210.474C39.5465 210.339 39.4008 210.204 39.2559 210.068C39.1357 209.959 39.0156 209.846 38.8955 209.733C38.7754 209.62 38.6637 209.516 38.5495 209.406C38.4354 209.295 38.3189 209.189 38.2036 209.077L37.7567 208.647C37.6666 208.56 37.5778 208.474 37.4877 208.384C37.3195 208.219 37.1501 208.053 36.9819 207.886C36.9675 207.872 36.9507 207.856 36.9351 207.84C36.7237 207.631 36.5123 207.418 36.3021 207.207C35.8592 206.76 35.422 206.31 34.9903 205.856C34.7801 205.635 34.5687 205.412 34.3597 205.189C34.3523 205.182 34.3454 205.175 34.3393 205.167C34.1727 204.988 34.0062 204.809 33.8396 204.629C33.7615 204.547 33.6846 204.463 33.6114 204.381C33.4408 204.198 33.2738 204.013 33.1056 203.826C33.0828 203.801 33.0588 203.776 33.0384 203.751C32.8398 203.532 32.6432 203.313 32.4486 203.092C32.0338 202.626 31.6245 202.157 31.2209 201.683C31.0155 201.443 30.8137 201.203 30.6119 200.963C30.4101 200.722 30.2119 200.482 30.0113 200.242C29.8588 200.058 29.7086 199.873 29.5573 199.688C29.4624 199.568 29.3675 199.454 29.275 199.337C29.1825 199.221 29.0768 199.097 28.9795 198.969C28.8822 198.84 28.7765 198.719 28.6804 198.591C28.5554 198.435 28.4317 198.278 28.3092 198.121C28.2539 198.053 28.2011 197.984 28.1506 197.916C27.9933 197.717 27.8395 197.516 27.6846 197.316C27.305 196.822 26.931 196.325 26.5626 195.825C26.3776 195.575 26.1939 195.323 26.0113 195.072C25.8587 194.864 25.7086 194.654 25.5584 194.445C25.502 194.368 25.4479 194.291 25.3963 194.215C25.2473 194.008 25.1008 193.799 24.9542 193.59C24.9314 193.558 24.911 193.53 24.8917 193.5C24.7404 193.286 24.5902 193.069 24.4425 192.853C24.374 192.756 24.308 192.659 24.2443 192.563L23.8923 192.047L23.7866 191.89C23.5768 191.578 23.369 191.266 23.1632 190.952C22.9574 190.638 22.7528 190.324 22.5494 190.01C22.2443 189.537 21.9488 189.061 21.6473 188.584C21.5472 188.424 21.4487 188.264 21.3518 188.104C21.0258 187.575 20.7055 187.044 20.3908 186.511C20.3668 186.471 20.344 186.43 20.3211 186.391C19.8719 185.628 19.4314 184.861 18.9998 184.09C18.6971 183.549 18.3988 183.005 18.1049 182.459C17.9583 182.185 17.8118 181.913 17.6677 181.638C17.2344 180.816 16.8104 179.988 16.3956 179.155C16.257 178.877 16.1201 178.596 15.9848 178.314C15.8494 178.031 15.7145 177.751 15.58 177.473C15.4466 177.193 15.3145 176.912 15.1835 176.632L14.8016 175.81C14.7918 175.793 14.7838 175.774 14.7775 175.755C14.4084 174.95 14.048 174.141 13.6964 173.326C13.5619 173.013 13.4274 172.698 13.2952 172.382C13.2148 172.192 13.1355 172.001 13.055 171.812C12.9745 171.622 12.8952 171.43 12.8148 171.239C12.7343 171.048 12.667 170.878 12.5937 170.696L12.5553 170.601C12.4296 170.288 12.3046 169.973 12.1805 169.657C12.1481 169.575 12.1156 169.495 12.0856 169.416C12.0232 169.259 11.9655 169.099 11.9006 168.936C11.8178 168.723 11.7361 168.511 11.6604 168.299C11.5967 168.132 11.5331 167.965 11.4706 167.8C11.3601 167.503 11.2496 167.199 11.1415 166.907C11.0334 166.615 10.9313 166.326 10.8267 166.036C10.7547 165.834 10.683 165.634 10.6117 165.436C10.5577 165.279 10.5024 165.122 10.4496 164.967C10.3695 164.738 10.2894 164.508 10.2093 164.278C10.1781 164.188 10.1469 164.094 10.1156 164.003C10.1156 163.987 10.1048 163.971 10.1 163.956C9.98951 163.629 9.88019 163.3 9.77208 162.972L9.76127 162.936C9.54025 162.258 9.32483 161.578 9.11502 160.894C9.00851 160.548 8.9032 160.202 8.7991 159.855C8.71021 159.557 8.62133 159.254 8.53604 158.961C8.5355 158.958 8.5355 158.955 8.53604 158.951C8.50361 158.846 8.47357 158.738 8.44234 158.63C8.35946 158.344 8.27898 158.058 8.2021 157.772C8.11801 157.468 8.03514 157.171 7.95225 156.861C7.92222 156.751 7.89099 156.64 7.86336 156.53C7.8009 156.3 7.74324 156.069 7.67837 155.838C7.63753 155.685 7.59789 155.533 7.55825 155.379C7.47897 155.079 7.40329 154.778 7.32882 154.481C7.25434 154.183 7.17746 153.88 7.10419 153.578C7.03092 153.277 6.96365 152.992 6.89398 152.697L6.85434 152.535C6.8547 152.531 6.8547 152.527 6.85434 152.523C6.38907 150.539 5.97145 148.547 5.60147 146.545L5.47175 145.834C-0.553537 112.252 6.70659 76.678 26.5951 52.7246C26.5951 52.7246 94.2053 175.44 236.087 129.539C243.164 156.902 237.074 190.256 203.535 213.023Z" fill="#3981F6" fill-opacity="0.2"/>
<path d="M103.307 54.7906L112.221 54.5624L112.047 53.9678L103.1 54.4963L103.307 54.7906Z" fill="black"/>
<path d="M20.3298 160.455V186.401C19.8806 185.638 19.4401 184.872 19.0085 184.101C18.7058 183.56 18.4075 183.016 18.1136 182.47C17.9671 182.196 17.8205 181.923 17.6764 181.648C17.2431 180.827 16.8191 179.999 16.4043 179.165C16.2657 178.887 16.1288 178.607 15.9935 178.325C15.8581 178.042 15.7232 177.762 15.5887 177.484C15.4553 177.204 15.3232 176.923 15.1922 176.643L14.8103 175.821C14.8005 175.804 14.7925 175.785 14.7862 175.766C14.4171 174.961 14.0567 174.151 13.7051 173.337C13.5706 173.024 13.4361 172.709 13.3039 172.393C13.2235 172.203 13.1442 172.012 13.0637 171.822C12.9832 171.633 12.9039 171.44 12.8235 171.249C12.743 171.058 12.6757 170.889 12.6024 170.706L12.564 170.612C12.4383 170.298 12.3133 169.984 12.1892 169.667C12.1568 169.586 12.1244 169.505 12.0943 169.427C12.0319 169.27 11.9742 169.11 11.9093 168.947C11.8265 168.734 11.7448 168.521 11.6691 168.31C11.6054 168.143 11.5418 167.976 11.4793 167.81C11.3688 167.514 11.2583 167.21 11.1502 166.918C11.0421 166.626 10.94 166.336 10.8355 166.047C10.7634 165.845 10.6917 165.645 10.6204 165.446H10.1292V160.453L20.3298 160.455Z" fill="#271008"/>
<path d="M20.3298 173.343V186.398C19.8805 185.635 19.4401 184.868 19.0084 184.098C18.7057 183.556 18.4074 183.012 18.1135 182.466C17.967 182.192 17.8204 181.92 17.6763 181.645C17.2431 180.823 16.819 179.995 16.4042 179.162C16.2657 178.884 16.1287 178.604 15.9934 178.321C15.8581 178.038 15.7231 177.758 15.5886 177.48C15.4553 177.2 15.3231 176.919 15.1922 176.639L14.8102 175.818C14.8005 175.8 14.7924 175.781 14.7862 175.762C14.417 174.958 14.0566 174.148 13.7051 173.333L20.3298 173.343Z" fill="#7A402A"/>
<path d="M61.487 160.455V225.717L61.0798 225.506C60.5669 225.239 60.0552 224.966 59.5495 224.69L59.1819 224.488C59.1483 224.47 59.1146 224.452 59.081 224.432C58.8492 224.306 58.6173 224.177 58.3879 224.048C58.108 223.89 57.8293 223.733 57.5471 223.573C57.0666 223.3 56.5925 223.022 56.1248 222.741C55.9867 222.659 55.8497 222.577 55.7116 222.493L55.6936 222.482C55.4589 222.341 55.2263 222.2 54.9957 222.057C54.8035 221.939 54.6125 221.819 54.4227 221.697L54.2377 221.577L54.1705 221.535L53.8197 221.314C53.3648 221.025 52.9128 220.733 52.4635 220.437C52.2833 220.321 52.1036 220.201 51.9242 220.076L51.8557 220.031C51.7212 219.941 51.5854 219.85 51.4521 219.759C51.3957 219.723 51.3404 219.685 51.2839 219.646V160.455H61.487Z" fill="#271008"/>
<path d="M61.4866 166.871V225.717L61.0794 225.506C60.5665 225.239 60.0548 224.967 59.5491 224.69L59.1815 224.488C59.1479 224.47 59.1142 224.452 59.0806 224.432C58.8488 224.306 58.6169 224.177 58.3875 224.048C58.1076 223.89 57.8289 223.733 57.5467 223.573C57.0662 223.3 56.5921 223.023 56.1244 222.741C55.9863 222.659 55.8493 222.577 55.7112 222.493L55.6932 222.482C55.4585 222.342 55.2259 222.2 54.9953 222.057C54.8031 221.939 54.6121 221.819 54.4223 221.697L54.2373 221.577L54.17 221.535V166.871H61.4866Z" fill="#7A402A"/>
<path d="M203.536 159.802H10.1315V165.447H203.536V159.802Z" fill="#271008"/>
<path d="M203.535 160.455V213.023C201.26 214.568 198.857 216.062 196.328 217.506C195.736 217.842 195.135 218.176 194.526 218.508C194.132 218.724 193.735 218.938 193.334 219.15V160.455H203.535Z" fill="#6B4C38"/>
<path d="M203.535 167.707V213.023C201.26 214.568 198.858 216.062 196.328 217.506V167.707H203.535Z" fill="#84614E"/>
<path d="M203.536 159.802H54.1776V165.447H203.536V159.802Z" fill="#7A402A"/>
<path fill-rule="evenodd" clip-rule="evenodd" d="M45.4446 152.792H133.09C135.594 152.792 137.389 150.742 137.082 148.238L130.096 91.4686C129.787 88.9641 127.486 86.916 124.982 86.916H37.3376C34.8331 86.916 33.0361 88.9581 33.3436 91.4686L40.331 148.238C40.6397 150.742 42.9401 152.792 45.4446 152.792Z" fill="#003D47"/>
<path fill-rule="evenodd" clip-rule="evenodd" d="M133.09 152.791H48.0297C45.5263 152.791 43.2248 150.742 42.9173 148.238L41.3401 135.452L35.9347 91.4686C35.6271 88.9653 37.4242 86.916 39.9275 86.916H124.987C126.159 86.9312 127.29 87.3499 128.19 88.1016C129.231 88.9386 129.914 90.1417 130.098 91.465L137.083 148.234C137.39 150.742 135.593 152.791 133.09 152.791Z" fill="#128396"/>
<path d="M137.593 151.051H46.409C45.4484 151.051 44.6697 151.83 44.6697 152.79V152.792C44.6697 153.752 45.4484 154.531 46.409 154.531H137.593C138.554 154.531 139.332 153.752 139.332 152.792V152.79C139.332 151.83 138.554 151.051 137.593 151.051Z" fill="#00000F"/>
<path fill-rule="evenodd" clip-rule="evenodd" d="M157.728 159.751H48.1499C47.2266 159.75 46.3417 159.382 45.6888 158.729C45.0359 158.076 44.6683 157.191 44.6664 156.268C44.668 155.345 45.0355 154.459 45.6884 153.806C46.3414 153.154 47.2265 152.786 48.1499 152.784H157.728C158.652 152.786 159.537 153.154 160.19 153.806C160.843 154.459 161.21 155.345 161.212 156.268C161.21 157.191 160.842 158.076 160.189 158.729C159.536 159.382 158.651 159.75 157.728 159.751Z" fill="#003D47"/>
<path fill-rule="evenodd" clip-rule="evenodd" d="M157.728 159.752H48.1499C47.559 159.751 46.9782 159.6 46.4619 159.312C45.9456 159.025 45.5108 158.611 45.1985 158.11C45.5117 157.609 45.9468 157.196 46.463 156.91C46.9791 156.623 47.5595 156.472 48.1499 156.471H157.728C158.318 156.472 158.899 156.623 159.415 156.909C159.931 157.196 160.366 157.609 160.678 158.11C160.366 158.611 159.931 159.025 159.415 159.312C158.899 159.599 158.319 159.751 157.728 159.752Z" fill="#01292B"/>
<path fill-rule="evenodd" clip-rule="evenodd" d="M75.6285 159.751H49.2739C46.743 159.751 44.6697 158.19 44.6697 156.268C44.6697 154.353 46.743 152.784 49.2739 152.784H75.6285C78.1619 152.784 80.234 154.346 80.234 156.268C80.234 158.185 78.1619 159.751 75.6285 159.751Z" fill="#12889B"/>
<path opacity="0.57" fill-rule="evenodd" clip-rule="evenodd" d="M132.861 147.34H47.0328L40.3396 91.8335H126.166L132.861 147.34Z" fill="#3981F6" fill-opacity="0.2"/>
<path opacity="0.19" fill-rule="evenodd" clip-rule="evenodd" d="M133.09 152.79H48.0296C45.5263 152.79 43.2248 150.742 42.9173 148.238L41.3401 135.452L45.3329 133.276L121.337 91.8337L128.184 88.1016C129.225 88.9386 129.908 90.1417 130.092 91.465L137.077 148.234C137.39 150.742 135.593 152.79 133.09 152.79Z" fill="#3981F6" fill-opacity="0.2"/>
<path d="M84.0647 71.9141L100.544 73.4973C100.964 73.805 101.316 74.1967 101.577 74.6474C101.839 75.0982 102.003 75.5982 102.061 76.1159C102.287 77.9177 83.5626 77.239 83.4821 75.2162C83.4016 73.1934 84.0647 71.9141 84.0647 71.9141Z" fill="#77120A"/>
<path d="M110.914 47.8478C109.986 42.369 106.95 41.7684 106.95 41.7684L106.782 50.3775L95.581 56.2635L87.0524 67.1308L82.4998 66.9062C82.4998 66.9062 83.8487 65.7266 81.4042 62.8029C79.9087 61.0155 77.8463 54.9085 78.4949 48.9889C78.9069 45.2291 80.4168 41.5414 83.8487 39.0873C92.7017 32.7653 101.048 36.3053 101.048 36.3053C112.347 35.1149 110.914 47.8478 110.914 47.8478Z" fill="#423A68"/>
<path d="M95.582 56.256L87.0533 67.1234L82.5007 66.8987C82.5007 66.8987 83.8497 65.7191 81.4052 62.7954C79.9097 61.008 77.8472 54.901 78.4959 48.9814C86.0491 56.3569 94.3855 50.37 94.3855 50.37C94.3855 50.37 95.1543 51.5052 95.582 56.256Z" fill="#24213E"/>
<path d="M109.65 61.3351C107.626 65.382 104.656 68.8355 100.722 69.3977C100.722 69.3977 99.4213 75.2175 99.927 75.7233C100.433 76.229 104.759 76.9028 104.759 76.9028C104.759 76.9028 104.029 85.3341 98.1841 85.3341C92.339 85.3341 79.2433 82.8044 80.0866 79.8266C80.9298 76.8488 86.9996 72.0704 87.0536 67.1238C87.1077 62.1772 86.3221 59.9862 86.3221 59.9862C85.6986 59.6655 85.1722 59.1841 84.7973 58.5917C84.4225 57.9993 84.2128 57.3174 84.1899 56.6168C84.0878 54.3993 86.8326 51.7278 89.3924 54.4474C89.7207 54.8019 90.0114 55.1896 90.2597 55.6041C90.2597 55.6041 90.7654 56.5038 91.384 55.2678C91.9077 54.2155 94.5071 52.4341 94.6273 49.2617C94.6391 48.9675 94.6291 48.6728 94.5972 48.38C94.599 48.3617 94.599 48.3432 94.5972 48.3248C94.5972 48.2839 94.5888 48.2431 94.5816 48.2047C94.5816 48.183 94.5816 48.159 94.572 48.1362C94.5648 48.0809 94.5564 48.0257 94.5468 47.9692C94.5372 47.9128 94.5312 47.8755 94.5192 47.8263C94.5071 47.777 94.4987 47.717 94.4867 47.6617C94.4747 47.6065 94.4555 47.5236 94.4387 47.4539C94.4387 47.4539 96.9612 47.2257 97.6303 51.6581C97.7091 52.2016 97.7576 52.749 97.7756 53.2978C97.7756 53.2978 99.8574 51.4203 99.1234 47.6617C98.9637 46.8768 98.7192 46.1115 98.3943 45.3794C98.3943 45.3794 101.277 44.4809 101.951 49.2029C102.016 49.6854 102.056 50.1709 102.071 50.6575C102.071 50.6575 103.582 46.5446 102.099 43.825C101.963 43.5776 101.802 43.3445 101.618 43.1295C101.618 43.1295 104.439 43.4899 105.084 47.4011C105.177 47.9773 105.221 48.5604 105.215 49.144C105.215 49.144 107.477 45.3073 105.769 41.9824C105.432 41.3323 104.978 40.7499 104.43 40.2646C104.55 40.2851 108.576 41.037 109.248 47.4359C109.277 47.7122 109.301 47.9993 109.317 48.296C109.706 55.6017 111.672 57.2882 109.65 61.3351Z" fill="#F6A276"/>
<path d="M89.606 56.7439C89.4304 56.414 89.2078 56.1114 88.9453 55.8454C88.6843 55.5733 88.3858 55.3399 88.0588 55.1523C87.7277 54.9635 87.3629 54.8411 86.9849 54.7919C86.6101 54.7438 86.2292 54.7875 85.875 54.9193C86.2351 54.8741 86.6002 54.8874 86.9561 54.9589C87.1303 54.9957 87.3011 55.0471 87.4666 55.1127C87.6325 55.1765 87.7931 55.2532 87.9471 55.3421C88.26 55.5212 88.5542 55.7313 88.8252 55.9691C89.1023 56.2098 89.3631 56.4687 89.606 56.7439Z" fill="#DC6350"/>
<path d="M86.3207 56.1732C86.4408 56.0531 86.5609 55.9438 86.681 55.8381C86.7998 55.736 86.925 55.6417 87.0558 55.5558C87.1851 55.4714 87.3228 55.4005 87.4666 55.3444C87.6185 55.2873 87.7743 55.2411 87.9327 55.2062C87.7671 55.1564 87.5919 55.1477 87.4222 55.181C87.2507 55.2128 87.0874 55.2785 86.9417 55.3744C86.7966 55.4684 86.6682 55.5862 86.5621 55.7227C86.4519 55.855 86.3698 56.0082 86.3207 56.1732Z" fill="#DC6350"/>
<path d="M100.722 76.0761C100.722 76.0761 101.725 79.3818 99.195 79.6341C96.6653 79.8863 84.5535 81.3386 84.9186 72.7307L82.276 76.3067C82.276 76.3067 78.9606 81.6581 87.8136 83.9344C96.6665 86.2107 102.435 89.3291 103.344 83.9344C104.253 78.5398 100.722 76.0761 100.722 76.0761Z" fill="#DC6350"/>
<path d="M100.722 69.3973C100.722 69.3973 96.1044 69.5967 92.5633 66.2742C92.5633 66.2742 92.0576 66.2742 92.5633 67.5102C93.069 68.7463 96.7206 72.446 100.178 72.1145L100.722 69.3973Z" fill="#DC6350"/>
<path opacity="0.59" d="M109.242 47.431C108.376 44.4196 106.863 42.8003 105.759 41.9775C105.422 41.3274 104.969 40.7451 104.421 40.2598C104.55 40.2802 108.57 41.0321 109.242 47.431Z" fill="#DC6350"/>
<path opacity="0.59" d="M104.029 49.475C104.454 47.0509 103.181 45.2191 102.091 43.8293C101.955 43.5818 101.794 43.3488 101.611 43.1338C101.611 43.1338 104.431 43.4942 105.076 47.4053C104.794 48.1269 104.443 48.82 104.029 49.475Z" fill="#DC6350"/>
<path opacity="0.59" d="M101.938 49.2003C101.803 49.8897 101.602 50.5644 101.337 51.2148C101.252 49.9391 100.169 48.6369 99.116 47.6604C98.9563 46.8754 98.7118 46.1102 98.3868 45.3781C98.3868 45.3781 101.263 44.4844 101.938 49.2003Z" fill="#DC6350"/>
<path opacity="0.59" d="M96.8928 53.6896C96.9361 53.5496 96.9576 53.4037 96.9565 53.2572C96.9565 52.8271 96.7931 52.3394 96.5312 51.8349C96.4507 51.68 96.3594 51.5226 96.2609 51.364C95.9955 50.9676 95.557 50.4944 95.0741 50.6938C94.2862 51.0205 93.1258 55.6404 91.5522 56.0884C89.9786 56.5365 89.39 54.4452 89.39 54.4452C89.7183 54.7997 90.009 55.1874 90.2573 55.6019C90.2573 55.6019 90.763 56.5016 91.3816 55.2656C91.9053 54.2133 94.5048 52.4319 94.6249 49.2595C94.6367 48.9653 94.6267 48.6706 94.5949 48.3778C94.5949 48.3598 94.5949 48.3406 94.5877 48.3226C94.5877 48.2817 94.5793 48.2409 94.572 48.2025C94.572 48.1808 94.572 48.1568 94.5624 48.134C94.5552 48.0787 94.5468 48.0235 94.5372 47.967C94.5276 47.9106 94.5216 47.8733 94.5096 47.8241C94.4976 47.7748 94.4892 47.7148 94.4771 47.6595C94.4651 47.6042 94.4459 47.5214 94.4291 47.4517C94.4291 47.4517 96.9517 47.2235 97.6207 51.6559C97.4552 52.359 97.211 53.0412 96.8928 53.6896Z" fill="#DC6350"/>
<path d="M112.01 121.754C111.785 135.017 110.549 142.323 110.549 142.323C110.549 142.323 101.531 144.966 92.7233 145.058C88.4326 145.102 84.1947 144.541 81.0715 142.776C71.5447 137.38 81.0715 75.4998 81.0715 75.4998C81.0715 75.4998 96.2465 86.5725 104.761 76.9052C104.761 76.9052 105.635 80.6001 106.777 85.9948C108.969 96.366 112.158 113.026 112.01 121.754Z" fill="#F2B342"/>
<path d="M112.01 121.753C111.785 135.017 110.549 142.323 110.549 142.323C110.549 142.323 101.53 144.965 92.723 145.058C89.7861 144.044 87.0101 143.023 84.6929 142.317C73.7931 138.994 82.4407 95.0563 85.5806 100.929C88.7206 106.802 98.263 101.823 101.242 99.5308C104.221 97.2389 102.356 83.3145 102.356 83.3145C102.356 83.3145 104.107 83.706 106.776 85.9968C108.968 96.3656 112.157 113.025 112.01 121.753Z" fill="#E08B03"/>
<path d="M113.368 147.34H79.8544C80.5751 145.856 81.6886 144.62 82.8838 143.625C83.9839 142.725 85.1805 141.951 86.4514 141.315C87.1185 140.971 87.8065 140.669 88.5115 140.412C88.5115 140.412 96.3795 140.638 105.879 138.61C106.31 138.517 106.748 138.457 107.188 138.432C108.794 138.348 109.999 138.836 110.897 139.716C112.536 141.319 113.172 144.212 113.368 147.34Z" fill="#24213E"/>
<path d="M87.1734 95.8661L97.3405 109.642L98.0997 108.891L87.9734 95.2739C87.9338 95.2206 87.884 95.1757 87.8268 95.142C87.7695 95.1082 87.7062 95.0863 87.6403 95.0774C87.5745 95.0686 87.5075 95.073 87.4434 95.0905C87.3793 95.1079 87.3194 95.138 87.2671 95.179C87.1654 95.259 87.0987 95.3754 87.0812 95.5036C87.0637 95.6319 87.0968 95.7618 87.1734 95.8661Z" fill="#24213E"/>
<path d="M97.7622 107.028L97.5845 108.199L97.3719 109.612L95.6541 120.938H86.1285L86.1381 121.365C86.1381 121.428 86.1381 121.499 86.1381 121.577V121.74C86.1477 122.116 86.1597 122.615 86.1717 123.218V123.503V123.542V123.652L86.1778 123.927V124.059C86.1934 124.835 86.2126 125.741 86.2318 126.732C86.2799 129.18 86.3327 132.215 86.3736 135.452C86.4 137.362 86.4216 139.343 86.436 141.315C86.4456 142.417 86.4516 143.515 86.4552 144.597C86.4552 145.527 86.4552 146.446 86.4552 147.341H64.9103L66.819 128.682L67.4196 122.877C67.4196 122.877 54.6868 123.607 54.6868 114.949C54.6868 109.36 56.9282 99.8724 59.6538 91.8303C62.1079 84.587 64.9535 78.5161 66.9115 77.5178C70.7218 75.5731 80.6282 74.2037 82.1429 74.0019L82.3387 73.9767C82.4447 73.8674 82.5605 73.7681 82.6846 73.68C83.0102 73.453 83.4582 73.2932 83.5195 74.0728C83.5301 74.2606 83.5252 74.4491 83.5051 74.6361C83.5062 74.6557 83.5062 74.6754 83.5051 74.695C83.4943 74.8055 83.4907 74.9737 83.4931 75.1947V75.2079C83.4991 75.6416 83.5303 76.2734 83.5819 77.065C83.6696 78.4272 83.8222 80.2566 83.9976 82.3503C84.012 82.5365 84.0288 82.7251 84.0444 82.9149C84.2786 85.6332 84.5609 88.7456 84.8324 91.8243C85.0726 94.5486 85.3057 97.2478 85.4907 99.6238C85.5267 100.067 85.5591 100.501 85.5916 100.92C85.8006 103.751 85.9255 105.982 85.8871 107.018L97.7622 107.028Z" fill="white"/>
<path d="M75.6744 92.533C75.6744 92.533 71.5434 108.214 71.965 108.13C72.3867 108.045 85.8751 107.034 85.8751 107.034L84.1838 72.1712C84.1782 72.0978 84.1503 72.0278 84.1038 71.9707C84.0573 71.9136 83.9945 71.8721 83.9237 71.8518C83.8529 71.8315 83.7776 71.8334 83.7079 71.8573C83.6382 71.8811 83.5775 71.9256 83.5339 71.985C81.6949 74.6433 76.257 82.5557 76.2221 83.2596C76.1801 84.1005 80.8168 87.1383 80.9069 87.9816C80.997 88.8248 78.5993 95.8219 78.9104 96.7504C79.2216 97.679 85.3742 106.462 84.4 106.462C83.9195 106.462 73.2719 108.17 73.2287 107.035C73.1494 104.579 77.6167 90.9257 75.6744 92.533Z" fill="#FBD4CD"/>
<path d="M83.623 72.1411L76.8313 83.1923C76.8313 83.1923 81.2337 86.283 81.9965 87.4626C81.9965 87.4626 80.2259 96.3155 79.6361 96.5678C79.6361 96.5678 85.3683 105.083 85.874 107.018C85.8752 107.028 84.2728 75.9129 83.623 72.1411Z" fill="white"/>
<path d="M71.9709 108.123C71.9709 108.123 68.0934 108.798 63.6249 111.327C63.6249 111.327 64.8777 108.564 72.2123 106.455L71.9709 108.123Z" fill="#FBD4CD"/>
<path d="M67.4124 122.877L86.1285 120.938L86.1981 124.058L66.819 128.682L67.4124 122.877Z" fill="#FBD4CD"/>
<path d="M121.912 118.274C121.9 119.075 121.887 119.876 121.871 120.677C121.863 121.056 121.853 121.436 121.843 121.814C121.817 122.856 121.788 123.889 121.754 124.914C121.731 125.579 116.985 124.156 116.959 124.814C116.893 126.517 117.566 131.873 117.824 134.122C118.456 139.638 118.571 142.749 118.692 147.345H107.491C107.447 145.99 107.401 144.582 107.353 143.141C107.3 141.606 107.247 140.032 107.193 138.44C107.159 137.451 107.125 136.454 107.09 135.457C106.776 126.474 106.435 117.423 106.165 112.204C106.105 111.053 106.015 109.808 105.897 108.497C105.648 105.715 105.284 102.629 104.86 99.4875C104.79 98.963 104.718 98.4365 104.644 97.9079C104.361 95.8755 104.057 93.8322 103.749 91.8454C103.414 89.6832 103.073 87.5823 102.747 85.6327C102.614 84.8319 102.483 84.0615 102.356 83.3216C102.116 81.897 101.883 80.5852 101.677 79.4285C101.493 78.3966 101.328 77.4885 101.189 76.7293C101.171 76.6272 101.152 76.5275 101.134 76.4302C101.116 76.3329 101.104 76.2657 101.09 76.19C100.859 74.9383 100.722 74.2224 100.722 74.2224C100.722 74.2224 100.912 74.2705 101.253 74.3618L101.412 74.405L102.021 74.5756L102.381 74.6777C106.247 75.7936 115.714 78.8555 118.027 82.6381C119.202 84.5601 120.069 87.7949 120.676 91.8502C120.955 93.7133 121.184 95.7506 121.365 97.9127C121.408 98.4325 121.448 98.959 121.485 99.4923C121.895 105.234 122.002 111.771 121.912 118.274Z" fill="white"/>
<path d="M101.242 74.2739L106.512 108.736L112.015 94.9132C112.015 94.9132 108.411 91.7744 108.3 90.8891L110.771 84.2824C110.771 84.2824 105.742 77.0571 102.997 74.913L101.242 74.2739Z" fill="#FBD4CD"/>
<path d="M100.544 73.4969L105.897 108.493L111.223 95.1128C111.223 95.1128 107.346 91.8791 107.233 90.995L110.155 84.04C110.155 84.04 100.544 71.5534 100.544 73.4969Z" fill="white"/>
<path d="M115.972 94.4667V104.836H117.49C117.49 104.836 118.079 92.3586 115.972 94.4667Z" fill="#FBD4CD"/>
<path d="M81.8691 134.423C82.1062 134.744 82.416 135.005 82.7732 135.184C83.1304 135.363 83.5248 135.455 83.9243 135.452H112.143C112.601 135.452 113.05 135.329 113.444 135.097C113.838 134.864 114.163 134.531 114.385 134.131L132.414 101.698C132.631 101.308 132.742 100.868 132.737 100.421C132.732 99.9743 132.61 99.5369 132.384 99.1519C132.157 98.7669 131.834 98.4477 131.447 98.2259C131.059 98.0042 130.62 97.8876 130.173 97.8877H101.955C101.497 97.888 101.048 98.0107 100.654 98.243C100.26 98.4753 99.9349 98.8089 99.7131 99.209L81.6829 131.642C81.4404 132.073 81.329 132.566 81.362 133.06C81.3951 133.554 81.5713 134.027 81.8691 134.423Z" fill="#3C385B"/>
<path d="M81.8689 134.423C82.106 134.744 82.4159 135.005 82.773 135.184C83.1302 135.363 83.5247 135.455 83.9242 135.452H112.143C112.601 135.452 113.05 135.329 113.444 135.097C113.838 134.864 114.163 134.531 114.385 134.131L132.414 101.698C132.604 101.361 132.714 100.985 132.736 100.598C132.758 100.212 132.691 99.8251 132.541 99.4685H104.472C103.654 99.4682 102.85 99.6845 102.143 100.096C101.435 100.507 100.849 101.098 100.444 101.808L81.8701 134.413L81.8689 134.423Z" fill="#24213E"/>
<path d="M118.5 118.147C118.061 118.463 117.651 118.817 117.277 119.207C116.78 119.753 115.165 119.878 115.091 121.393C115.016 122.908 114.595 124.373 115.091 125.237C115.587 126.101 115.571 129.535 116.786 129.802L119.068 125.357L118.5 118.147Z" fill="#101023"/>
<path d="M124.824 119.987C124.824 119.987 121.054 117.224 119.265 117.767C117.477 118.31 117.824 119.953 117.824 119.953C117.824 119.953 116.035 119.655 115.588 120.794C115.141 121.933 116.681 123.196 116.681 123.196C116.681 123.196 115.48 123.719 115.507 124.612C115.533 125.506 118.022 126.699 118.022 126.699C118.022 126.699 116.684 127.352 117.129 128.466C117.575 129.579 120.904 128.984 120.406 127.444C120.406 127.444 122.94 126.897 122.493 124.961C122.493 124.961 124.548 125.227 124.331 122.377C124.331 122.387 126.866 121.691 124.824 119.987Z" fill="#F6A276"/>
<path d="M117.838 119.927C118.425 120.024 119.003 120.17 119.567 120.363C120.118 120.548 120.656 120.75 121.181 120.97C121.707 121.191 122.225 121.42 122.743 121.655L123.52 122.015C123.649 122.073 123.782 122.126 123.916 122.191C123.983 122.218 124.051 122.241 124.12 122.269C124.19 122.297 124.26 122.325 124.332 122.359V122.419C123.744 122.404 123.162 122.302 122.603 122.118C122.043 121.949 121.493 121.752 120.953 121.528C120.413 121.299 119.882 121.056 119.359 120.799C119.097 120.67 118.836 120.539 118.577 120.403C118.317 120.268 118.064 120.127 117.81 119.982L117.838 119.927Z" fill="#DC6350"/>
<path d="M116.693 123.178C117.217 123.203 117.737 123.279 118.245 123.404C118.739 123.524 119.22 123.661 119.687 123.818C120.154 123.976 120.619 124.154 121.079 124.337C121.539 124.521 121.99 124.724 122.489 124.938V124.998C121.977 124.993 121.467 124.927 120.97 124.802C120.47 124.691 119.98 124.545 119.496 124.385C119.012 124.226 118.535 124.041 118.063 123.848C117.823 123.752 117.592 123.654 117.359 123.553C117.126 123.452 116.894 123.343 116.665 123.231L116.693 123.178Z" fill="#DC6350"/>
<path d="M118.035 126.682C118.263 126.593 118.505 126.546 118.75 126.544C118.953 126.542 119.156 126.571 119.351 126.631C119.546 126.692 119.732 126.782 119.901 126.898C120.104 127.038 120.278 127.217 120.412 127.424L120.4 127.483L120.09 127.431C119.988 127.41 119.886 127.389 119.784 127.364C119.58 127.317 119.377 127.263 119.175 127.206C118.973 127.148 118.778 127.071 118.583 126.995C118.484 126.957 118.387 126.919 118.291 126.875C118.195 126.832 118.102 126.784 118.009 126.734L118.035 126.682Z" fill="#DC6350"/>
<path d="M86.979 81.0623C86.979 81.0623 92.7256 83.8058 100.033 81.7361" stroke="#F48500" stroke-width="5" stroke-miterlimit="10" stroke-linecap="round"/>
<path d="M250.592 67.8358C250.592 67.8358 249.13 66.5985 247.294 68.5097C245.459 70.4208 244.071 77.6149 246.433 79.4131C248.794 81.2113 255.202 69.4838 253.963 68.4352C252.725 67.3865 250.592 67.8358 250.592 67.8358Z" fill="#1C1D31"/>
<path d="M238.143 264.372H239.524C239.309 239.686 237.857 196.864 230.546 188.403L226.221 191.406C231.429 197.431 237.778 222.107 238.143 264.372Z" fill="#A39790"/>
<path d="M271.928 264.372H273.414C271.06 240.05 265.818 197.86 257.146 189.522L252.713 192.484C258.88 198.418 267.898 222.729 271.928 264.372Z" fill="#A39790"/>
<path d="M187.418 264.372H185.932C188.287 240.05 193.529 197.86 202.2 189.522L206.635 192.484C200.465 198.418 191.448 222.729 187.418 264.372Z" fill="#EAD1CA"/>
<path d="M263.188 196.857H196.222V202.205H263.188V196.857Z" fill="#A39790"/>
<path d="M228.865 196.857H196.222V202.205H228.865V196.857Z" fill="#EAD1CA"/>
<path d="M223.794 264.372H222.293C222.534 239.686 224.102 196.864 232.046 188.403L236.739 191.406C231.086 197.431 224.19 222.107 223.794 264.372Z" fill="#C1B4AE"/>
<path d="M196.316 195.365H233.467L233.043 201.146L196.316 200.713V195.365Z" fill="#A39790"/>
<path d="M236.317 183.073C238.315 168.102 233.434 95.9153 240.587 91.5693C243.47 89.8132 282.371 89.7026 284.237 89.3303C286.102 88.9579 291.3 89.6029 292.444 94.1808C294.683 103.135 271.332 194.494 264.244 198.971C260.006 198.971 245.17 197.179 227.895 199.479C233.091 194.981 236.228 189.283 236.317 183.073Z" fill="#F9CDB7"/>
<path opacity="0.4" d="M236.317 183.073C238.315 168.102 233.434 95.9153 240.588 91.5693C243.47 89.8132 282.372 89.7026 284.237 89.3303C286.103 88.9579 291.3 89.6029 292.444 94.1808C294.683 103.135 271.333 194.494 264.244 198.971C260.006 198.971 245.17 197.179 227.896 199.479C233.091 194.981 236.228 189.283 236.317 183.073Z" fill="url(#paint0_linear_1133_4240)"/>
<g opacity="0.7">
<path opacity="0.7" d="M244.609 188.655L245.21 188.643C244.077 133.165 247.122 91.8672 252.449 90.4462L252.294 89.8684C245.666 91.6366 243.664 142.316 244.609 188.655Z" fill="#CC937A"/>
</g>
<g opacity="0.7">
<path opacity="0.7" d="M255.789 190.276L256.39 190.308C260.946 133.333 268.212 91.2163 273.669 90.1641L273.574 89.5635C266.781 90.8704 259.593 142.686 255.789 190.276Z" fill="#CC937A"/>
</g>
<path d="M246.675 186.411C223.973 182.218 187.209 178.298 195.318 199.841H232.634L246.675 186.411Z" fill="#F9CDB7"/>
<path opacity="0.4" d="M246.675 186.411C223.973 182.218 187.209 178.298 195.318 199.841H232.634L246.675 186.411Z" fill="url(#paint1_linear_1133_4240)"/>
<path d="M226.132 189.768C233.288 181.649 251.295 187.024 262.506 189.955C270.857 184.734 277.649 90.6239 284.151 89.3302C286.036 88.9566 291.287 89.6028 292.439 94.1807C294.701 103.135 271.33 194.91 264.169 199.386C259.739 199.386 233.449 199.934 225.785 199.934C223.863 198.14 223.229 193.06 226.132 189.768Z" fill="#CC937A"/>
<path d="M264.172 199.387C262.075 199.387 255.055 199.489 247.433 199.596C247.952 197.522 248.558 195.42 249.251 193.305C249.944 191.19 250.692 189.16 251.5 187.191C255.45 188.062 259.265 189.113 262.506 189.954C265.333 188.188 267.98 176.236 270.497 161.152C273.452 159.306 276.376 158.404 279.099 158.63C273.345 179.343 267.256 197.459 264.172 199.387Z" fill="#C48772"/>
<path opacity="0.7" d="M203.118 188.545C205.149 185.258 208.902 183.793 212.041 183.259C212.654 183.301 213.301 183.337 213.971 183.364C210.348 183.835 205.692 185.25 203.625 188.852C201.968 191.735 202.254 195.372 204.752 199.813L204.232 200.106C201.62 195.467 201.244 191.575 203.118 188.545Z" fill="#CC937A"/>
<path opacity="0.7" d="M215.316 188.831C217.426 185.418 221.788 184.171 225.046 183.8C225.798 183.862 226.592 183.91 227.429 183.944C223.836 184.273 218.006 185.606 215.818 189.145C214.163 191.822 214.581 195.414 217.06 199.819L216.539 200.112C213.954 195.503 213.538 191.707 215.316 188.831Z" fill="#CC937A"/>
<path d="M226.185 140.356C226.185 140.356 223.825 147.83 221.689 149.245C219.744 150.535 213.698 126.864 211.316 121.603C211.083 121.087 210.885 120.748 210.73 120.626C208.987 119.278 201.006 120.064 200.499 119.334C199.993 118.604 205.897 117.817 205.897 117.532C205.897 117.247 199.939 115.957 198.533 115.396C197.128 114.835 198.477 113.595 198.477 113.595C195.947 113.651 195.947 112.527 195.947 112.527C197.773 110.59 201.123 111.539 201.232 111.566C200.501 111.002 199.606 109.489 200.954 109.404C202.301 109.318 211.801 113.313 211.801 113.313C211.801 113.313 210.96 108.423 211.801 107.187C212.641 105.951 213.543 108.028 213.683 109.404C213.822 110.779 216.185 114.494 216.578 117.978C216.65 118.451 216.764 118.917 216.918 119.37C218.645 124.91 226.185 140.356 226.185 140.356Z" fill="#F8A478"/>
<path opacity="0.25" d="M226.185 140.356C226.185 140.356 223.825 147.83 221.689 149.245C219.744 150.535 213.698 126.864 211.316 121.603C213.031 121.363 215.427 120.769 216.914 119.376C218.645 124.91 226.185 140.356 226.185 140.356Z" fill="#DC6350"/>
<path d="M174.478 179.867C178.188 189.814 180.549 234.162 180.549 234.162L172.455 237.028C172.455 237.028 169.932 229.793 166.715 220.564C161.55 205.721 154.61 185.729 153.571 182.399C151.889 177.003 155.931 168.572 160.314 166.093C163.819 164.11 195.834 157.937 208.528 155.543C211.712 154.942 213.679 154.582 213.679 154.582C213.679 154.582 230.625 158.122 231.299 167.564C231.973 177.007 174.478 179.867 174.478 179.867Z" fill="#494867"/>
<path d="M174.477 179.867C177.112 186.931 179.066 211.339 179.977 224.896C180.349 230.432 180.548 234.159 180.548 234.159L172.455 237.025C172.455 237.025 171.245 233.562 169.436 228.377C168.63 226.064 167.706 223.411 166.715 220.569C173.38 211.84 169.238 190.518 169.082 178.526C168.915 165.038 190.326 163.688 198.42 162.211C206.431 160.748 208.486 155.653 208.528 155.548C211.711 154.948 213.679 154.587 213.679 154.587C213.679 154.587 230.625 158.127 231.298 167.57C231.972 177.013 174.477 179.867 174.477 179.867Z" fill="#2F2E4E"/>
<path d="M256.543 181.553C249.243 190.827 196.397 185.263 196.397 185.263C196.461 185.34 196.526 185.42 196.59 185.503C200.324 190.285 203.373 201.579 205.539 212.063C207.901 223.508 209.211 233.991 209.211 233.991L201.119 236.183C201.119 236.183 199.15 232.539 196.283 227.174C189.149 213.822 176.451 189.817 174.647 184.761C172.117 177.673 173.806 172.114 179.536 168.742C183.812 166.22 208.258 162.496 220.404 160.757C224.542 160.166 227.25 159.807 227.25 159.807C227.25 159.807 263.841 172.279 256.543 181.553Z" fill="#494867"/>
<path opacity="0.54" d="M256.543 181.553C249.243 190.827 196.397 185.263 196.397 185.263C194.037 181.407 191.17 177.676 191.17 177.676C191.17 177.676 235.345 182.902 229.361 175.652C223.377 168.401 220.404 160.757 220.404 160.757C224.542 160.166 227.25 159.807 227.25 159.807C227.25 159.807 263.841 172.279 256.543 181.553Z" fill="#2F2E4E"/>
<path d="M191.17 177.676C191.17 177.676 195.161 179.418 196.96 181.834C198.758 184.251 199.214 185.532 199.214 185.532L196.397 185.263L191.17 177.676Z" fill="#2F2E4E"/>
<path opacity="0.54" d="M209.211 233.99L201.119 236.182C201.119 236.182 199.151 232.538 196.283 227.173C203.517 224.496 205.533 212.064 205.533 212.064C207.901 223.507 209.211 233.99 209.211 233.99Z" fill="#2F2E4E"/>
<path d="M170.319 231.633C170.319 231.633 167.565 230.99 168.577 234.208C168.828 235.006 172.287 247.175 161.664 250.152C161.664 250.152 159.219 250.902 160.989 252.691C162.76 254.479 171.44 255.453 173.505 250.623C175.57 245.793 178.946 238.639 177.092 236.401C175.237 234.163 170.319 231.633 170.319 231.633Z" fill="#271008"/>
<path d="M180.717 260.183C180.717 260.183 176.981 260.754 172.1 261.213C168.477 261.554 164.224 261.834 160.4 261.774C155.027 261.691 150.504 260.933 149.777 258.74C147.837 252.874 152.224 254.326 158.123 252.687C159.685 252.253 161.148 251.839 162.485 251.365C166.296 250.01 169.1 248.157 170.347 243.925C172.028 238.21 168.829 230.989 168.829 230.989C168.829 230.989 172.156 229.773 174.225 229.776C176.295 229.778 177.513 239.025 176.417 243.183C175.727 245.804 177.619 251.876 179.105 256.008C179.978 258.428 180.717 260.183 180.717 260.183Z" fill="#633525"/>
<path opacity="0.59" d="M179.104 256.004C178.69 256.636 178.194 257.21 177.629 257.713C175.98 259.158 174.116 260.339 172.104 261.213C168.481 261.554 164.227 261.834 160.404 261.774C159.808 261.413 159.284 260.946 158.858 260.396C158.858 260.396 164.558 260.012 164.263 256.415C163.969 252.819 162.486 251.362 162.486 251.362C166.297 250.007 169.101 248.153 170.348 243.921C171.524 239.936 172.169 235.805 172.451 233.669C172.676 231.975 174.062 230.638 175.77 230.565C175.826 230.565 175.883 230.565 175.94 230.565C178.009 230.565 177.514 239.023 176.421 243.178C175.727 245.8 177.614 251.872 179.104 256.004Z" fill="#2B0F04"/>
<path d="M175.996 230.994C175.214 231.148 174.512 231.572 174.012 232.192C173.512 232.813 173.247 233.59 173.263 234.386C173.349 238.809 173.63 247.692 169.394 249.57C164.069 251.93 164.092 251.078 165.019 254.314C165.947 257.55 165.341 261.853 165.341 261.853C165.341 261.853 182.83 261.373 185.522 259.359C186.659 258.51 184.454 253.604 183.639 247.561C182.521 239.262 182.403 229.315 182.403 229.315C180.308 230.019 178.167 230.58 175.996 230.994Z" fill="#7A402A"/>
<path d="M167.402 253.853C167.864 253.853 168.238 253.479 168.238 253.017C168.238 252.555 167.864 252.181 167.402 252.181C166.941 252.181 166.566 252.555 166.566 253.017C166.566 253.479 166.941 253.853 167.402 253.853Z" fill="white"/>
<path d="M167.983 253.015C167.983 252.9 167.949 252.788 167.885 252.692C167.821 252.597 167.73 252.523 167.624 252.479C167.518 252.435 167.402 252.423 167.289 252.446C167.177 252.468 167.073 252.523 166.992 252.605C166.911 252.686 166.856 252.789 166.833 252.902C166.811 253.014 166.822 253.131 166.866 253.237C166.91 253.343 166.985 253.433 167.08 253.497C167.176 253.561 167.288 253.595 167.402 253.595C167.556 253.595 167.704 253.534 167.813 253.425C167.921 253.316 167.983 253.169 167.983 253.015Z" fill="black"/>
<path d="M170.272 252.659C170.734 252.659 171.108 252.285 171.108 251.823C171.108 251.362 170.734 250.987 170.272 250.987C169.811 250.987 169.436 251.362 169.436 251.823C169.436 252.285 169.811 252.659 170.272 252.659Z" fill="white"/>
<path d="M170.852 251.823C170.853 251.708 170.819 251.596 170.755 251.5C170.691 251.404 170.6 251.329 170.494 251.285C170.388 251.241 170.271 251.229 170.158 251.252C170.045 251.274 169.941 251.33 169.86 251.411C169.779 251.492 169.723 251.596 169.701 251.709C169.678 251.822 169.69 251.939 169.734 252.045C169.778 252.151 169.853 252.242 169.949 252.306C170.045 252.37 170.157 252.404 170.272 252.403C170.426 252.403 170.574 252.342 170.683 252.234C170.791 252.125 170.852 251.977 170.852 251.823Z" fill="black"/>
<path d="M172.479 250.186C172.941 250.186 173.315 249.811 173.315 249.35C173.315 248.888 172.941 248.514 172.479 248.514C172.017 248.514 171.643 248.888 171.643 249.35C171.643 249.811 172.017 250.186 172.479 250.186Z" fill="white"/>
<path d="M173.06 249.35C173.06 249.235 173.026 249.123 172.962 249.027C172.898 248.931 172.807 248.857 172.701 248.813C172.595 248.769 172.478 248.757 172.365 248.78C172.252 248.802 172.149 248.858 172.068 248.939C171.986 249.02 171.931 249.124 171.908 249.237C171.886 249.349 171.897 249.466 171.941 249.572C171.985 249.679 172.06 249.769 172.156 249.833C172.251 249.897 172.364 249.931 172.479 249.931C172.555 249.931 172.631 249.916 172.701 249.887C172.772 249.858 172.836 249.815 172.89 249.761C172.944 249.707 172.987 249.643 173.016 249.572C173.045 249.502 173.06 249.426 173.06 249.35Z" fill="black"/>
<path d="M173.895 246.73C174.357 246.73 174.731 246.356 174.731 245.894C174.731 245.432 174.357 245.058 173.895 245.058C173.433 245.058 173.059 245.432 173.059 245.894C173.059 246.356 173.433 246.73 173.895 246.73Z" fill="white"/>
<path d="M174.475 245.894C174.475 245.779 174.441 245.667 174.377 245.572C174.314 245.476 174.223 245.402 174.117 245.358C174.011 245.314 173.894 245.302 173.782 245.325C173.669 245.347 173.566 245.403 173.485 245.484C173.404 245.565 173.348 245.668 173.326 245.781C173.304 245.893 173.315 246.01 173.359 246.116C173.403 246.222 173.477 246.313 173.573 246.376C173.668 246.44 173.78 246.474 173.895 246.474C174.049 246.474 174.196 246.413 174.305 246.304C174.414 246.195 174.475 246.048 174.475 245.894Z" fill="black"/>
<path d="M174.916 243.468C175.378 243.468 175.752 243.093 175.752 242.632C175.752 242.17 175.378 241.796 174.916 241.796C174.454 241.796 174.08 242.17 174.08 242.632C174.08 243.093 174.454 243.468 174.916 243.468Z" fill="white"/>
<path d="M175.496 242.631C175.496 242.517 175.462 242.405 175.399 242.309C175.335 242.214 175.244 242.139 175.138 242.095C175.032 242.052 174.915 242.04 174.803 242.062C174.69 242.085 174.587 242.14 174.506 242.221C174.425 242.302 174.369 242.406 174.347 242.518C174.325 242.631 174.336 242.747 174.38 242.853C174.424 242.96 174.498 243.05 174.594 243.114C174.689 243.178 174.801 243.212 174.916 243.212C175.07 243.212 175.218 243.151 175.326 243.042C175.435 242.933 175.496 242.785 175.496 242.631Z" fill="black"/>
<path d="M175.359 239.825C175.821 239.825 176.195 239.451 176.195 238.989C176.195 238.528 175.821 238.153 175.359 238.153C174.897 238.153 174.523 238.528 174.523 238.989C174.523 239.451 174.897 239.825 175.359 239.825Z" fill="white"/>
<path d="M175.94 238.989C175.94 238.874 175.906 238.762 175.842 238.666C175.778 238.57 175.688 238.495 175.581 238.451C175.475 238.407 175.358 238.395 175.245 238.418C175.132 238.44 175.029 238.496 174.947 238.577C174.866 238.658 174.81 238.762 174.788 238.875C174.766 238.988 174.777 239.105 174.821 239.211C174.866 239.317 174.94 239.408 175.036 239.472C175.132 239.536 175.244 239.57 175.36 239.57C175.513 239.57 175.661 239.508 175.77 239.4C175.879 239.291 175.94 239.143 175.94 238.989Z" fill="black"/>
<path d="M175.496 236.063C175.958 236.063 176.332 235.689 176.332 235.227C176.332 234.765 175.958 234.391 175.496 234.391C175.034 234.391 174.66 234.765 174.66 235.227C174.66 235.689 175.034 236.063 175.496 236.063Z" fill="white"/>
<path d="M176.078 235.227C176.078 235.112 176.044 235 175.98 234.904C175.917 234.808 175.826 234.733 175.72 234.689C175.613 234.645 175.496 234.633 175.384 234.656C175.271 234.678 175.167 234.733 175.086 234.814C175.004 234.896 174.949 234.999 174.926 235.112C174.904 235.225 174.915 235.342 174.959 235.448C175.003 235.554 175.078 235.645 175.173 235.709C175.269 235.773 175.381 235.807 175.496 235.807C175.65 235.807 175.798 235.746 175.907 235.637C176.016 235.529 176.077 235.381 176.078 235.227Z" fill="black"/>
<path d="M172.513 244.469C172.522 244.458 172.528 244.444 172.528 244.43C172.547 244.378 172.58 244.332 172.624 244.299C172.667 244.258 172.708 244.213 172.744 244.167C172.786 244.117 172.817 244.059 172.833 243.996C172.87 243.801 172.535 243.628 172.403 243.515C172.212 243.354 170.778 242.451 169.655 241.132C169.576 241.04 169.46 240.636 169.415 240.642C169.203 240.675 168.827 240.897 168.88 241.097C168.885 241.115 168.891 241.132 168.898 241.148C168.994 241.365 169.198 241.555 169.362 241.726C169.65 242.026 169.962 242.309 170.267 242.589C170.47 242.78 172.401 244.563 172.513 244.469Z" fill="#C16748"/>
<path d="M171.864 246.673L171.889 246.663C171.927 246.641 171.961 246.614 171.99 246.581C172.07 246.496 172.224 246.353 172.197 246.233C172.167 246.093 171.92 246.034 171.799 245.959C171.598 245.839 171.403 245.69 171.206 245.559C170.832 245.31 170.461 245.057 170.098 244.797C169.818 244.597 169.539 244.392 169.277 244.176C169.148 244.069 168.965 243.966 168.895 243.824C168.826 243.682 168.895 243.483 168.929 243.344C168.963 243.204 169.132 243.021 169.015 242.881C168.899 242.742 168.612 242.746 168.462 242.816C168.266 242.913 168.113 243.077 168.029 243.278C167.946 243.48 167.938 243.704 168.008 243.911C168.068 244.132 168.302 244.335 168.488 244.502C168.805 244.782 169.136 245.045 169.482 245.29C169.876 245.576 170.283 245.852 170.694 246.122C170.903 246.265 171.551 246.784 171.864 246.673Z" fill="#C16748"/>
<path d="M169.542 249.477C169.701 249.43 169.847 249.348 169.971 249.237C170.068 249.14 170.048 249.004 170.042 248.877C169.979 247.701 168.982 246.085 167.718 245.9C167.596 245.869 167.468 245.884 167.357 245.942C167.225 246.031 167.2 246.212 167.215 246.369C167.231 246.525 168.151 246.676 168.234 246.763C168.522 247.05 168.757 247.386 168.928 247.755C169.125 248.194 169.289 248.7 169.206 249.196C169.169 249.428 169.274 249.57 169.492 249.493L169.542 249.477Z" fill="#C16748"/>
<path d="M166.035 251.084C166.167 251.049 166.289 250.987 166.396 250.903C166.476 250.83 166.461 250.724 166.455 250.628C166.403 249.723 165.567 248.482 164.506 248.34C164.405 248.316 164.298 248.328 164.204 248.372C164.155 248.41 164.117 248.461 164.096 248.519C164.075 248.577 164.071 248.639 164.083 248.7C164.095 248.809 164.193 249.282 164.384 249.144C164.393 249.049 164.555 248.993 164.658 249.009C164.76 249.024 164.85 249.129 164.919 249.195C165.106 249.381 165.274 249.585 165.42 249.805C165.64 250.117 165.818 250.492 165.752 250.87C165.721 251.047 165.808 251.156 165.992 251.098L166.035 251.084Z" fill="#C16748"/>
<path d="M167.06 253.155C167.155 253.157 167.247 253.12 167.315 253.054C167.345 253.026 167.368 252.991 167.383 252.952C167.398 252.914 167.404 252.873 167.402 252.831C167.4 252.79 167.388 252.75 167.369 252.713C167.35 252.677 167.322 252.645 167.29 252.62C166.892 252.296 163.354 249.468 161.825 249.572C161.708 249.575 161.592 249.6 161.484 249.648C161.377 249.695 161.279 249.763 161.198 249.848C161.17 249.878 161.149 249.914 161.135 249.952C161.122 249.991 161.117 250.032 161.121 250.073C161.125 250.114 161.138 250.153 161.158 250.189C161.179 250.224 161.207 250.255 161.24 250.278C161.417 250.39 161.553 250.208 161.741 250.174C162.123 250.104 162.518 250.304 162.848 250.45C163.304 250.66 163.745 250.901 164.169 251.171C165.094 251.748 165.982 252.383 166.827 253.071C166.892 253.126 166.975 253.156 167.06 253.155Z" fill="#CC937A"/>
<path d="M170.079 251.971C170.157 251.979 170.236 251.961 170.303 251.919C170.34 251.897 170.372 251.867 170.397 251.832C170.423 251.796 170.44 251.756 170.449 251.714C170.458 251.672 170.458 251.628 170.449 251.586C170.441 251.543 170.423 251.503 170.398 251.468C170.072 250.993 169.544 250.602 169.041 250.316C167.78 249.595 166.278 249.495 164.881 249.814C164.605 249.876 164.333 249.954 164.066 250.043C163.853 250.115 163.502 250.191 163.334 250.338C163.307 250.358 163.289 250.387 163.282 250.42C163.282 250.483 163.389 250.576 163.417 250.64C163.455 250.722 163.522 250.786 163.606 250.819C163.689 250.852 163.783 250.852 163.866 250.819C167.941 249.216 169.752 251.717 169.828 251.824C169.857 251.865 169.894 251.899 169.937 251.925C169.981 251.95 170.029 251.966 170.079 251.971Z" fill="#CC937A"/>
<path d="M166.051 247.904C166.128 247.945 166.217 247.954 166.301 247.93C166.637 247.83 166.968 247.713 167.292 247.578C167.786 247.382 168.211 247.218 168.602 247.257C170.765 247.498 171.944 249.433 171.996 249.522C172.031 249.595 172.091 249.654 172.165 249.688C172.239 249.722 172.323 249.728 172.402 249.707C172.443 249.695 172.481 249.676 172.514 249.649C172.546 249.623 172.573 249.59 172.593 249.552C172.612 249.514 172.624 249.473 172.627 249.431C172.63 249.389 172.624 249.346 172.61 249.307C172.529 249.066 171.125 246.904 168.653 246.617C168.094 246.553 167.572 246.761 167.02 246.977C166.718 247.104 166.409 247.214 166.094 247.308C166.053 247.319 166.015 247.338 165.982 247.364C165.949 247.39 165.922 247.423 165.902 247.461C165.882 247.498 165.87 247.539 165.867 247.581C165.864 247.623 165.869 247.666 165.883 247.705C165.911 247.791 165.971 247.862 166.051 247.904Z" fill="#CC937A"/>
<path d="M167.752 245.397C167.804 245.409 167.859 245.403 167.908 245.38C168.692 245.071 169.541 244.967 170.376 245.076C171.605 245.227 173.241 245.892 173.778 246.11C173.939 246.175 173.974 246.189 174.005 246.198C174.075 246.208 174.145 246.192 174.203 246.153C174.261 246.114 174.303 246.055 174.321 245.987C174.338 245.92 174.33 245.848 174.298 245.786C174.266 245.723 174.212 245.675 174.147 245.65L173.975 245.58C173.424 245.357 171.747 244.676 170.459 244.516C169.534 244.392 168.593 244.512 167.729 244.863C167.664 244.897 167.612 244.952 167.585 245.02C167.557 245.088 167.555 245.164 167.579 245.233C167.592 245.273 167.614 245.309 167.644 245.337C167.675 245.366 167.712 245.386 167.752 245.397Z" fill="#CC937A"/>
<path d="M168.789 242.576C168.818 242.584 168.848 242.585 168.878 242.581C168.908 242.576 168.936 242.566 168.962 242.55C168.981 242.54 169.591 242.227 171.065 242.507C171.335 242.557 171.615 242.611 171.895 242.666C174.14 243.104 174.832 243.203 175.094 243.018C175.156 242.972 175.2 242.907 175.219 242.832C175.239 242.758 175.233 242.679 175.202 242.609C175.19 242.579 175.171 242.552 175.147 242.53C175.123 242.508 175.095 242.492 175.064 242.482C175.033 242.472 175 242.469 174.968 242.473C174.936 242.477 174.905 242.488 174.878 242.505C174.603 242.583 173.112 242.293 172.02 242.08C171.74 242.026 171.46 241.971 171.189 241.92C169.529 241.606 168.838 241.98 168.765 242.025C168.7 242.067 168.652 242.129 168.628 242.202C168.603 242.275 168.604 242.354 168.63 242.426C168.643 242.462 168.664 242.494 168.691 242.52C168.719 242.546 168.752 242.566 168.789 242.576Z" fill="#CC937A"/>
<path d="M169.122 240.317C169.164 240.315 169.205 240.305 169.243 240.286C169.261 240.277 170.959 239.417 172.162 239.374C173.43 239.328 175.461 239.202 175.482 239.201C175.555 239.195 175.624 239.16 175.672 239.104C175.72 239.048 175.745 238.976 175.74 238.902C175.736 238.828 175.702 238.759 175.647 238.71C175.593 238.66 175.521 238.634 175.447 238.637C175.426 238.637 173.405 238.765 172.141 238.809C170.82 238.856 169.062 239.745 168.988 239.782C168.932 239.812 168.887 239.859 168.861 239.916C168.835 239.974 168.829 240.038 168.844 240.1C168.859 240.161 168.893 240.216 168.943 240.255C168.992 240.294 169.053 240.316 169.116 240.317H169.122Z" fill="#CC937A"/>
<path d="M173.285 241.799C173.315 241.761 173.336 241.718 173.347 241.671C173.397 241.51 173.446 241.347 173.496 241.19C173.501 241.175 173.504 241.16 173.505 241.144C173.505 241.08 173.308 240.947 173.256 240.898C173.164 240.812 173.07 240.729 172.974 240.647C172.764 240.465 172.545 240.294 172.317 240.132C171.968 239.884 171.549 239.581 171.106 239.516C170.715 239.458 170.334 239.345 169.976 239.179C169.735 239.069 169.405 238.913 169.285 238.675C169.279 238.663 169.275 238.651 169.273 238.638C169.272 238.62 169.276 238.603 169.284 238.587C169.325 238.467 169.284 238.413 169.164 238.384C169.077 238.363 168.986 238.376 168.909 238.421C168.832 238.466 168.775 238.539 168.75 238.624C168.728 238.72 168.726 238.82 168.747 238.917C168.768 239.013 168.81 239.104 168.871 239.182C169.268 239.744 170.48 240.083 171.005 240.158C171.438 240.222 171.864 240.604 172.187 240.86C172.396 241.026 172.6 241.199 172.796 241.38C172.95 241.522 173.089 241.707 173.269 241.817L173.285 241.799Z" fill="#C16748"/>
<path d="M149.393 257.261C149.393 257.261 153.21 260.703 162.619 260.529C172.029 260.354 185.244 255.123 185.244 255.123L185.845 257.366C185.845 257.366 166.67 264.84 161.949 263.323C157.228 261.805 148.91 259.051 148.91 259.051L149.393 257.261Z" fill="black"/>
<path d="M147.838 260.848C147.838 260.848 148.219 259.34 148.422 258.947C148.625 258.555 149.319 258.664 149.319 258.664C149.319 258.664 156.578 261.525 162.026 261.667C165.537 261.761 174.587 260.092 180.463 258.203C182.298 257.621 184.102 256.949 185.869 256.187C186.52 256.213 186.675 256.651 186.675 256.651L187.46 260.32C187.144 260.601 186.802 260.852 186.439 261.07C186.353 260.83 186.199 260.502 186.015 260.525L185.884 261.351L185.844 261.368C185.416 261.537 184.802 261.769 184.042 261.991C183.983 261.722 183.823 261.281 183.415 261.332L183.317 262.185C182.723 262.331 182.122 262.445 181.516 262.526L181.101 262.579C181.037 262.359 180.851 261.876 180.543 261.858C180.543 261.858 180.527 262.301 180.523 262.652C179.123 262.813 178.26 262.857 178.26 262.857C177.878 261.809 177.299 261.296 177.299 261.296L171.662 262.725V263.599C171.662 263.599 170.798 263.811 169.711 264.048C169.608 263.769 169.416 263.377 169.155 263.387V264.167C168.386 264.329 167.566 264.486 166.886 264.582C166.865 264.44 166.794 264.309 166.686 264.213C166.578 264.117 166.44 264.062 166.296 264.057C166.296 264.057 166.263 264.386 166.23 264.658C165.389 264.746 164.481 264.796 163.662 264.824C163.627 264.632 163.572 264.372 163.572 264.372L163.018 264.241L162.858 264.842C162.308 264.853 161.838 264.856 161.514 264.856C161.103 264.824 160.695 264.759 160.295 264.662V263.976L159.876 263.77L159.487 264.48C158.775 264.313 157.949 264.103 157.102 263.88L157.062 263.118C156.926 263.052 156.786 262.994 156.643 262.944C156.612 262.944 156.39 263.379 156.254 263.649C154.841 263.26 153.459 262.851 152.53 262.543C150.105 261.743 147.838 260.848 147.838 260.848Z" fill="#270E07"/>
<path d="M198.706 231.441C198.706 231.441 195.91 231.013 197.17 234.144C197.482 234.92 201.877 246.782 191.524 250.579C191.524 250.579 189.145 251.516 191.05 253.161C192.955 254.807 201.678 255.099 203.366 250.126C205.053 245.153 207.857 237.753 205.834 235.667C203.811 233.58 198.706 231.441 198.706 231.441Z" fill="#271008"/>
<path d="M211.295 259.099C211.295 259.099 207.615 259.958 202.785 260.796C199.201 261.418 194.977 262.029 191.165 262.266C185.801 262.603 181.233 262.203 180.338 260.069C177.947 254.372 182.433 255.478 188.187 253.385C189.711 252.83 191.136 252.304 192.432 251.725C196.127 250.075 198.777 248.01 199.691 243.694C200.927 237.864 197.168 230.915 197.168 230.915C197.168 230.915 200.389 229.443 202.454 229.285C204.519 229.126 206.45 238.248 205.683 242.481C205.202 245.148 207.553 251.054 209.361 255.058C210.423 257.406 211.295 259.099 211.295 259.099Z" fill="#633525"/>
<path opacity="0.59" d="M209.363 255.057C208.998 255.719 208.549 256.331 208.025 256.876C206.491 258.445 204.724 259.767 202.785 260.795C199.201 261.417 194.977 262.028 191.165 262.265C190.543 261.953 189.984 261.527 189.517 261.011C189.517 261.011 195.17 260.185 194.598 256.622C194.026 253.059 192.436 251.724 192.436 251.724C196.13 250.074 198.78 248.009 199.694 243.694C200.556 239.627 200.878 235.459 200.993 233.308C201.084 231.601 202.362 230.161 204.06 229.955C204.115 229.948 204.171 229.942 204.229 229.938C206.292 229.781 206.456 238.247 205.689 242.48C205.201 245.148 207.555 251.055 209.363 255.057Z" fill="#2B0F04"/>
<path d="M204.311 230.366C203.544 230.58 202.876 231.057 202.426 231.715C201.976 232.372 201.772 233.167 201.851 233.96C202.281 238.364 203.253 247.197 199.176 249.399C194.051 252.162 194.011 251.321 195.184 254.471C196.358 257.62 196.092 261.961 196.092 261.961C196.092 261.961 213.489 260.125 216.022 257.904C217.089 256.968 214.509 252.248 213.226 246.287C211.464 238.099 210.573 228.192 210.573 228.192C208.537 229.057 206.445 229.784 204.311 230.366Z" fill="#7A402A"/>
<path d="M197.464 253.827C197.926 253.827 198.3 253.453 198.3 252.991C198.3 252.529 197.926 252.155 197.464 252.155C197.003 252.155 196.628 252.529 196.628 252.991C196.628 253.453 197.003 253.827 197.464 253.827Z" fill="white"/>
<path d="M198.042 252.945C198.033 252.831 197.99 252.722 197.919 252.632C197.848 252.542 197.752 252.475 197.643 252.439C197.533 252.404 197.416 252.402 197.306 252.433C197.196 252.464 197.097 252.527 197.022 252.615C196.948 252.702 196.901 252.809 196.887 252.923C196.874 253.037 196.895 253.152 196.947 253.255C196.999 253.357 197.08 253.441 197.18 253.497C197.28 253.553 197.394 253.579 197.509 253.57C197.585 253.564 197.659 253.543 197.727 253.508C197.795 253.474 197.855 253.426 197.905 253.368C197.954 253.31 197.992 253.243 198.015 253.17C198.039 253.098 198.048 253.021 198.042 252.945Z" fill="black"/>
<path d="M200.232 252.413C200.694 252.413 201.068 252.039 201.068 251.577C201.068 251.115 200.694 250.741 200.232 250.741C199.77 250.741 199.396 251.115 199.396 251.577C199.396 252.039 199.77 252.413 200.232 252.413Z" fill="white"/>
<path d="M200.81 251.532C200.801 251.418 200.758 251.309 200.687 251.219C200.616 251.129 200.52 251.061 200.411 251.026C200.302 250.99 200.185 250.988 200.074 251.019C199.964 251.05 199.865 251.113 199.79 251.2C199.716 251.288 199.669 251.395 199.655 251.509C199.641 251.623 199.662 251.738 199.714 251.841C199.766 251.943 199.847 252.027 199.947 252.084C200.047 252.14 200.162 252.165 200.276 252.156C200.352 252.15 200.426 252.129 200.494 252.095C200.562 252.06 200.623 252.013 200.672 251.955C200.722 251.897 200.759 251.83 200.783 251.757C200.807 251.685 200.816 251.608 200.81 251.532Z" fill="black"/>
<path d="M202.239 249.776C202.701 249.776 203.075 249.402 203.075 248.94C203.075 248.479 202.701 248.104 202.239 248.104C201.777 248.104 201.403 248.479 201.403 248.94C201.403 249.402 201.777 249.776 202.239 249.776Z" fill="white"/>
<path d="M202.818 248.895C202.809 248.78 202.766 248.671 202.695 248.581C202.624 248.491 202.527 248.424 202.418 248.389C202.309 248.354 202.192 248.352 202.082 248.383C201.971 248.414 201.873 248.477 201.798 248.564C201.724 248.652 201.677 248.759 201.663 248.873C201.65 248.987 201.67 249.102 201.722 249.204C201.774 249.306 201.855 249.391 201.956 249.447C202.056 249.503 202.17 249.528 202.284 249.519C202.36 249.514 202.435 249.493 202.503 249.458C202.571 249.423 202.631 249.376 202.681 249.318C202.73 249.26 202.768 249.193 202.791 249.12C202.815 249.047 202.824 248.971 202.818 248.895Z" fill="black"/>
<path d="M203.383 246.219C203.844 246.219 204.219 245.845 204.219 245.383C204.219 244.922 203.844 244.547 203.383 244.547C202.921 244.547 202.547 244.922 202.547 245.383C202.547 245.845 202.921 246.219 203.383 246.219Z" fill="white"/>
<path d="M203.961 245.339C203.952 245.225 203.909 245.116 203.838 245.025C203.767 244.935 203.671 244.868 203.562 244.833C203.453 244.797 203.336 244.795 203.225 244.826C203.115 244.857 203.016 244.92 202.941 245.007C202.867 245.094 202.82 245.202 202.806 245.315C202.792 245.429 202.813 245.545 202.865 245.647C202.917 245.749 202.998 245.834 203.098 245.89C203.198 245.946 203.313 245.971 203.427 245.963C203.581 245.951 203.723 245.878 203.823 245.761C203.923 245.644 203.972 245.493 203.961 245.339Z" fill="black"/>
<path d="M204.145 242.887C204.607 242.887 204.981 242.513 204.981 242.051C204.981 241.589 204.607 241.215 204.145 241.215C203.683 241.215 203.309 241.589 203.309 242.051C203.309 242.513 203.683 242.887 204.145 242.887Z" fill="white"/>
<path d="M204.724 242.006C204.715 241.891 204.672 241.782 204.601 241.692C204.53 241.602 204.434 241.535 204.325 241.5C204.216 241.465 204.099 241.462 203.988 241.494C203.878 241.525 203.779 241.588 203.705 241.675C203.63 241.762 203.583 241.87 203.57 241.984C203.556 242.098 203.577 242.213 203.629 242.315C203.681 242.417 203.762 242.502 203.862 242.558C203.962 242.614 204.077 242.639 204.191 242.63C204.344 242.618 204.487 242.545 204.587 242.428C204.687 242.311 204.736 242.159 204.724 242.006Z" fill="black"/>
<path d="M204.304 239.222C204.765 239.222 205.14 238.848 205.14 238.386C205.14 237.925 204.765 237.55 204.304 237.55C203.842 237.55 203.468 237.925 203.468 238.386C203.468 238.848 203.842 239.222 204.304 239.222Z" fill="white"/>
<path d="M204.883 238.341C204.875 238.226 204.833 238.117 204.762 238.026C204.692 237.935 204.596 237.868 204.488 237.831C204.379 237.795 204.262 237.792 204.151 237.822C204.04 237.852 203.941 237.915 203.866 238.001C203.791 238.088 203.743 238.195 203.728 238.309C203.714 238.423 203.734 238.538 203.785 238.641C203.836 238.743 203.917 238.829 204.016 238.886C204.116 238.942 204.23 238.969 204.345 238.96C204.498 238.949 204.641 238.878 204.742 238.762C204.843 238.646 204.893 238.494 204.883 238.341Z" fill="black"/>
<path d="M204.147 235.46C204.609 235.46 204.984 235.086 204.984 234.624C204.984 234.163 204.609 233.788 204.147 233.788C203.686 233.788 203.311 234.163 203.311 234.624C203.311 235.086 203.686 235.46 204.147 235.46Z" fill="white"/>
<path d="M204.727 234.58C204.718 234.465 204.675 234.356 204.604 234.266C204.533 234.176 204.437 234.109 204.328 234.073C204.219 234.037 204.102 234.035 203.991 234.066C203.881 234.097 203.782 234.16 203.707 234.247C203.633 234.335 203.586 234.442 203.572 234.556C203.558 234.67 203.579 234.785 203.631 234.888C203.683 234.99 203.764 235.074 203.864 235.131C203.964 235.187 204.079 235.212 204.193 235.203C204.347 235.191 204.489 235.118 204.589 235.001C204.689 234.885 204.738 234.733 204.727 234.58Z" fill="black"/>
<path d="M201.89 244.072C201.899 244.06 201.904 244.045 201.902 244.03C201.917 243.977 201.946 243.929 201.988 243.893C202.027 243.849 202.064 243.801 202.096 243.751C202.133 243.698 202.159 243.638 202.17 243.575C202.193 243.378 201.845 243.232 201.704 243.131C201.501 242.986 200.002 242.197 198.779 240.969C198.692 240.881 198.546 240.489 198.504 240.498C198.296 240.546 197.938 240.799 198.007 240.994C198.013 241.011 198.021 241.027 198.03 241.042C198.141 241.253 198.36 241.426 198.537 241.583C198.848 241.859 199.176 242.119 199.506 242.373C199.729 242.546 201.788 244.174 201.89 244.072Z" fill="#C16748"/>
<path d="M201.417 246.319L201.443 246.306C201.479 246.282 201.51 246.252 201.535 246.217C201.61 246.126 201.753 245.977 201.717 245.857C201.676 245.721 201.423 245.681 201.297 245.617C201.088 245.509 200.882 245.376 200.675 245.263C200.282 245.045 199.893 244.821 199.511 244.591C199.216 244.413 198.923 244.23 198.645 244.036C198.507 243.94 198.316 243.851 198.237 243.715C198.157 243.579 198.204 243.375 198.237 243.235C198.269 243.094 198.414 242.897 198.287 242.767C198.16 242.638 197.874 242.664 197.73 242.746C197.542 242.857 197.401 243.033 197.334 243.24C197.266 243.447 197.275 243.672 197.361 243.872C197.439 244.087 197.689 244.272 197.884 244.424C198.221 244.679 198.572 244.916 198.935 245.133C199.35 245.387 199.775 245.63 200.209 245.869C200.428 245.988 201.111 246.454 201.417 246.319Z" fill="#C16748"/>
<path d="M199.32 249.291C199.474 249.233 199.614 249.142 199.729 249.024C199.82 248.921 199.788 248.784 199.773 248.664C199.619 247.495 198.499 245.962 197.224 245.877C197.099 245.855 196.971 245.88 196.863 245.947C196.743 246.045 196.729 246.228 196.756 246.383C196.784 246.538 197.717 246.617 197.801 246.696C198.111 246.96 198.372 247.277 198.571 247.631C198.802 248.055 199 248.546 198.961 249.042C198.941 249.277 199.057 249.403 199.268 249.316L199.32 249.291Z" fill="#C16748"/>
<path d="M195.95 251.17C196.078 251.125 196.196 251.054 196.295 250.962C196.371 250.883 196.346 250.778 196.332 250.683C196.212 249.785 195.28 248.612 194.212 248.554C194.109 248.538 194.003 248.557 193.912 248.609C193.867 248.651 193.834 248.704 193.818 248.764C193.801 248.823 193.802 248.886 193.819 248.945C193.84 249.053 193.973 249.518 194.153 249.366C194.153 249.269 194.313 249.201 194.415 249.208C194.521 249.237 194.617 249.294 194.691 249.374C194.893 249.545 195.076 249.736 195.239 249.943C195.479 250.238 195.688 250.597 195.652 250.979C195.634 251.159 195.731 251.26 195.908 251.187L195.95 251.17Z" fill="#C16748"/>
<path d="M197.137 253.155C197.23 253.148 197.316 253.105 197.378 253.035C197.405 253.004 197.426 252.968 197.438 252.928C197.45 252.889 197.453 252.847 197.448 252.806C197.442 252.765 197.428 252.726 197.406 252.691C197.383 252.656 197.354 252.626 197.319 252.604C196.897 252.313 193.151 249.769 191.634 249.993C191.399 250.017 191.183 250.133 191.033 250.316C191.007 250.348 190.989 250.385 190.979 250.425C190.969 250.464 190.967 250.506 190.974 250.546C190.981 250.586 190.997 250.625 191.02 250.659C191.043 250.692 191.074 250.721 191.109 250.742C191.295 250.838 191.415 250.647 191.6 250.598C191.976 250.5 192.385 250.667 192.724 250.788C193.198 250.964 193.659 251.171 194.104 251.409C195.072 251.912 196.006 252.476 196.902 253.097C196.971 253.143 197.055 253.164 197.137 253.155Z" fill="#CC937A"/>
<path d="M200.05 251.739C200.129 251.741 200.206 251.717 200.27 251.671C200.305 251.645 200.334 251.613 200.357 251.576C200.379 251.539 200.393 251.498 200.399 251.455C200.404 251.412 200.401 251.368 200.389 251.327C200.378 251.285 200.357 251.247 200.33 251.213C199.97 250.765 199.41 250.417 198.889 250.169C197.576 249.552 196.074 249.569 194.702 249.994C194.432 250.078 194.168 250.176 193.908 250.286C193.701 250.375 193.357 250.477 193.201 250.636C193.176 250.659 193.16 250.689 193.156 250.723C193.156 250.785 193.276 250.869 193.308 250.932C193.352 251.01 193.424 251.068 193.51 251.095C193.596 251.122 193.688 251.114 193.769 251.075C197.707 249.16 199.708 251.512 199.791 251.613C199.822 251.651 199.862 251.682 199.907 251.704C199.952 251.726 200 251.738 200.05 251.739Z" fill="#CC937A"/>
<path d="M195.717 247.999C195.798 248.033 195.888 248.035 195.97 248.006C196.297 247.88 196.618 247.737 196.931 247.577C197.411 247.343 197.817 247.141 198.211 247.155C200.384 247.232 201.711 249.064 201.771 249.148C201.812 249.219 201.877 249.273 201.953 249.301C202.03 249.329 202.114 249.329 202.191 249.301C202.23 249.286 202.267 249.264 202.297 249.235C202.328 249.206 202.352 249.171 202.369 249.132C202.385 249.093 202.393 249.051 202.393 249.009C202.392 248.967 202.383 248.925 202.366 248.886C202.266 248.656 200.698 246.604 198.212 246.513C197.649 246.494 197.146 246.741 196.613 247.003C196.321 247.153 196.021 247.286 195.715 247.404C195.675 247.418 195.639 247.44 195.608 247.469C195.577 247.498 195.552 247.533 195.535 247.572C195.518 247.61 195.51 247.652 195.51 247.694C195.509 247.737 195.518 247.778 195.535 247.817C195.57 247.899 195.635 247.964 195.717 247.999Z" fill="#CC937A"/>
<path d="M197.219 245.367C197.272 245.374 197.326 245.364 197.373 245.337C198.131 244.969 198.97 244.799 199.811 244.842C201.047 244.898 202.73 245.433 203.283 245.608C203.359 245.636 203.437 245.66 203.516 245.678C203.586 245.683 203.655 245.661 203.71 245.618C203.766 245.575 203.803 245.512 203.815 245.443C203.827 245.374 203.814 245.303 203.776 245.244C203.739 245.184 203.682 245.14 203.614 245.121L203.438 245.065C202.871 244.885 201.146 244.336 199.849 244.279C198.917 244.228 197.989 244.42 197.154 244.836C197.092 244.874 197.045 244.934 197.023 245.004C197.001 245.074 197.005 245.149 197.034 245.217C197.05 245.255 197.075 245.289 197.107 245.315C197.14 245.342 197.178 245.359 197.219 245.367Z" fill="#CC937A"/>
<path d="M198.03 242.474C198.09 242.484 198.151 242.47 198.2 242.434C198.218 242.422 198.801 242.063 200.294 242.227L201.135 242.322C203.408 242.583 204.106 242.628 204.352 242.424C204.41 242.373 204.448 242.304 204.462 242.228C204.476 242.153 204.464 242.075 204.427 242.007C204.413 241.978 204.392 241.953 204.366 241.933C204.341 241.913 204.311 241.899 204.28 241.891C204.248 241.884 204.215 241.883 204.184 241.89C204.152 241.896 204.122 241.909 204.096 241.929C203.828 242.028 202.319 241.855 201.213 241.728L200.372 241.633C198.69 241.448 198.032 241.873 197.963 241.926C197.902 241.973 197.859 242.039 197.84 242.114C197.821 242.189 197.829 242.267 197.86 242.337C197.876 242.372 197.899 242.402 197.929 242.426C197.958 242.45 197.993 242.466 198.03 242.474Z" fill="#CC937A"/>
<path d="M198.188 240.194C198.231 240.191 198.272 240.177 198.308 240.155C198.324 240.144 199.951 239.154 201.147 239.018C202.408 238.874 204.424 238.589 204.444 238.587C204.518 238.576 204.585 238.537 204.63 238.477C204.675 238.417 204.695 238.342 204.684 238.267C204.674 238.193 204.634 238.126 204.574 238.081C204.514 238.036 204.439 238.017 204.365 238.027C204.344 238.027 202.337 238.313 201.083 238.457C199.762 238.607 198.086 239.628 198.015 239.672C197.952 239.711 197.906 239.774 197.888 239.846C197.871 239.919 197.883 239.996 197.921 240.06C197.949 240.105 197.988 240.142 198.035 240.166C198.082 240.189 198.135 240.199 198.188 240.194Z" fill="#CC937A"/>
<path d="M202.455 241.349C202.482 241.309 202.499 241.264 202.507 241.216C202.544 241.051 202.58 240.886 202.617 240.722C202.62 240.706 202.62 240.69 202.617 240.675C202.609 240.611 202.406 240.495 202.349 240.449C202.252 240.37 202.151 240.295 202.05 240.221C201.826 240.057 201.594 239.902 201.355 239.758C200.988 239.538 200.545 239.268 200.1 239.238C199.706 239.213 199.317 239.133 198.946 238.998C198.695 238.905 198.357 238.776 198.218 238.547C198.211 238.537 198.206 238.525 198.203 238.513C198.201 238.495 198.203 238.477 198.21 238.461C198.241 238.341 198.199 238.287 198.072 238.267C197.984 238.253 197.893 238.274 197.82 238.326C197.747 238.377 197.696 238.455 197.679 238.543C197.664 238.64 197.671 238.74 197.7 238.834C197.728 238.929 197.777 239.016 197.844 239.089C198.283 239.619 199.518 239.863 200.047 239.898C200.484 239.926 200.939 240.275 201.28 240.504C201.503 240.653 201.719 240.81 201.928 240.975C202.083 241.124 202.253 241.257 202.433 241.374C202.442 241.366 202.449 241.358 202.455 241.349Z" fill="#C16748"/>
<path d="M179.84 258.626C179.84 258.626 183.914 261.757 193.282 260.853C202.649 259.948 215.416 253.707 215.416 253.707L216.186 255.895C216.186 255.895 197.652 264.841 192.827 263.696C188.003 262.551 179.494 260.453 179.494 260.453L179.84 258.626Z" fill="black"/>
<path d="M178.568 262.322C178.568 262.322 178.831 260.789 179.003 260.382C179.174 259.975 179.876 260.029 179.876 260.029C179.876 260.029 187.334 262.311 192.777 262.037C196.285 261.857 205.177 259.49 210.889 257.147C212.673 256.425 214.419 255.614 216.121 254.717C216.772 254.692 216.962 255.116 216.962 255.116L218.031 258.72C217.737 259.024 217.415 259.301 217.07 259.547C216.966 259.317 216.782 258.999 216.605 259.037L216.539 259.87L216.5 259.891C216.085 260.093 215.492 260.371 214.748 260.652C214.668 260.388 214.476 259.96 214.072 260.043L214.041 260.901C213.46 261.094 212.869 261.254 212.27 261.381L211.861 261.468C211.78 261.253 211.558 260.786 211.248 260.788C211.248 260.788 211.267 261.231 211.29 261.582C209.906 261.851 209.05 261.962 209.05 261.962C208.589 260.947 207.969 260.482 207.969 260.482L202.459 262.345L202.527 263.217C202.527 263.217 201.686 263.496 200.617 263.818C200.497 263.548 200.27 263.172 200.017 263.203L200.078 263.98C199.325 264.201 198.516 264.422 197.849 264.571C197.817 264.43 197.736 264.304 197.621 264.216C197.506 264.128 197.364 264.084 197.219 264.09C197.219 264.09 197.212 264.422 197.201 264.699C196.371 264.852 195.468 264.973 194.653 265.066C194.603 264.876 194.533 264.622 194.533 264.622L193.971 264.535L193.858 265.15C193.312 265.204 192.842 265.243 192.52 265.27C192.108 265.271 191.696 265.238 191.289 265.171L191.236 264.488L190.802 264.316L190.469 265.054C189.749 264.942 188.908 264.797 188.044 264.637L187.946 263.881C187.805 263.826 187.661 263.779 187.514 263.741C187.483 263.741 187.296 264.194 187.182 264.473C185.74 264.196 184.333 263.896 183.387 263.661C180.898 263.038 178.568 262.322 178.568 262.322Z" fill="#270E07"/>
<path opacity="0.56" d="M248.422 103.928L261.682 103.375C261.682 103.375 262.773 103.375 262.523 105.285C262.273 107.195 256.256 110.259 252.828 109.191C249.4 108.123 246.932 106.466 247.123 105.144C247.314 103.823 247.418 103.608 248.422 103.928Z" fill="#DA8326"/>
<path d="M261.675 103.711C261.634 106.187 261.761 107.926 261.761 107.926C261.424 110.231 241.473 108.265 245.631 106.915C246.728 106.554 247.595 105.533 248.274 104.218C250.173 100.546 250.631 94.6083 250.631 94.6083C250.631 94.6083 248.44 94.326 245.797 91.7986C243.154 89.2713 243.774 83.9847 244.505 82.0688C244.926 81.0046 245.248 79.9036 245.466 78.7799C245.576 74.9913 247.164 72.6789 248.919 71.2747C250.316 70.1775 251.97 69.4537 253.724 69.1714C253.724 69.1714 256.115 71.3612 258.626 73.39C260.206 74.6705 261.834 75.885 262.941 76.4495C265.808 77.9102 267.241 84.8232 264.094 90.8377C262.194 94.4713 261.737 99.9429 261.675 103.711Z" fill="#F8A478"/>
<path opacity="0.54" d="M262.236 82.0677C260.208 86.1926 259.542 84.35 258.373 81.3145C257.204 78.2791 251.533 78.1109 251.533 74.1493C251.533 70.1877 248.916 71.2796 248.916 71.2796C250.313 70.1823 251.967 69.4585 253.721 69.1763C253.721 69.1763 256.112 71.3661 258.623 73.3949C261.197 76.4136 263.233 80.04 262.236 82.0677Z" fill="#DC6350"/>
<path d="M261.763 107.926C261.425 110.231 241.474 108.265 245.633 106.915C246.73 106.555 247.597 105.533 248.275 104.218C247.997 106.326 251.025 106.831 255.157 106.718C259.289 106.605 261.674 103.715 261.674 103.715C261.634 106.187 261.763 107.926 261.763 107.926Z" fill="#DC6350"/>
<path d="M248.916 71.2809C248.916 71.2809 249.997 67.8358 251.309 67.9848C252.62 68.1337 251.083 75.8539 254.081 76.8653C257.079 77.8768 260.9 80.9867 260.076 82.9351C260.076 82.9351 259.401 84.4714 260.6 83.4228C261.799 82.3741 263.073 80.9867 264.572 81.8864C266.072 82.7861 265.471 88.63 262.812 88.7429C262.812 88.7429 261.949 93.4637 263.86 94.2133C263.86 94.2133 263.26 92.5652 265.135 91.2907C267.01 90.0162 273.34 85.4456 269.481 78.1771C269.481 78.1771 270.922 71.5824 265.877 68.6971C260.832 65.8118 252.656 65.6256 250.483 67.3073C248.31 68.989 248.916 71.2809 248.916 71.2809Z" fill="#252849"/>
<path d="M250.633 94.607C253.448 94.8645 256.285 94.7319 259.063 94.213C259.063 94.213 259.926 94.0929 259.063 94.7332C258.201 95.3734 250.078 98.5086 250.078 98.5086C250.078 98.5086 250.559 95.6749 250.633 94.607Z" fill="#DC6350"/>
<path d="M269.967 153.002C268.955 172.221 258.128 189.084 258.128 189.084L248.909 186.681C248.909 186.681 249.173 180.461 249.173 180.011C249.173 179.56 248.572 179.41 246.625 180.985C244.678 182.56 243.862 182.644 243.862 182.644C236.949 183.74 229.783 168.396 225.736 163.086C224.86 161.96 223.865 160.934 222.767 160.024C218.675 156.568 213.68 154.57 213.68 154.57C217.897 153.39 226.579 135.351 226.579 135.351L224.388 129.507C224.388 129.507 236.28 113.714 238.214 110.733C240.148 107.753 244.821 105.873 245.576 105.519C246.332 105.165 246.363 104.3 247.312 103.822C248.261 103.344 248.567 103.615 248.567 103.615L248.422 103.925C247.42 103.972 247.341 104.405 247.341 104.405C246.966 106.391 250.9 107.74 254.535 107.664C258.17 107.589 262.328 105.079 262.367 104.293C262.386 104.083 262.327 103.873 262.202 103.704C262.076 103.535 261.893 103.418 261.687 103.375L261.694 103.076C262.633 103.001 262.91 104.254 262.895 105.435C262.884 106.142 263.058 106.839 263.401 107.458C263.738 108.09 264.035 108.743 264.29 109.412C267.186 116.818 270.882 135.623 269.967 153.002Z" fill="#F4B242"/>
<path d="M265.64 144.796C264.8 145.134 263.673 146.257 263.448 147.775C263.224 149.294 265.154 167.138 253.412 166.041C243.562 165.122 233.324 145.241 230.271 138.838C229.696 137.637 229.377 136.907 229.361 136.872C229.538 137.02 242.468 147.809 243.876 144.543C244.007 144.211 244.112 143.868 244.189 143.519C245.602 137.746 247.583 115.86 248.835 120.742L246.306 140.749C246.306 140.749 247.222 140.749 248.876 141.25C249.824 141.542 250.75 141.9 251.646 142.323C253.505 143.191 257.412 143.358 260.547 143.333C263.097 143.314 265.135 143.166 265.135 143.166L265.358 130.857C265.358 130.857 265.658 130.857 265.875 135.748C266.091 140.638 266.484 144.459 265.64 144.796Z" fill="#E07F30"/>
<path d="M260.547 143.333C260.53 144.123 260.501 145.056 260.447 146.079C260.11 152.495 258.816 162.463 254.063 162.837C247.031 163.392 234.522 144.535 232.649 141.386C232.133 140.522 231.289 139.652 230.27 138.838C227.583 136.689 222.812 135.486 221.07 134.791C218.271 133.678 217.811 133.71 217.248 132.806C216.684 131.901 213.877 130.67 214.119 130.221C214.36 129.772 216.574 130.221 216.574 130.221C216.461 129.659 216.949 128.646 216.949 128.646L216.425 127.785C215.9 126.924 215.975 125.424 215.975 125.424C215.975 125.424 213.092 122.09 214.514 121.802C215.936 121.513 218.448 124.788 220.28 126.098C222.112 127.409 227.53 129.172 227.981 129.059C228.431 128.946 227.698 123.102 228.373 122.092C229.049 121.082 229.947 122.766 230.621 126.537C231.295 130.307 233.432 131.652 236.129 136.091C237.586 138.494 241.183 141.377 244.185 143.527C246.745 145.361 248.87 146.658 248.87 146.658V141.253C249.817 141.544 250.743 141.903 251.64 142.325C253.504 143.192 257.413 143.359 260.547 143.333Z" fill="#F8A478"/>
<path opacity="0.82" d="M260.547 143.333C260.53 144.122 260.501 145.056 260.447 146.079C260.447 146.079 254.96 145.246 252.656 144.518C250.352 143.79 248.876 142.776 248.876 142.776V141.253C249.823 141.544 250.749 141.902 251.646 142.325C253.504 143.191 257.413 143.358 260.547 143.333Z" fill="#DC6350"/>
<path opacity="0.82" d="M248.876 146.651C248.876 146.651 253.368 149.774 256.291 155.059C256.291 155.059 256.966 155.66 256.104 153.748C255.241 151.835 252.776 146.591 248.876 145.167V146.651Z" fill="#DC6350"/>
<path opacity="0.56" d="M269.967 153.002C268.956 172.221 258.128 189.084 258.128 189.084L248.91 186.681C248.91 186.681 249.173 180.461 249.173 180.011C249.173 179.561 248.572 179.41 246.625 180.985C244.678 182.56 243.862 182.644 243.862 182.644C236.949 183.74 229.783 168.396 225.736 163.086C224.861 161.961 223.865 160.934 222.768 160.024C222.768 160.024 241.586 166.374 252.71 165.94C263.835 165.506 261.398 151.536 261.398 151.285C261.398 151.034 261.651 150.104 261.651 150.104L262.56 148.25C263.468 146.396 265.613 143.867 265.876 141.248C266.139 138.629 264.282 109.416 264.282 109.416C267.186 116.818 270.882 135.623 269.967 153.002Z" fill="#DA8326"/>
<path d="M196.59 185.507C196.517 185.434 196.452 185.354 196.397 185.267C196.461 185.34 196.526 185.42 196.59 185.507Z" stroke="white" stroke-miterlimit="10"/>
<path d="M215.996 125.408C216.223 125.628 216.453 125.846 216.682 126.062L217.372 126.712C217.835 127.141 218.305 127.564 218.789 127.969C219.029 128.172 219.27 128.372 219.53 128.554C219.791 128.735 220.052 128.914 220.312 129.089C220.836 129.444 221.356 129.802 221.874 130.163L221.846 130.203C221.242 129.987 220.657 129.72 220.097 129.405C219.957 129.331 219.817 129.256 219.683 129.174C219.548 129.091 219.415 129.019 219.268 128.925C219.122 128.831 218.994 128.736 218.859 128.641C218.723 128.546 218.602 128.44 218.478 128.337C217.989 127.923 217.531 127.474 217.109 126.992C216.675 126.514 216.291 125.995 215.96 125.441L215.996 125.408Z" fill="#DC6350"/>
<path d="M216.964 128.628C217.254 128.868 217.54 129.108 217.823 129.349L218.676 130.078L219.517 130.819C219.8 131.066 220.08 131.315 220.358 131.566L220.327 131.603C219.954 131.485 219.599 131.319 219.27 131.11C218.951 130.911 218.648 130.687 218.364 130.441C218.079 130.195 217.815 129.927 217.573 129.639C217.319 129.343 217.105 129.014 216.936 128.662L216.964 128.628Z" fill="#DC6350"/>
<path d="M216.597 130.204L217.402 130.933C217.672 131.173 217.944 131.413 218.22 131.647C218.496 131.88 218.769 132.117 219.055 132.337C219.199 132.447 219.342 132.557 219.493 132.654L219.604 132.731L219.724 132.798C219.8 132.845 219.881 132.886 219.964 132.919L219.951 132.965C219.849 132.975 219.746 132.97 219.646 132.95C219.548 132.933 219.451 132.908 219.356 132.877C219.174 132.815 218.998 132.738 218.828 132.648C218.501 132.471 218.194 132.259 217.912 132.015C217.632 131.776 217.376 131.511 217.147 131.222C216.907 130.926 216.712 130.597 216.568 130.243L216.597 130.204Z" fill="#DC6350"/>
<path d="M198.479 113.579C199.086 113.471 199.703 113.431 200.318 113.459C200.928 113.476 201.536 113.541 202.137 113.651C202.743 113.76 203.337 113.925 203.912 114.145L204.128 114.23C204.202 114.257 204.273 114.288 204.342 114.324C204.483 114.396 204.622 114.461 204.759 114.537C204.896 114.612 205.028 114.704 205.157 114.792C205.282 114.889 205.402 114.992 205.517 115.101L205.493 115.143L205.091 114.944L204.671 114.78C204.388 114.683 204.103 114.587 203.813 114.511C203.234 114.354 202.645 114.228 202.053 114.125C201.461 114.021 200.867 113.918 200.27 113.839C199.972 113.799 199.674 113.762 199.375 113.727C199.076 113.691 198.775 113.656 198.478 113.628L198.479 113.579Z" fill="#DC6350"/>
<path d="M201.233 111.556C201.687 111.435 202.158 111.387 202.628 111.413C203.093 111.427 203.555 111.494 204.004 111.614C204.463 111.731 204.902 111.914 205.309 112.156C205.517 112.281 205.711 112.429 205.887 112.597C206.067 112.766 206.21 112.971 206.308 113.197L206.272 113.23C206.115 113.071 205.939 112.933 205.748 112.819C205.558 112.702 205.359 112.598 205.154 112.509C204.742 112.333 204.315 112.191 203.88 112.082C203.448 111.962 203.008 111.871 202.559 111.794C202.338 111.756 202.115 111.722 201.892 111.691C201.669 111.66 201.446 111.63 201.223 111.608L201.233 111.556Z" fill="#DC6350"/>
<path d="M260.869 85.0718C261.045 84.7422 261.267 84.4396 261.529 84.1733C261.791 83.9012 262.09 83.6678 262.417 83.4802C262.747 83.2909 263.112 83.1685 263.49 83.1199C263.865 83.0716 264.245 83.1153 264.6 83.2472C264.24 83.2013 263.874 83.2147 263.519 83.2868C263.344 83.3235 263.173 83.3749 263.007 83.4406C262.841 83.5047 262.68 83.5814 262.526 83.67C262.214 83.8491 261.92 84.0592 261.649 84.2971C261.372 84.5378 261.112 84.7966 260.869 85.0718Z" fill="#DC6350"/>
<path d="M264.155 84.5015C264.035 84.3814 263.915 84.2721 263.795 84.1664C263.676 84.0639 263.551 83.9696 263.42 83.8841C263.29 83.7998 263.152 83.7285 263.008 83.6715C262.857 83.6146 262.701 83.5689 262.543 83.5345C262.709 83.4841 262.884 83.4754 263.054 83.5093C263.225 83.5403 263.389 83.6057 263.534 83.7015C263.679 83.7966 263.807 83.9147 263.914 84.051C264.024 84.1836 264.106 84.3367 264.155 84.5015Z" fill="#DC6350"/>
<path d="M107.965 52.3127C108 52.179 108.077 52.0605 108.186 51.9753C108.294 51.8902 108.428 51.8433 108.566 51.8418C108.86 51.8538 109.192 52.1181 109.237 53.2088C109.308 54.8905 108.102 54.3728 107.938 53.4178C107.865 53.0519 107.874 52.6744 107.965 52.3127Z" fill="black"/>
<path d="M100.46 52.667C100.5 52.5093 100.59 52.3691 100.718 52.2685C100.845 52.1678 101.003 52.1124 101.165 52.1108C101.511 52.1277 101.902 52.4412 101.959 53.7325C102.048 55.7193 100.63 55.1055 100.433 53.9727C100.346 53.5408 100.355 53.0949 100.46 52.667Z" fill="black"/>
<path d="M105.504 53.2021C105.504 53.2021 107.687 57.5589 107.264 58.1956C106.841 58.8322 105.085 58.7842 105.085 58.7842C105.085 58.7842 106.593 58.6316 106.565 57.3884C106.537 56.1451 105.504 53.2021 105.504 53.2021Z" fill="#DC6350"/>
<path d="M110.237 49.5501C109.886 49.4744 109.562 49.3987 109.242 49.3386C108.934 49.2763 108.621 49.2362 108.306 49.2185C108 49.2013 107.692 49.2203 107.39 49.275C107.062 49.3381 106.741 49.4293 106.429 49.5477C106.618 49.2305 106.901 48.9789 107.237 48.8269C107.579 48.6685 107.955 48.5972 108.33 48.6191C108.698 48.6374 109.058 48.7297 109.389 48.8906C109.719 49.0414 110.009 49.2673 110.237 49.5501Z" fill="#231F20"/>
<path d="M102.093 49.485C101.71 49.4461 101.324 49.4425 100.94 49.4742C100.575 49.5057 100.213 49.5664 99.8585 49.6556C99.6844 49.7109 99.5054 49.7517 99.3336 49.819C99.2471 49.8502 99.157 49.8742 99.0717 49.9115C98.9865 49.9487 98.8988 49.9811 98.8111 50.0148C98.7234 50.0484 98.6357 50.0868 98.5492 50.1253C98.4627 50.1637 98.3726 50.2022 98.2813 50.2382C98.1048 50.3187 97.921 50.4052 97.73 50.4784C97.7864 50.3931 97.8501 50.3127 97.9114 50.2382C97.9726 50.1637 98.0411 50.0784 98.112 50.0052C98.1828 49.9319 98.2621 49.867 98.3402 49.801C98.4146 49.7308 98.495 49.6673 98.5804 49.6112C98.6657 49.5535 98.7522 49.491 98.8411 49.443C98.9302 49.3859 99.0229 49.3345 99.1186 49.2892C99.3077 49.2002 99.5043 49.1278 99.706 49.073C100.114 48.968 100.539 48.9439 100.956 49.0021C101.373 49.0518 101.768 49.2193 102.093 49.485Z" fill="#231F20"/>
<path d="M100.484 61.8682C100.484 61.8682 103.26 63.7637 107.331 62.5048C107.328 62.5024 104.487 64.7283 100.484 61.8682Z" fill="#DC6350"/>
<path d="M108.807 52.8752C108.94 52.8529 109.026 52.7087 109 52.5529C108.974 52.3972 108.845 52.289 108.712 52.3113C108.58 52.3335 108.493 52.4778 108.519 52.6335C108.545 52.7892 108.674 52.8974 108.807 52.8752Z" fill="white"/>
<path d="M101.516 53.1723C101.621 53.05 101.613 52.871 101.499 52.7724C101.384 52.6738 101.206 52.693 101.101 52.8153C100.996 52.9375 101.003 53.1165 101.118 53.2151C101.233 53.3137 101.411 53.2946 101.516 53.1723Z" fill="white"/>
<path opacity="0.28" d="M101.31 58.1863C102.746 58.1863 103.91 56.9031 103.91 55.3202C103.91 53.7373 102.746 52.4541 101.31 52.4541C99.8749 52.4541 98.7111 53.7373 98.7111 55.3202C98.7111 56.9031 99.8749 58.1863 101.31 58.1863Z" fill="white"/>
<path opacity="0.28" d="M109.622 58.0266C111.057 58.0266 112.221 56.7434 112.221 55.1605C112.221 53.5776 111.057 52.2944 109.622 52.2944C108.186 52.2944 107.022 53.5776 107.022 55.1605C107.022 56.7434 108.186 58.0266 109.622 58.0266Z" fill="white"/>
<path d="M101.31 58.1863C102.746 58.1863 103.91 56.9031 103.91 55.3202C103.91 53.7373 102.746 52.4541 101.31 52.4541C99.8749 52.4541 98.7111 53.7373 98.7111 55.3202C98.7111 56.9031 99.8749 58.1863 101.31 58.1863Z" stroke="black" stroke-miterlimit="10"/>
<path d="M109.622 58.0266C111.057 58.0266 112.221 56.7434 112.221 55.1605C112.221 53.5776 111.057 52.2944 109.622 52.2944C108.186 52.2944 107.022 53.5776 107.022 55.1605C107.022 56.7434 108.186 58.0266 109.622 58.0266Z" stroke="black" stroke-miterlimit="10"/>
<path d="M103.91 55.3203C103.91 55.3203 106.218 53.3142 107.022 55.1605" stroke="black" stroke-miterlimit="10" stroke-linecap="round"/>
<path d="M90.0803 55.3207L98.7158 55.1609L98.8203 54.499L89.8737 55.0264L90.0803 55.3207Z" fill="black"/>
<path d="M247.456 79.1091C247.389 78.7932 247.139 78.5649 246.856 78.6046C246.555 78.6466 246.208 78.9914 246.124 80.2863C245.997 82.2863 247.245 81.5632 247.445 80.4136C247.533 79.9835 247.536 79.5406 247.456 79.1091Z" fill="black"/>
<path d="M254.649 80.703C254.614 80.3823 254.391 80.1288 254.107 80.1384C253.803 80.1481 253.421 80.4532 253.2 81.7373C252.862 83.7121 254.179 83.1259 254.5 82.0039C254.632 81.5838 254.683 81.1422 254.649 80.703Z" fill="black"/>
<path d="M249.374 79.8179C249.374 79.8179 247.31 84.2323 247.748 84.857C248.186 85.4816 249.943 85.3867 249.943 85.3867C249.943 85.3867 248.431 85.275 248.427 84.0305C248.422 82.7861 249.374 79.8179 249.374 79.8179Z" fill="#DC6350"/>
<path d="M244.842 77.037C244.937 76.688 245.111 76.3656 245.351 76.0953C245.589 75.8149 245.881 75.5853 246.209 75.4202C246.544 75.2492 246.915 75.1634 247.29 75.1703C247.66 75.1746 248.019 75.2911 248.321 75.5042C247.989 75.5219 247.659 75.5673 247.335 75.64C247.037 75.7127 246.748 75.8195 246.474 75.9583C246.192 76.0985 245.922 76.2591 245.664 76.4388C245.399 76.6214 245.133 76.8208 244.842 77.037Z" fill="#231F20"/>
<path d="M253.665 77.1308C254.053 76.9728 254.477 76.9274 254.889 76.9999C255.305 77.0649 255.705 77.2105 256.065 77.4287C256.242 77.5406 256.409 77.6667 256.565 77.8059C256.644 77.8736 256.718 77.9458 256.788 78.0221C256.857 78.1002 256.924 78.1782 256.989 78.2623C257.055 78.3409 257.115 78.4249 257.167 78.5134C257.222 78.5999 257.274 78.6876 257.325 78.7752C257.377 78.8629 257.412 78.9614 257.445 79.0563C257.479 79.1512 257.519 79.2461 257.548 79.3446C257.378 79.2245 257.235 79.0876 257.089 78.959C257.012 78.8978 256.937 78.8389 256.865 78.774C256.793 78.7092 256.724 78.6467 256.647 78.5915C256.57 78.5362 256.498 78.4713 256.427 78.4161C256.356 78.3608 256.276 78.308 256.202 78.2527C256.057 78.1386 255.898 78.0485 255.747 77.9452C255.434 77.7582 255.106 77.5975 254.767 77.4647C254.411 77.3198 254.042 77.208 253.665 77.1308Z" fill="#231F20"/>
<path d="M250.984 88.0317C250.984 88.0317 248.441 89.0419 245.851 87.7278C245.851 87.7278 248.069 89.9512 250.984 88.0317Z" fill="#DC6350"/>
<path d="M246.961 79.4083C246.983 79.2519 246.892 79.11 246.759 79.0913C246.626 79.0727 246.5 79.1843 246.478 79.3406C246.456 79.497 246.546 79.6389 246.68 79.6576C246.813 79.6763 246.939 79.5646 246.961 79.4083Z" fill="white"/>
<path d="M254.089 81.07C254.128 80.9169 254.053 80.7662 253.922 80.7334C253.792 80.7007 253.655 80.7983 253.616 80.9515C253.578 81.1046 253.653 81.2553 253.783 81.288C253.914 81.3208 254.051 81.2232 254.089 81.07Z" fill="white"/>
<path d="M110.594 264H288.594" stroke="#3981F6" stroke-opacity="0.2" stroke-width="3" stroke-miterlimit="10" stroke-linecap="round"/>
<path d="M62.5945 264L100.594 264" stroke="#3981F6" stroke-opacity="0.2" stroke-width="3" stroke-miterlimit="10" stroke-linecap="round"/>
<defs>
<linearGradient id="paint0_linear_1133_4240" x1="291.494" y1="152.15" x2="210.162" y2="133.746" gradientUnits="userSpaceOnUse">
<stop stop-color="#FFF2C3"/>
<stop offset="1" stop-color="#A53600"/>
</linearGradient>
<linearGradient id="paint1_linear_1133_4240" x1="240.893" y1="191.481" x2="188.388" y2="191.481" gradientUnits="userSpaceOnUse">
<stop stop-color="#FFF2C3"/>
<stop offset="1" stop-color="#A53600"/>
</linearGradient>
</defs>
</svg>
