<svg width="173" height="23" viewBox="0 0 173 23" fill="none" xmlns="http://www.w3.org/2000/svg">
<path d="M13.1475 9.93509H4.88729V1.29419H0.243286V22.04H4.88729V13.8558H13.1475V22.04H17.7915V1.29419H13.1475V9.93509Z" fill="#2666DE"/>
<path d="M42.8386 5.55762C40.136 5.55762 37.7378 6.31893 35.6442 7.84155L37.6236 10.7345C38.2327 10.2778 38.9559 9.8971 39.7934 9.59258C40.6689 9.28805 41.4683 9.13579 42.2296 9.13579C45.5032 9.05966 45.9981 11.7623 45.9981 11.7623H41.9631C39.9076 11.7623 38.2707 12.181 37.0907 12.9804C35.9107 13.7798 35.3016 14.9979 35.3016 16.6347C35.3016 18.2715 36.3675 22.2684 41.2779 22.2684C45.8077 22.2684 48.7007 19.68 49.8046 16.787C52.2028 10.7345 47.4446 5.55762 42.8386 5.55762ZM42.3438 18.3857C41.5444 18.3857 40.9353 18.2335 40.5166 17.9289C40.0979 17.6244 39.8695 17.1676 39.8695 16.5966C39.8695 15.4927 40.745 14.9218 42.5341 14.9218H46.3026C46.3026 14.9218 45.4271 18.3857 42.3438 18.3857Z" fill="#2666DE"/>
<path d="M32.7514 14.8456C33.9315 14.0463 34.5405 12.8282 34.5405 11.1913C34.5405 9.55451 33.4747 5.55762 28.5642 5.55762C24.0344 5.55762 21.1414 8.14608 20.0375 11.0391C17.7155 17.0915 22.4737 22.3065 27.0416 22.3065C29.7443 22.3065 32.1424 21.5452 34.236 20.0226L32.2566 17.1296C31.6475 17.5864 30.9243 17.967 30.0869 18.2715C29.2113 18.5761 28.412 18.7283 27.6507 18.7283C24.377 18.8045 23.8822 16.1018 23.8822 16.1018H27.9171C29.9346 16.0637 31.5714 15.645 32.7514 14.8456ZM23.6157 12.9043C23.6157 12.9043 24.4912 9.47838 27.5745 9.47838C28.3739 9.47838 28.983 9.63064 29.4017 9.93516C29.8204 10.2397 30.0488 10.6965 30.0488 11.2675C30.0488 12.3714 29.1733 12.9424 27.3842 12.9424H23.6157V12.9043Z" fill="#2666DE"/>
<path d="M56.5804 0H52.1267V22.04H56.5804V0Z" fill="#2666DE"/>
<path d="M66.173 18.3856C65.7543 18.3856 65.3736 18.1953 65.031 17.8527C64.7265 17.5101 64.5743 17.0153 64.5743 16.4062V9.24988H68.4189V6.05237H64.5743V1.2561H60.0825V6.05237H58.2173V9.24988H60.0825V16.5965C60.0825 18.3476 60.6154 19.7179 61.6813 20.7076C62.7471 21.7354 64.0413 22.2303 65.564 22.2303C67.0866 22.2303 68.5711 21.5831 69.9415 20.327L68.2666 17.2056C67.7337 18.005 67.0105 18.3856 66.173 18.3856Z" fill="#2666DE"/>
<path d="M84.8251 7.57506C83.6831 6.39503 82.2747 5.78598 80.5998 5.78598C78.9249 5.78598 77.4023 6.47116 76.07 7.84152V0H71.6163V22.04H76.07V13.4372C76.07 12.181 76.4126 11.2294 77.0597 10.6203C77.7068 9.97319 78.5062 9.66867 79.3817 9.66867C81.1708 9.66867 82.0844 10.8868 82.0844 13.361V22.04H86.5381V12.3333C86.5381 10.3539 85.9671 8.75509 84.8251 7.57506Z" fill="#2666DE"/>
<path d="M142.837 14.8456C144.017 14.0463 144.626 12.8282 144.626 11.1913C144.626 9.55451 143.56 5.55762 138.65 5.55762C134.12 5.55762 131.227 8.14608 130.123 11.0391C127.801 17.0915 132.559 22.3065 137.127 22.3065C139.83 22.3065 142.228 21.5452 144.322 20.0226L142.342 17.1296C141.733 17.5864 141.01 17.967 140.172 18.2715C139.297 18.5761 138.498 18.7283 137.736 18.7283C134.463 18.8045 133.968 16.1018 133.968 16.1018H138.003C140.02 16.0637 141.619 15.645 142.837 14.8456ZM133.701 12.9043C133.701 12.9043 134.577 9.47838 137.66 9.47838C138.459 9.47838 139.069 9.63064 139.487 9.93516C139.906 10.2397 140.134 10.6965 140.134 11.2675C140.134 12.3714 139.259 12.9424 137.47 12.9424H133.701V12.9043Z" fill="#2666DE"/>
<path d="M102.944 5.21493C105.114 5.21493 106.941 6.12851 108.388 7.95566L111.281 4.68201C108.997 2.09355 106.142 0.799316 102.716 0.799316C99.6709 0.799316 97.0824 1.82709 94.9888 3.88263C92.8952 5.93818 91.8293 8.52664 91.8293 11.5719C91.8293 14.6552 92.8571 17.2056 94.9127 19.2231C96.9682 21.2406 99.5947 22.2683 102.792 22.2683C105.99 22.2683 108.769 20.936 111.129 18.2714L108.159 15.2262C106.713 17.0153 104.848 17.9288 102.564 17.9288C100.889 17.9288 99.4805 17.3579 98.3005 16.1778C97.1205 14.9978 96.5495 13.4752 96.5495 11.5338C96.5495 9.59247 97.1585 8.06985 98.4147 6.92788C99.7089 5.78592 101.193 5.21493 102.944 5.21493Z" fill="#2666DE"/>
<path d="M121.901 5.78598C120.226 5.78598 118.704 6.47116 117.371 7.84152V0H112.918V22.04H117.371V13.4372C117.371 12.181 117.714 11.2294 118.361 10.6203C119.008 9.97319 119.808 9.66867 120.683 9.66867C122.472 9.66867 123.386 10.8868 123.386 13.361V22.04H127.839V12.3333C127.839 10.3539 127.268 8.75509 126.126 7.57506C124.985 6.39503 123.576 5.78598 121.901 5.78598Z" fill="#2666DE"/>
<path d="M156.883 13.7038C156.274 13.3612 155.779 13.0947 155.361 12.9044C154.942 12.7521 154.219 12.4857 153.191 12.1811C152.163 11.8766 151.44 11.5721 151.021 11.3437C150.602 11.1153 150.374 10.7727 150.374 10.354C150.374 9.59268 151.059 9.21202 152.43 9.21202C153.8 9.21202 155.17 9.66881 156.579 10.6204L158.254 7.65133C156.388 6.39516 154.485 5.74805 152.62 5.74805C150.755 5.74805 149.194 6.20483 148.014 7.15647C146.834 8.07005 146.225 9.28815 146.225 10.7727C146.225 12.2573 146.834 13.3612 148.052 14.1225C148.661 14.5031 149.194 14.7696 149.651 14.998C150.108 15.1883 150.793 15.4167 151.668 15.7212C152.544 15.9877 153.229 16.2922 153.686 16.5967C154.143 16.9013 154.371 17.2439 154.371 17.6245C154.371 18.0052 154.219 18.3097 153.876 18.5381C153.534 18.7665 153.077 18.8807 152.506 18.8807C150.641 18.8807 148.851 18.2336 147.177 16.9393L145.235 19.7181C146.263 20.5556 147.405 21.1646 148.699 21.6214C149.993 22.0401 151.212 22.2685 152.392 22.2685C154.181 22.2685 155.627 21.8117 156.807 20.8601C157.949 19.9085 158.558 18.6523 158.558 17.0916C158.558 15.4928 158.025 14.3509 156.883 13.7038Z" fill="#2666DE"/>
<path d="M171.082 13.7035C170.473 13.3609 169.978 13.0945 169.559 12.9041C169.141 12.7519 168.417 12.4854 167.39 12.1809C166.362 11.8764 165.639 11.5718 165.22 11.3434C164.801 11.1151 164.573 10.7725 164.573 10.3537C164.573 9.59243 165.258 9.21178 166.628 9.21178C167.999 9.21178 169.369 9.66856 170.777 10.6202L172.452 7.65108C170.587 6.39492 168.684 5.7478 166.819 5.7478C164.953 5.7478 163.393 6.20459 162.213 7.15623C161.033 8.0698 160.424 9.2879 160.424 10.7725C160.424 12.257 161.033 13.3609 162.251 14.1222C162.86 14.5029 163.393 14.7694 163.849 14.9977C164.306 15.1881 164.991 15.4165 165.867 15.721C166.742 15.9875 167.428 16.292 167.884 16.5965C168.341 16.901 168.57 17.2436 168.57 17.6243C168.57 18.0049 168.417 18.3095 168.075 18.5379C167.732 18.7662 167.275 18.8804 166.704 18.8804C164.839 18.8804 163.05 18.2333 161.375 16.9391L159.434 19.7179C160.462 20.5553 161.604 21.1644 162.898 21.6212C164.192 22.0399 165.41 22.2683 166.59 22.2683C168.379 22.2683 169.826 21.8115 171.006 20.8598C172.148 19.9082 172.757 18.652 172.757 17.0914C172.757 15.4926 172.224 14.3506 171.082 13.7035Z" fill="#2666DE"/>
</svg>
